<svg xmlns="http://www.w3.org/2000/svg" width="40" height="40" viewBox="0 0 40 40">
  <g id="Group_247" data-name="Group 247" transform="translate(-11447 4179)">
    <path id="Path_18" data-name="Path 18" d="M44,24A20,20,0,1,1,24,4,20,20,0,0,1,44,24Z" transform="translate(11443 -4183)" fill="#039be5"/>
    <path id="Path_19" data-name="Path 19" d="M26.572,29.036h4.917l.772-4.995h-5.69v-2.73c0-2.075.678-3.915,2.619-3.915h3.119V13.037a26.494,26.494,0,0,0-3.9-.236c-4.573,0-7.254,2.415-7.254,7.917v3.323h-4.7v5h4.7V42.765A19.039,19.039,0,0,0,24,43a19.125,19.125,0,0,0,2.572-.194Z" transform="translate(11442.617 -4182)" fill="#fff"/>
  </g>
</svg>
