<svg xmlns="http://www.w3.org/2000/svg" width="39.662" height="39.662" viewBox="0 0 39.662 39.662">
  <g id="icons8_google" transform="translate(-4 -4)">
    <path id="Path_3" data-name="Path 3" d="M43.276,19.947h-1.6v-.082H23.831V27.8H35.039a11.908,11.908,0,1,1-3.314-12.852l5.609-5.609a19.811,19.811,0,1,0,6.328,14.495A19.966,19.966,0,0,0,43.276,19.947Z" transform="translate(0 0)" fill="#ffc107"/>
    <path id="Path_4" data-name="Path 4" d="M6.306,14.6l6.515,4.778a11.875,11.875,0,0,1,18.923-4.433l5.609-5.609A19.792,19.792,0,0,0,6.306,14.6Z" transform="translate(-0.019 0)" fill="#ff3d00"/>
    <path id="Path_5" data-name="Path 5" d="M23.85,43.865a19.738,19.738,0,0,0,13.3-5.148l-6.138-5.194a11.868,11.868,0,0,1-18.346-5.469L6.195,33.037A19.815,19.815,0,0,0,23.85,43.865Z" transform="translate(-0.019 -0.203)" fill="#4caf50"/>
    <path id="Path_6" data-name="Path 6" d="M43.445,20.082h-1.6V20H24v7.932H35.208a11.938,11.938,0,0,1-4.052,5.524l0,0L37.3,38.648a19.183,19.183,0,0,0,6.535-14.682A19.966,19.966,0,0,0,43.445,20.082Z" transform="translate(-0.169 -0.135)" fill="#1976d2"/>
  </g>
</svg>
