<svg xmlns="http://www.w3.org/2000/svg" width="40" height="40" viewBox="0 0 40 40">
  <g id="Group_248" data-name="Group 248" transform="translate(-11599 4179)">
    <path id="Path_17" data-name="Path 17" d="M44,24A20,20,0,1,1,24,4,20,20,0,0,1,44,24Z" transform="translate(11595 -4183)" fill="#03a9f4"/>
    <path id="icons8_twitter" d="M27.87,11.083a9.1,9.1,0,0,1-2.58.706,4.483,4.483,0,0,0,1.975-2.465A9.009,9.009,0,0,1,24.414,10.4a4.476,4.476,0,0,0-7.642,4.059,12.788,12.788,0,0,1-9.249-4.65,4.393,4.393,0,0,0-.608,2.239,4.438,4.438,0,0,0,2,3.7A4.569,4.569,0,0,1,6.876,15.2v.052a4.461,4.461,0,0,0,3.6,4.363,4.463,4.463,0,0,1-1.179.16,4.768,4.768,0,0,1-.846-.082,4.5,4.5,0,0,0,4.191,3.09,9.068,9.068,0,0,1-5.574,1.9A8.876,8.876,0,0,1,6,24.623a12.824,12.824,0,0,0,6.88,2A12.623,12.623,0,0,0,25.645,13.961c0-.193-.006-.385-.015-.574a8.829,8.829,0,0,0,2.24-2.3" transform="translate(11602.003 -4177)" fill="#fff"/>
  </g>
</svg>
