<svg width="77" height="57" viewBox="0 0 77 57" fill="none" xmlns="http://www.w3.org/2000/svg">
<path fill-rule="evenodd" clip-rule="evenodd" d="M28.429 21.4853L22.8122 21.8085C24.665 21.3721 26.5411 21.2814 28.429 21.4853ZM40.0989 17.5238C37.9705 17.8934 35.8498 18.1866 33.7877 18.7867C35.773 17.7441 37.9335 17.5666 40.0989 17.5238ZM37.8334 25.5364C38.1687 26.2975 37.634 26.4113 37.1529 26.5384C35.5265 26.9691 34.2368 26.1223 33.0115 25.3009C32.1184 24.7022 31.2655 23.9675 30.8085 22.9264C30.634 22.5295 30.6056 22.1673 31.2429 22.2329C32.9829 22.4122 34.6518 22.8195 36.1395 23.781C36.8482 24.239 37.4502 24.8158 37.8334 25.5364ZM34.1801 19.6887C35.4006 19.0973 36.7429 18.9327 38.066 18.7289C43.7831 17.8484 49.2962 18.7486 54.7243 20.5794C58.3501 21.8025 61.8238 23.3593 65.2493 25.0418C65.562 25.1951 65.8721 25.3626 66.2348 25.3394C66.6423 25.3132 66.8808 25.1783 66.5131 24.7766C66.4229 24.6775 66.215 24.6373 66.4071 24.4757C67.0696 23.918 66.6273 23.4507 66.2777 23.0032C65.6218 22.1633 64.6703 21.6857 63.7974 21.1388C61.3521 19.6062 58.8465 18.1646 56.1734 17.0642C53.6918 16.0429 51.09 15.3926 48.4715 14.8154C46.8047 14.4481 45.1041 14.0975 43.4226 14.3258C42.3055 14.4775 41.2373 14.2095 40.1426 14.3461C38.044 14.6082 35.9564 14.8915 33.9538 15.6139C32.3057 16.2085 30.9201 17.1737 29.8595 18.5698C29.51 19.0302 29.0837 19.2331 28.5329 19.2392C27.0486 19.2559 25.5603 19.3204 24.0851 19.4043C21.685 19.5402 19.3175 20.0564 16.9852 20.6604C13.2653 21.6238 9.69234 22.9469 6.488 25.1267C4.60466 26.4078 2.8311 27.7933 1.94887 30.0081C1.71657 30.5912 1.60735 31.1723 1.88544 31.7741C2.00499 32.0336 2.17248 32.1972 2.47649 32.198C2.83578 32.1984 2.7709 31.9715 2.82741 31.7148C3.21442 29.9541 4.67143 29.1262 6.00009 28.208C9.66151 25.6776 13.8144 24.3607 18.0926 23.3658C21.3665 22.6047 24.6832 22.1702 28.0469 22.1244C28.314 22.1207 28.6246 21.9795 28.6176 22.4897C28.5931 24.2675 29.3498 25.7534 30.5201 27.0152C32.3262 28.9629 34.4693 30.2537 37.2549 29.9115C38.7517 29.7277 39.4574 28.9163 39.7573 27.4471C40.5221 23.7042 38.1033 21.0508 35.0363 20.1499C34.7616 20.0696 34.4871 19.9891 34.213 19.9088C34.2019 19.8353 34.1911 19.7619 34.1801 19.6887Z" fill="black"/>
<path fill-rule="evenodd" clip-rule="evenodd" d="M68.3551 28.7614C70.1255 28.5899 71.8796 28.6605 73.6086 29.0863C71.8576 28.978 70.1064 28.8695 68.3551 28.7614ZM68.7966 20.8288C69.5374 22.4713 70.5455 23.9588 71.4932 25.4816C71.6348 25.7092 71.9214 25.9013 71.7056 26.2443C71.4981 26.5738 71.1824 26.4613 70.9275 26.4148C69.538 26.1624 68.1522 26.3319 66.7607 26.3446C65.8816 26.3522 64.994 26.1938 64.0911 26.2293C62.7009 26.2843 61.305 26.2351 59.9128 26.1941C59.2073 26.1734 58.5227 26.4839 57.7896 26.1847C57.0705 25.8914 56.5895 26.2761 56.3285 27.3845C56.1951 27.9502 56.3096 28.5803 57.0221 28.7608C57.6079 28.9091 58.2155 29.0147 58.8181 29.0459C62.8062 29.2515 66.796 29.425 70.7842 29.626C71.6795 29.6711 72.5726 29.7766 73.4655 29.8649C75.0888 30.0256 75.5644 29.5954 75.7021 27.9627C75.809 26.6953 75.4188 25.655 74.5829 24.7083C72.974 22.8859 71.417 21.0176 70.1745 18.9153C69.9256 18.4939 69.7361 18.038 69.5033 17.6064C69.2342 17.1064 68.9337 17.0771 68.6169 17.5732C67.9143 18.6722 67.9277 18.9362 68.7966 20.8288Z" fill="black"/>
</svg>
