<svg width="10" height="12" viewBox="0 0 10 12" fill="none" xmlns="http://www.w3.org/2000/svg">
<path d="M8.79972 4.13792C8.79972 6.12913 7.11661 7.77584 4.99953 7.77584C2.88244 7.77584 1.19934 6.12914 1.19934 4.13792C1.19934 2.1467 2.88244 0.5 4.99953 0.5C7.11661 0.5 8.79972 2.14671 8.79972 4.13792Z" stroke="#8D949E"/>
<path d="M8.55204 12.0001C8.19202 11.3687 7.67425 10.8444 7.05078 10.4801C6.4273 10.1157 5.72012 9.92403 5.00034 9.92436C4.28036 9.92389 3.57295 10.1155 2.94926 10.4798C2.32556 10.8442 1.80757 11.3685 1.44739 12.0001C1.62458 11.1791 2.07356 10.4442 2.71983 9.91732C3.3661 9.39045 4.17078 9.1033 5.00034 9.10352C5.82969 9.10354 6.63411 9.39081 7.28013 9.91766C7.92615 10.4445 8.37494 11.1793 8.55204 12.0001Z" fill="#8D949E"/>
</svg>
