<svg width="126" height="125" viewBox="0 0 126 125" fill="none" xmlns="http://www.w3.org/2000/svg">
<path d="M78.7294 36.1258C78.7294 27.8768 72.3335 21.0984 64.2411 20.4776V3.72157L68.3475 7.73835C68.8256 8.20663 69.5923 8.1987 70.0602 7.71922C70.528 7.24115 70.5196 6.47436 70.041 6.00655L64.5602 0.644627C64.2071 0.298547 63.7565 0.0853942 63.2752 0.0247602C63.1959 0.00890202 63.1138 4.03475e-05 63.0299 4.03475e-05C63.0187 4.03475e-05 63.0079 0.00330525 62.9967 0.00330525C62.9818 0.00330525 62.9683 -0.000426068 62.9534 4.03475e-05C62.3489 0.00657017 61.7836 0.248174 61.361 0.680075L55.9991 6.1614C55.5313 6.63947 55.5397 7.40626 56.0182 7.87407C56.2538 8.10495 56.5593 8.21969 56.8652 8.21969C57.1791 8.21969 57.494 8.09795 57.7309 7.85542L61.8181 3.67726V20.478C53.7258 21.0993 47.3298 27.8777 47.3298 36.1263C47.3298 44.783 54.3727 51.8259 63.0294 51.8259C71.6861 51.8259 78.7294 44.7825 78.7294 36.1258ZM63.0299 49.4028C55.709 49.4028 49.7529 43.4467 49.7529 36.1258C49.7529 29.2131 55.0635 23.5205 61.8186 22.9062V36.1258C61.8186 36.7947 62.361 37.3371 63.0299 37.3371C63.6987 37.3371 64.2411 36.7947 64.2411 36.1258V22.9067C70.9963 23.5209 76.3069 29.2135 76.3069 36.1263C76.3069 43.4467 70.3507 49.4028 63.0299 49.4028Z" fill="black"/>
<path d="M78.7294 88.8738C78.7294 80.2171 71.6866 73.1742 63.0299 73.1742C54.3732 73.1742 47.3303 80.2171 47.3303 88.8738C47.3303 97.1228 53.7263 103.901 61.8186 104.522V121.323L57.7314 117.145C57.2636 116.666 56.4959 116.657 56.0187 117.126C55.5402 117.593 55.5318 118.36 55.9996 118.838L61.3615 124.32C61.8032 124.771 62.3904 124.999 62.9786 124.999C62.9856 124.999 62.9921 124.997 62.9991 124.997C63.0098 124.997 63.0196 125 63.0304 125C63.1213 125 63.2094 124.988 63.2948 124.969C63.7561 124.904 64.2029 124.705 64.5607 124.355L70.0415 118.993C70.5201 118.526 70.5285 117.759 70.0606 117.281C69.5928 116.802 68.8251 116.794 68.348 117.262L64.2416 121.278V104.522C72.3335 103.901 78.7294 97.1228 78.7294 88.8738ZM76.3069 88.8738C76.3069 95.7865 70.9963 101.479 64.2412 102.093V88.8738C64.2412 88.2049 63.6987 87.6625 63.0299 87.6625C62.361 87.6625 61.8186 88.2049 61.8186 88.8738V102.093C55.0635 101.479 49.7529 95.7865 49.7529 88.8738C49.7529 81.5524 55.7095 75.5968 63.0299 75.5968C70.3503 75.5968 76.3069 81.5524 76.3069 88.8738Z" fill="black"/>
<path d="M124.849 60.8314L119.368 55.4694C118.892 55.0021 118.124 55.01 117.656 55.4886C117.188 55.9666 117.196 56.7334 117.675 57.2012L121.853 61.2885H105.052C104.431 53.1961 97.6525 46.8002 89.4039 46.8002C80.7472 46.8002 73.7043 53.8431 73.7043 62.4997C73.7043 71.1564 80.7472 78.1993 89.4039 78.1993C97.6525 78.1993 104.431 71.8033 105.052 63.711H121.808L117.79 67.8178C117.323 68.2959 117.331 69.0627 117.81 69.5305C118.045 69.7614 118.351 69.8761 118.657 69.8761C118.971 69.8761 119.285 69.7544 119.522 69.5118L124.884 64.0314C125.227 63.6807 125.435 63.2362 125.501 62.7586C125.519 62.6751 125.53 62.5888 125.53 62.5002C125.53 62.4881 125.526 62.4769 125.526 62.4652C125.526 62.4512 125.53 62.4382 125.53 62.4246C125.523 61.8197 125.282 61.2544 124.849 60.8314ZM89.4039 63.711H102.624C102.009 70.4661 96.3162 75.7767 89.4039 75.7767C82.083 75.7767 76.1269 69.8206 76.1269 62.4997C76.1269 55.1789 82.0835 49.2227 89.4039 49.2227C96.3162 49.2227 102.009 54.5333 102.624 61.2885H89.4039C88.7351 61.2885 88.1926 61.8309 88.1926 62.4997C88.1926 63.1686 88.7351 63.711 89.4039 63.711Z" fill="black"/>
<path d="M6.64027 69.5115C6.87721 69.7545 7.19158 69.8757 7.50594 69.8757C7.81191 69.8757 8.11741 69.7605 8.35295 69.5301C8.83149 69.0623 8.83989 68.2955 8.37208 67.8174L4.35483 63.7106H21.1104C21.7312 71.803 28.5101 78.1989 36.7586 78.1989C45.4153 78.1989 52.4582 71.156 52.4582 62.4994C52.4582 53.8427 45.4153 46.7998 36.7586 46.7998C28.5101 46.7998 21.7312 53.1958 21.1104 61.2881H4.31006L8.48868 57.2009C8.96722 56.7331 8.97562 55.9663 8.5078 55.4882C8.03999 55.0097 7.27227 55.0013 6.79512 55.4691L1.31287 60.8315C0.880968 61.254 0.639831 61.8193 0.633301 62.4233C0.633301 62.4373 0.637032 62.4504 0.637032 62.4639C0.636565 62.476 0.633301 62.4872 0.633301 62.4989C0.633301 62.588 0.644028 62.6738 0.662219 62.7573C0.727983 63.2349 0.935538 63.6789 1.27835 64.0297L6.64027 69.5115ZM36.7586 61.2886H23.5395C24.1537 54.5335 29.8468 49.2228 36.7591 49.2228C44.08 49.2228 50.0361 55.179 50.0361 62.4998C50.0361 69.8212 44.0795 75.7768 36.7591 75.7768C29.8468 75.7768 24.1537 70.4662 23.5395 63.7111H36.7591C37.4279 63.7111 37.9704 63.1687 37.9704 62.4998C37.9704 61.831 37.4275 61.2886 36.7586 61.2886Z" fill="black"/>
<path d="M69.833 55.6961C69.3601 55.2232 68.5933 55.2232 68.1203 55.6961L63.0294 60.7866L57.9385 55.6961C57.4655 55.2232 56.6987 55.2232 56.2258 55.6961C55.7529 56.1691 55.7529 56.9359 56.2258 57.4088L61.3167 62.4998L56.2258 67.5902C55.7529 68.0632 55.7529 68.83 56.2258 69.3029C56.4623 69.5394 56.7724 69.6578 57.0821 69.6578C57.3918 69.6578 57.702 69.5394 57.9385 69.3029L63.0294 64.2124L68.1203 69.3029C68.3568 69.5394 68.667 69.6578 68.9767 69.6578C69.2864 69.6578 69.5965 69.5394 69.833 69.3029C70.306 68.83 70.306 68.0632 69.833 67.5902L64.7421 62.4998L69.833 57.4093C70.306 56.9363 70.306 56.1691 69.833 55.6961Z" fill="black"/>
</svg>
