<svg width="304" height="38" viewBox="0 0 304 38" fill="none" xmlns="http://www.w3.org/2000/svg">
<path d="M47.172 26.2453C54.5696 26.2453 60.5666 20.4746 60.5666 13.3561C60.5666 6.23761 54.5696 0.466919 47.172 0.466919C39.7743 0.466919 33.7773 6.23761 33.7773 13.3561C33.7773 20.4746 39.7743 26.2453 47.172 26.2453Z" fill="#FDD417"/>
<path d="M58.2377 37.8457C57.1163 35.8789 55.5034 34.246 53.5614 33.111C51.6193 31.976 49.4165 31.3791 47.1745 31.3801C44.9318 31.3786 42.7283 31.9754 40.7856 33.1104C38.8428 34.2453 37.2294 35.8785 36.1074 37.8457C36.6593 35.2885 38.0579 32.9993 40.0709 31.3582C42.084 29.717 44.5905 28.8226 47.1745 28.8232C49.7578 28.8233 52.2635 29.7181 54.2758 31.3592C56.2881 33.0003 57.686 35.289 58.2377 37.8457Z" fill="#FDD417"/>
<path d="M14.3859 37.9962C6.45336 37.9962 0 31.6355 0 23.8169C0 15.9983 6.45336 9.63855 14.3859 9.63855C22.3184 9.63855 28.7709 15.9992 28.7709 23.8169C28.7709 31.6347 22.3176 37.9962 14.3859 37.9962ZM14.3859 14.4832C11.8751 14.4859 9.46796 15.4701 7.69249 17.2199C5.91702 18.9697 4.91822 21.3422 4.91523 23.8169C4.91799 26.2918 5.91667 28.6645 7.69217 30.4145C9.46766 32.1645 11.875 33.1488 14.3859 33.1515C16.8967 33.1486 19.3038 32.1642 21.0791 30.4142C22.8544 28.6642 23.8529 26.2916 23.8557 23.8169C23.8527 21.3424 22.854 18.97 21.0788 17.2202C19.3035 15.4704 16.8965 14.4861 14.3859 14.4832Z" fill="black"/>
<path d="M4.91524 0.743286H0V24.5861H4.91524V0.743286Z" fill="black"/>
<path d="M199.487 37.9962C191.555 37.9962 185.102 31.6355 185.102 23.8169C185.102 15.9983 191.555 9.63855 199.487 9.63855C207.418 9.63855 213.872 15.9992 213.872 23.8169C213.872 31.6347 207.419 37.9962 199.487 37.9962ZM199.487 14.4832C196.976 14.4861 194.569 15.4704 192.794 17.2202C191.018 18.97 190.02 21.3424 190.017 23.8169C190.02 26.2916 191.018 28.6642 192.793 30.4142C194.569 32.1642 196.976 33.1486 199.487 33.1515C201.998 33.1488 204.405 32.1645 206.18 30.4145C207.956 28.6645 208.954 26.2918 208.957 23.8169C208.954 21.3422 207.955 18.9697 206.18 17.2199C204.405 15.4701 201.997 14.4859 199.487 14.4832Z" fill="black"/>
<path d="M190.017 0.743286H185.102V24.5861H190.017V0.743286Z" fill="black"/>
<path d="M240.937 9.662V13.153C238.32 10.8842 234.952 9.63451 231.466 9.63807C223.533 9.63807 217.08 15.9987 217.08 23.8173C217.08 31.6359 223.533 37.9965 231.466 37.9965C234.952 37.9999 238.319 36.7502 240.937 34.4816V37.6803H245.852V9.662H240.937ZM231.466 33.1511C228.955 33.1481 226.548 32.1638 224.773 30.414C222.998 28.6642 221.999 26.2919 221.996 23.8173C221.999 21.3426 222.997 18.97 224.773 17.22C226.548 15.4701 228.955 14.4856 231.466 14.4827C233.977 14.4854 236.384 15.4697 238.16 17.2197C239.935 18.9697 240.934 21.3424 240.937 23.8173C240.934 26.292 239.935 28.6645 238.159 30.4143C236.384 32.1641 233.977 33.1483 231.466 33.1511Z" fill="black"/>
<path d="M173.671 18.44L169.672 22.1147C169.777 22.677 169.83 23.2477 169.83 23.8196C169.828 26.2942 168.829 28.6667 167.054 30.4166C165.278 32.1664 162.871 33.1507 160.361 33.1534C159.086 33.1541 157.824 32.9003 156.651 32.4072C155.478 31.9142 154.419 31.1921 153.537 30.2845L167.386 17.5675C167.39 17.5713 167.394 17.5756 167.397 17.5803L170.993 14.2782C169.647 12.8168 168.006 11.6491 166.175 10.8504C164.344 10.0516 162.363 9.63946 160.361 9.64038C152.428 9.64038 145.975 16.001 145.975 23.8196C145.972 25.7747 146.383 27.7089 147.18 29.4992C147.234 29.6217 147.29 29.7427 147.348 29.8624C148.513 32.2938 150.354 34.3493 152.658 35.7896C154.961 37.2299 157.633 37.9957 160.361 37.998C168.293 37.998 174.746 31.6373 174.746 23.8196C174.749 21.9744 174.383 20.1466 173.671 18.44ZM150.891 23.8179C150.893 21.3431 151.892 18.9704 153.667 17.2204C155.442 15.4704 157.85 14.486 160.361 14.4833C161.288 14.4826 162.21 14.6168 163.098 14.8815L151.123 25.8766C150.968 25.2011 150.89 24.5105 150.891 23.8179Z" fill="black"/>
<path d="M147.348 29.8609L147.088 29.584L147.182 29.4985C147.234 29.6205 147.29 29.7412 147.348 29.8609Z" fill="black"/>
<path d="M78.379 37.6549C75.3517 37.6517 72.4493 36.465 70.3087 34.3552C68.1682 32.2453 66.9642 29.3847 66.9609 26.4009H71.8762C71.8782 28.1001 72.564 29.7292 73.7831 30.9308C75.0021 32.1323 76.6549 32.8082 78.379 32.8103C80.103 32.8082 81.7558 32.1323 82.9748 30.9308C84.1939 29.7292 84.8797 28.1001 84.8817 26.4009H89.797C89.797 32.6069 84.6745 37.6549 78.379 37.6549Z" fill="black"/>
<path d="M71.8762 10.5221H66.9609V28.0052H71.8762V10.5221Z" fill="black"/>
<path d="M89.7961 10.5221H84.8809V28.0052H89.7961V10.5221Z" fill="black"/>
<path d="M117.394 20.6364H112.478C112.476 18.9371 111.791 17.3079 110.572 16.1063C109.353 14.9047 107.7 14.2289 105.976 14.2271C104.251 14.2289 102.599 14.9047 101.379 16.1063C100.16 17.3079 99.4746 18.9371 99.4727 20.6364H94.5566C94.5566 14.4305 99.6791 9.38245 105.975 9.38245C109.002 9.38539 111.905 10.572 114.045 12.6819C116.186 14.7917 117.39 17.6525 117.394 20.6364Z" fill="black"/>
<path d="M99.4719 19.0317H94.5566V36.5148H99.4719V19.0317Z" fill="black"/>
<path d="M117.394 19.0317H112.479V36.5148H117.394V19.0317Z" fill="black"/>
<path d="M135.724 14.4836C137.253 14.4843 138.759 14.85 140.113 15.5495C141.467 16.249 142.629 17.2614 143.499 18.5001V11.8967C141.182 10.4217 138.482 9.63878 135.724 9.64235C127.791 9.64235 121.338 16.003 121.338 23.8207C121.338 31.6384 127.791 38 135.724 38C138.482 38.0035 141.182 37.2206 143.499 35.7456V29.1405C142.629 30.3792 141.467 31.3916 140.113 32.0911C138.759 32.7906 137.253 33.1563 135.724 33.157C133.213 33.1543 130.806 32.17 129.03 30.42C127.255 28.67 126.256 26.2973 126.253 23.8224C126.255 21.3468 127.253 18.973 129.029 17.2221C130.804 15.4712 133.212 14.4863 135.724 14.4836Z" fill="black"/>
<path d="M263.239 14.4835C264.768 14.4843 266.274 14.85 267.628 15.5495C268.982 16.249 270.144 17.2614 271.015 18.5001V11.8967C268.698 10.4217 265.998 9.63878 263.239 9.64235C255.307 9.64235 248.854 16.003 248.854 23.8207C248.854 31.6384 255.307 38 263.239 38C265.997 38.0022 268.697 37.2181 271.013 35.7421V29.1405C270.143 30.3792 268.981 31.3916 267.627 32.0911C266.272 32.7905 264.767 33.1563 263.238 33.157C260.727 33.1543 258.319 32.17 256.544 30.42C254.768 28.67 253.77 26.2973 253.767 23.8224C253.769 21.3465 254.767 18.9725 256.543 17.2215C258.319 15.4705 260.727 14.4858 263.239 14.4835Z" fill="black"/>
<path d="M304.001 0.0846037H303.828L303.92 0L304.001 0.0846037Z" fill="black"/>
<path d="M303.527 37.4784H294.837L283.963 26.7602L281.915 28.6548V37.4784H275.77V5.60074H269.684L275.77 0.743286H281.915V20.3508L293.374 9.75315H302.353L288.446 22.6146L303.527 37.4784Z" fill="black"/>
</svg>
