<svg width="75" height="43" viewBox="0 0 75 43" fill="none" xmlns="http://www.w3.org/2000/svg">
<path fill-rule="evenodd" clip-rule="evenodd" d="M41.8593 32.1968L46.7743 34.9347C44.9762 34.3099 43.3438 33.3809 41.8593 32.1968ZM29.884 29.2858C31.879 30.1147 33.8265 31.0038 35.889 31.6026C33.6541 31.4186 31.7351 30.4103 29.884 29.2858ZM36.0916 23.7358C36.2164 22.9136 36.7289 23.1041 37.2031 23.2547C38.807 23.763 39.4419 25.1691 40.0359 26.5194C40.469 27.5034 40.7952 28.5809 40.623 29.7048C40.5575 30.1333 40.3874 30.4544 39.8846 30.0574C38.5117 28.9733 37.3212 27.7349 36.5807 26.1258C36.2278 25.3592 36.0288 24.5496 36.0916 23.7358ZM36.0412 30.6308C34.6938 30.4758 33.4725 29.8952 32.2462 29.3581C26.9479 27.0369 22.7762 23.3218 19.1752 18.8667C16.7698 15.8906 14.6718 12.7144 12.6818 9.45784C12.5 9.16088 12.3281 8.85327 12.0094 8.67838C11.6513 8.4821 11.3777 8.46813 11.4728 9.00433C11.4958 9.1364 11.6497 9.28175 11.4009 9.31518C10.5428 9.43087 10.6656 10.0625 10.7209 10.6276C10.8244 11.6883 11.3717 12.6014 11.8154 13.531C13.0582 16.1356 14.4008 18.6957 16.0676 21.0575C17.6151 23.2499 19.463 25.1935 21.3642 27.0843C22.5744 28.2879 23.8221 29.4953 25.364 30.204C26.3884 30.6747 27.1465 31.4735 28.1439 31.945C30.056 32.8486 31.9702 33.7284 34.048 34.1921C35.7582 34.5735 37.4452 34.5014 39.0889 33.8913C39.6307 33.6899 40.0994 33.7472 40.5676 34.0373C41.8297 34.8188 43.1206 35.5621 44.4109 36.282C46.51 37.4538 48.7854 38.2871 51.078 39.0273C54.7348 40.2079 58.4603 41.0062 62.3339 40.8836C64.6105 40.8116 66.8504 40.5926 68.7824 39.1957C69.291 38.828 69.6947 38.396 69.7825 37.7389C69.8207 37.4558 69.767 37.2278 69.5108 37.0643C69.2077 36.8713 69.1408 37.0976 68.9555 37.2841C67.685 38.563 66.0112 38.4809 64.3974 38.5439C59.9501 38.7174 55.7383 37.6032 51.5933 36.1498C48.4215 35.0375 45.3886 33.6264 42.5244 31.8621C42.2969 31.722 41.9591 31.6748 42.2385 31.2478C43.2121 29.7601 43.3697 28.1001 43.0582 26.4076C42.5775 23.7952 41.4601 21.5567 38.9251 20.3525C37.563 19.7053 36.5323 20.0121 35.4916 21.0916C32.8396 23.8415 33.4593 27.378 35.5656 29.7825C35.7545 29.9976 35.9431 30.2126 36.1314 30.4273C36.1014 30.4954 36.0711 30.5631 36.0412 30.6308Z" fill="black"/>
<path fill-rule="evenodd" clip-rule="evenodd" d="M12.0536 4.65325C10.4671 3.84906 9.02412 2.84926 7.79269 1.56305C9.21291 2.593 10.6331 3.62326 12.0536 4.65325ZM7.42882 11.1134C7.68383 9.32967 7.63011 7.53356 7.64638 5.73999C7.64878 5.47192 7.50981 5.15621 7.87589 4.98229C8.22758 4.81535 8.43388 5.07954 8.62411 5.25545C9.6618 6.21333 10.9226 6.81303 12.1041 7.54822C12.8503 8.01296 13.5147 8.62245 14.296 9.07652C15.499 9.77521 16.6512 10.565 17.8044 11.3459C18.3889 11.7415 19.1333 11.8464 19.5918 12.4919C20.0417 13.125 20.654 13.0581 21.4684 12.2622C21.8843 11.8561 22.1253 11.2628 21.6206 10.7286C21.2056 10.2893 20.7493 9.87449 20.2572 9.52518C17.0007 7.21384 13.7255 4.92883 10.4663 2.62126C9.73474 2.10338 9.03726 1.53558 8.33088 0.982454C7.04655 -0.0233708 6.41448 0.0848556 5.42308 1.38934C4.6535 2.402 4.42528 3.48945 4.62353 4.7367C5.00485 7.13757 5.3178 9.5494 5.23989 11.9902C5.22415 12.4793 5.13971 12.9658 5.1049 13.4549C5.06409 14.0213 5.30212 14.2071 5.83538 13.9581C7.01766 13.407 7.14784 13.1768 7.42882 11.1134Z" fill="black"/>
</svg>
