<svg width="548" height="395" viewBox="0 0 548 395" fill="none" xmlns="http://www.w3.org/2000/svg">
<path d="M318.912 97.7809L254.879 90.4512C253.264 90.2665 251.806 91.4254 251.621 93.0398L247.589 128.267C247.404 129.882 248.563 131.34 250.177 131.525L314.21 138.855C315.825 139.039 317.283 137.88 317.468 136.266L321.501 101.039C321.685 99.4242 320.526 97.9657 318.912 97.7809Z" fill="#FDD417"/>
<path fill-rule="evenodd" clip-rule="evenodd" d="M255.45 87.0641L255.453 87.0646L315.157 93.6437H315.295L315.326 93.6489C316.753 93.8828 318.035 94.6563 318.907 95.8093C319.779 96.962 320.174 98.4059 320.01 99.8419L316.156 135.013C316.02 136.269 315.525 137.183 314.843 137.833C314.167 138.477 313.331 138.841 312.538 139.044C311.743 139.248 310.972 139.297 310.403 139.295C310.118 139.295 309.881 139.281 309.714 139.268C309.63 139.261 309.564 139.255 309.518 139.25C309.495 139.247 309.477 139.245 309.464 139.243L309.451 139.242L309.449 139.241L309.445 139.241L309.444 139.241L249.977 132.358C247.783 132.155 246.717 131.137 246.231 130.112C245.994 129.613 245.903 129.13 245.87 128.775C245.854 128.597 245.852 128.448 245.854 128.342C245.856 128.289 245.858 128.246 245.86 128.216C245.861 128.2 245.862 128.188 245.863 128.179L245.864 128.168L245.864 128.166L245.864 128.164L245.864 128.163L249.528 90.8978L249.528 90.8952C249.586 90.216 249.815 89.5625 250.192 88.9948C250.542 88.4681 250.5 88.5 251 88L251.582 87.6589L251.731 87.5939C252.9 87.0855 254.185 86.9025 255.45 87.0641ZM309.551 138.455L309.553 138.455L309.562 138.456C309.571 138.458 309.586 138.459 309.605 138.461C309.644 138.466 309.702 138.471 309.777 138.477C309.926 138.489 310.143 138.502 310.405 138.502C310.932 138.503 311.632 138.458 312.341 138.276C313.05 138.094 313.748 137.781 314.295 137.259C314.836 136.744 315.251 136.006 315.368 134.927L319.222 99.7546L319.222 99.7529C319.363 98.519 319.023 97.2782 318.274 96.2876C317.532 95.3054 316.442 94.6438 315.229 94.4368H315.114L255.352 87.8513C254.282 87.7138 253.195 87.8546 252.196 88.2589L252.187 88.2805L252.057 88.3484C251.571 88.6032 251.156 88.9766 250.852 89.4339C250.548 89.8913 250.364 90.4179 250.318 90.9652L250.317 90.9703L246.653 128.244L246.653 128.247L246.653 128.25C246.652 128.254 246.652 128.261 246.651 128.27C246.65 128.29 246.648 128.32 246.647 128.36C246.645 128.44 246.647 128.558 246.66 128.703C246.687 128.993 246.761 129.379 246.947 129.772C247.307 130.53 248.119 131.391 250.054 131.569L250.063 131.57L309.551 138.455Z" fill="#333333"/>
<path fill-rule="evenodd" clip-rule="evenodd" d="M280.077 111.328L251.649 88.4249L252.146 87.8074L280.599 110.729L280.61 110.74L280.61 110.741L280.612 110.742C280.615 110.745 280.621 110.75 280.629 110.757C280.646 110.772 280.673 110.795 280.71 110.824C280.784 110.882 280.898 110.965 281.052 111.059C281.359 111.247 281.823 111.477 282.435 111.63C283.651 111.934 285.492 111.95 287.916 110.676L287.925 110.672L318.362 95.6041L318.714 96.3148L288.281 111.381C285.695 112.738 283.655 112.753 282.243 112.399C281.541 112.224 281.003 111.959 280.638 111.736C280.455 111.624 280.316 111.523 280.22 111.447C280.171 111.409 280.134 111.378 280.108 111.355C280.095 111.344 280.085 111.334 280.077 111.328C280.077 111.328 280.077 111.328 280.077 111.328Z" fill="#333333"/>
<path fill-rule="evenodd" clip-rule="evenodd" d="M236.341 91.9908C236.413 91.5588 236.821 91.2668 237.253 91.3388L244.018 92.4649C244.45 92.5368 244.742 92.9454 244.67 93.3774C244.598 93.8095 244.19 94.1014 243.758 94.0295L236.993 92.9033C236.561 92.8314 236.269 92.4229 236.341 91.9908Z" fill="#333333"/>
<path fill-rule="evenodd" clip-rule="evenodd" d="M242.14 76.9727C242.482 76.6993 242.981 76.7552 243.255 77.0974L248.259 83.3625C248.532 83.7047 248.476 84.2038 248.134 84.4771C247.792 84.7505 247.293 84.6946 247.019 84.3524L242.015 78.0873C241.742 77.7451 241.798 77.246 242.14 76.9727Z" fill="#333333"/>
<path fill-rule="evenodd" clip-rule="evenodd" d="M258.036 74.547C258.474 74.547 258.829 74.9021 258.829 75.3401V82.3506C258.829 82.7886 258.474 83.1437 258.036 83.1437C257.598 83.1437 257.243 82.7886 257.243 82.3506V75.3401C257.243 74.9021 257.598 74.547 258.036 74.547Z" fill="#333333"/>
<path d="M184.738 340.688H85.9346V360.522H184.738V340.688Z" fill="#FDD417"/>
<path d="M355.647 327.401L305.989 354.27L297.22 338.051L297.366 337.806L316.907 327.621H317.273C318.006 327.401 320.449 327.279 323.746 326.986C330.405 326.578 336.978 325.272 343.287 323.102C347.049 321.612 351.299 321.417 353.961 324.445C354.711 325.302 355.283 326.298 355.647 327.377V327.401Z" fill="black"/>
<path d="M265.319 359.179C266.076 359.35 268.275 360.401 271.328 361.622C277.379 364.447 283.79 366.427 290.38 367.509C294.386 367.973 298.246 369.829 299.149 373.762C299.361 374.875 299.361 376.019 299.149 377.132C299.159 377.214 299.159 377.295 299.149 377.377H242.701V358.886H264.684H265.124L265.319 359.179Z" fill="black" stroke="black" stroke-width="2.6488" stroke-miterlimit="10"/>
<path d="M263.511 294.107L263.34 289.515C263.414 290.981 263.462 292.544 263.511 294.107Z" fill="black"/>
<path d="M198.196 185.582C199.026 184.98 199.72 184.21 200.233 183.322C200.747 182.434 201.068 181.448 201.176 180.429C201.201 180.044 201.144 179.658 201.008 179.296C200.872 178.935 200.661 178.607 200.388 178.335C200.115 178.062 199.787 177.85 199.426 177.714C199.065 177.578 198.679 177.521 198.294 177.546C198.177 177.835 198.021 178.106 197.83 178.352L198.05 173.931L198.538 164.991C198.58 164.736 198.569 164.474 198.508 164.223C198.446 163.972 198.334 163.735 198.179 163.528C198.024 163.32 197.829 163.146 197.605 163.016C197.382 162.885 197.134 162.801 196.877 162.769H196.291L197.806 152.387H209.09L209.359 149.163H195.021L192.994 162.817H186.154C186.067 161.628 185.64 160.488 184.923 159.534C184.207 158.58 183.232 157.852 182.113 157.436C180.995 157.02 179.781 156.934 178.615 157.188C177.45 157.442 176.382 158.026 175.538 158.869C174.695 159.713 174.111 160.781 173.857 161.947C173.603 163.113 173.689 164.327 174.104 165.445C174.52 166.563 175.248 167.538 176.202 168.255C177.157 168.971 178.296 169.398 179.486 169.486L179.681 173.247L179.877 176.985H179.51C177.849 177.151 176.299 177.894 175.129 179.086C173.96 180.278 173.245 181.842 173.111 183.506L173.355 195.866L172.72 196.086C162.543 199.628 152.072 202.26 141.43 203.951C133.028 205.099 127.019 204.659 124.332 202.388C113.316 193.228 132.637 137.585 141.748 128.621C147.024 123.394 157.82 121.147 171.059 118.582C171.512 116.886 172.595 115.427 174.088 114.503H174.234C182.339 112.747 190.715 112.656 198.856 114.234L199.76 114.552C200.637 114.846 201.412 115.383 201.996 116.101C202.58 116.819 202.948 117.687 203.057 118.606C203.057 118.606 222.818 120.805 226.335 124.908C235.324 135.436 244.484 146.159 251.372 153.535C251.86 154.048 264.757 141.982 269.252 130.184H269.398C269.398 130.184 274.284 137.512 282.613 136.144C281.953 137.463 259.872 181.503 249.393 177.668C240.527 174.395 230.903 167.165 220.668 158.567C216.687 155.074 232.662 226.594 232.93 228.059H222.525L186.985 228.255H181.636L138.963 228.475C139.135 220.814 139.837 213.175 141.064 205.612C151.814 203.019 162.415 199.838 172.818 196.086L173.453 196.281C176.016 197.42 178.683 198.311 181.416 198.944L181.709 203.829C181.688 204.308 181.85 204.777 182.164 205.14C182.477 205.504 182.917 205.733 183.394 205.783H195.216C195.694 205.733 196.134 205.504 196.447 205.14C196.76 204.777 196.923 204.308 196.902 203.829L197.195 198.406C199.711 197.429 201.176 195.964 201.176 194.84C201.204 194.491 201.151 194.139 201.022 193.813C200.893 193.488 200.691 193.195 200.432 192.96C200.173 192.724 199.863 192.551 199.526 192.453C199.189 192.356 198.835 192.337 198.489 192.397H198.367H198.563C199.277 191.97 199.885 191.385 200.338 190.686C200.791 189.987 201.078 189.194 201.176 188.367C201.206 188.001 201.153 187.634 201.02 187.291C200.888 186.949 200.681 186.641 200.413 186.39C200.146 186.139 199.825 185.951 199.475 185.841C199.125 185.731 198.755 185.701 198.392 185.753L198.196 185.582Z" fill="black"/>
<path d="M264.929 340.688H299.052" stroke="black" stroke-width="2.6488" stroke-miterlimit="10"/>
<path d="M340.869 340.688H355.671V360.522H85.9346V340.688H238.915" stroke="black" stroke-width="2.6488" stroke-miterlimit="10"/>
<path d="M301.127 285.387H371.645V393.228H69.8613V285.387H225.773" stroke="black" stroke-width="2.6488" stroke-miterlimit="10"/>
<path d="M108.284 299.848C110.456 299.848 112.217 298.087 112.217 295.915C112.217 293.743 110.456 291.983 108.284 291.983C106.112 291.983 104.352 293.743 104.352 295.915C104.352 298.087 106.112 299.848 108.284 299.848Z" fill="#25DF43"/>
<path d="M94.3857 299.848C96.5576 299.848 98.3183 298.087 98.3183 295.915C98.3183 293.743 96.5576 291.983 94.3857 291.983C92.2138 291.983 90.4531 293.743 90.4531 295.915C90.4531 298.087 92.2138 299.848 94.3857 299.848Z" fill="#FDD417"/>
<path d="M80.4868 299.848C82.6587 299.848 84.4194 298.087 84.4194 295.915C84.4194 293.743 82.6587 291.983 80.4868 291.983C78.3149 291.983 76.5542 293.743 76.5542 295.915C76.5542 298.087 78.3149 299.848 80.4868 299.848Z" fill="#EA2F2F"/>
<path d="M193.36 162.769H180.927C180.669 162.802 180.421 162.886 180.196 163.016C179.971 163.146 179.775 163.32 179.618 163.527C179.461 163.734 179.347 163.97 179.282 164.222C179.218 164.473 179.204 164.735 179.242 164.992L179.486 169.438L179.681 173.199L179.877 176.936V179.135V179.33" stroke="black" stroke-width="2.6488" stroke-miterlimit="10"/>
<path d="M197.781 178.353L198.001 173.932L198.49 164.992C198.531 164.736 198.521 164.475 198.459 164.224C198.397 163.972 198.285 163.736 198.131 163.528C197.976 163.321 197.78 163.147 197.557 163.016C197.333 162.886 197.085 162.802 196.829 162.769H195.852" stroke="black" stroke-width="2.6488" stroke-miterlimit="10"/>
<path d="M181.367 198.944L181.66 203.829C181.639 204.309 181.801 204.778 182.115 205.141C182.428 205.504 182.868 205.734 183.345 205.783H195.167C195.645 205.734 196.085 205.504 196.398 205.141C196.711 204.778 196.874 204.309 196.853 203.829L197.146 198.407V198.236" stroke="black" stroke-width="2.6488" stroke-miterlimit="10"/>
<path d="M179.925 178.939V179.134C182.026 184.606 194.776 181.968 197.707 178.353C197.898 178.106 198.054 177.835 198.172 177.547C198.172 177.547 198.172 177.547 198.172 177.547" stroke="black" stroke-width="2.6488" stroke-miterlimit="10"/>
<path d="M198.221 177.546C198.612 177.51 199.006 177.559 199.377 177.69C199.747 177.821 200.084 178.031 200.365 178.305C200.646 178.579 200.864 178.911 201.004 179.277C201.144 179.644 201.203 180.037 201.177 180.428C201.074 181.444 200.761 182.427 200.256 183.315C199.751 184.203 199.067 184.975 198.246 185.582C196.635 186.821 194.774 187.695 192.791 188.142C190.809 188.589 188.752 188.599 186.766 188.171" stroke="black" stroke-width="2.6488" stroke-miterlimit="10" stroke-linecap="round"/>
<path d="M198.343 185.754C198.71 185.693 199.086 185.717 199.442 185.823C199.798 185.93 200.125 186.116 200.398 186.368C200.672 186.62 200.884 186.931 201.019 187.278C201.153 187.624 201.207 187.997 201.176 188.368C201.067 189.203 200.765 190.002 200.295 190.702C199.824 191.401 199.198 191.982 198.465 192.398H198.27C194.873 194.404 190.868 195.123 186.985 194.425" stroke="black" stroke-width="2.6488" stroke-miterlimit="10" stroke-linecap="round"/>
<path d="M198.367 192.52H198.489C198.824 192.462 199.167 192.479 199.494 192.569C199.822 192.66 200.125 192.822 200.382 193.044C200.639 193.266 200.843 193.542 200.981 193.853C201.118 194.163 201.185 194.501 201.176 194.84C201.176 196.037 199.759 197.502 197.195 198.577C192.12 200.392 186.607 200.588 181.416 199.139C178.683 198.507 176.016 197.615 173.453 196.477" stroke="black" stroke-width="2.6488" stroke-miterlimit="10" stroke-linecap="round"/>
<path d="M179.853 173.199C184.738 171.269 186.032 175.642 190.869 176.765C191.888 176.979 192.936 177.029 193.971 176.912H194.313C195.102 176.724 195.84 176.364 196.473 175.857C197.107 175.35 197.62 174.709 197.977 173.981" stroke="black" stroke-width="2.6488" stroke-miterlimit="10" stroke-linecap="round"/>
<path d="M194.313 176.667L196.34 162.768L197.854 152.387L209.139 152.338L209.408 149.114H195.021L192.994 162.768L190.966 176.374" stroke="black" stroke-width="2.6488" stroke-linecap="round" stroke-linejoin="round"/>
<path d="M179.95 169.462H179.486C178.296 169.375 177.156 168.948 176.202 168.231C175.248 167.515 174.52 166.54 174.104 165.421C173.688 164.303 173.602 163.089 173.856 161.923C174.111 160.758 174.694 159.69 175.538 158.846C176.381 158.002 177.449 157.419 178.615 157.165C179.781 156.911 180.995 156.996 182.113 157.412C183.231 157.828 184.207 158.556 184.923 159.51C185.639 160.464 186.066 161.604 186.154 162.794C186.154 162.941 186.154 163.087 186.154 163.234" stroke="black" stroke-width="2.6488" stroke-linejoin="round"/>
<path d="M186.716 228.353H181.195" stroke="black" stroke-width="2.6488" stroke-miterlimit="10"/>
<path d="M176.53 62.0603C176.848 60.0085 177.19 57.5903 177.703 55.1477C178.311 51.1195 179.933 47.3119 182.417 44.0827C188.084 37.9274 194.068 40.3455 199.076 45.6948C200.524 47.2143 201.847 48.848 203.033 50.5801C206.597 55.876 209.316 61.6937 211.093 67.8248C213.12 76.3007 200.883 95.182 197.463 96.4766C197.063 96.6387 196.645 96.7535 196.218 96.8186C191.161 97.6979 184.835 93.1058 182.734 88.6358" stroke="black" stroke-width="2.6488" stroke-miterlimit="10" stroke-linecap="round"/>
<path d="M174.015 114.038C174.259 99.8224 173.648 86.901 175.065 72.7339" stroke="black" stroke-width="2.6488" stroke-miterlimit="10"/>
<path d="M196.071 96.3299L196.218 96.9161C197.366 102.534 197.61 109.398 199.76 114.478V114.747" stroke="black" stroke-width="2.6488" stroke-miterlimit="10"/>
<path d="M178.484 64.6489C177.891 63.7413 177.176 62.9194 176.359 62.2063C170.741 57.3211 166.857 68.1174 169.031 71.2195C169.676 71.9464 170.516 72.4732 171.451 72.7373C172.386 73.0013 173.378 72.9917 174.307 72.7095H174.942C175.412 72.6025 175.864 72.4298 176.286 72.1966" stroke="black" stroke-width="2.6488" stroke-miterlimit="10" stroke-linecap="round"/>
<path d="M202.984 50.7264C204.327 50.7264 223.38 47.0625 220.742 41.7132C219.227 38.6355 209.139 41.7132 199.027 45.7435C189.452 49.554 179.852 54.1949 177.654 55.1964L177.288 55.3674" stroke="black" stroke-width="2.6488" stroke-miterlimit="10"/>
<path d="M200.395 69.3143C202.288 68.4976 204.391 68.301 206.403 68.7525" stroke="black" stroke-width="2.6488" stroke-miterlimit="10" stroke-linecap="round"/>
<path d="M194.361 69.4856C193.462 68.8762 192.386 68.5838 191.302 68.6546C190.218 68.7254 189.189 69.1553 188.377 69.8764" stroke="black" stroke-width="2.6488" stroke-miterlimit="10" stroke-linecap="round"/>
<path d="M175.285 66.5546C174.211 67.4818 172.845 68.0007 171.426 68.0202" stroke="black" stroke-width="2.6488" stroke-miterlimit="10" stroke-linecap="round"/>
<path d="M200.321 69.3395C199.1 72.0264 200.321 76.3254 200.858 79.11C201.127 81.0396 201.518 84.7524 197.927 83.4578" stroke="black" stroke-width="2.6488" stroke-miterlimit="10" stroke-linecap="round"/>
<path d="M263.096 281.553C262.876 276.229 262.607 272.149 262.241 268.901C259.383 243.546 238.279 228.598 186.862 228.353" stroke="black" stroke-width="2.6488" stroke-miterlimit="10"/>
<path d="M265.319 359.813V358.983C264.806 343.155 264.465 329.989 264.171 318.973C264.171 318.436 264.171 317.874 264.171 317.336C263.952 308.152 263.756 300.507 263.585 294.107C263.585 292.495 263.585 290.981 263.439 289.515C263.439 286.608 263.268 283.97 263.17 281.577" stroke="black" stroke-width="2.6488" stroke-miterlimit="10"/>
<path d="M227.533 293.962C227.533 293.815 227.533 293.62 227.386 293.424L226.947 291.837C226.287 289.565 225.432 286.512 225.115 285.413H174.308C158.725 284.9 149.882 276.326 144.777 264.895C139.892 253.879 138.866 240.2 139.086 228.598C139.246 220.937 139.947 213.297 141.187 205.735C141.358 204.733 141.48 204.123 141.504 203.927" stroke="black" stroke-width="2.6488" stroke-miterlimit="10"/>
<path d="M264.855 359.008H242.872C240.282 343.888 237.278 330.478 234.42 319.022C231.978 308.91 229.535 300.312 227.508 293.473L227.068 291.885" stroke="black" stroke-width="2.6488" stroke-miterlimit="10"/>
<path d="M312.046 314.944L300.81 285.437C296.584 274.396 293.018 265.066 292.334 263.454C281.391 236.243 280.341 228.28 225.627 228.256H222.402L186.862 228.451H181.635L138.963 228.671" stroke="black" stroke-width="2.6488" stroke-miterlimit="10"/>
<path d="M263.072 281.529C264.684 284.875 268.202 290.957 272.525 298.114C276.458 304.611 281.025 311.988 285.398 318.925C289.77 325.862 294.386 332.897 297.611 337.758L316.907 327.474L313.536 318.95C313.072 317.728 312.535 316.336 311.998 314.895" stroke="black" stroke-width="2.6488" stroke-miterlimit="10"/>
<path d="M186.862 85.2654C187.109 85.9689 187.514 86.6067 188.045 87.1298C188.576 87.6528 189.22 88.0474 189.927 88.2832C190.635 88.5189 191.387 88.5897 192.125 88.49C192.864 88.3903 193.571 88.1228 194.19 87.708" stroke="black" stroke-width="2.6488" stroke-miterlimit="10" stroke-linecap="round"/>
<path d="M283.565 129.745L284.078 128.987C287.546 123.394 284.518 117.898 284.737 116.286C285.299 112.451 289.11 113.648 290.087 119.07C290.586 121.62 290.693 124.231 290.404 126.814C290.341 129.003 289.557 131.111 288.175 132.811C286.793 134.511 284.89 135.708 282.759 136.218C282.099 137.537 260.018 181.577 249.539 177.742C240.673 174.469 231.049 167.239 220.814 158.641C216.711 155.197 233.027 226.838 233.296 228.401H225.651" stroke="black" stroke-width="2.6488" stroke-miterlimit="10" stroke-linecap="round"/>
<path d="M278.289 126.936C278.128 127.24 277.949 127.534 277.752 127.816" stroke="black" stroke-width="2.6488" stroke-miterlimit="10" stroke-linecap="round"/>
<path d="M283.492 129.672C283.698 129.46 283.886 129.231 284.054 128.988C286.74 124.762 284.957 113.355 281.367 112.818C281.026 112.773 280.679 112.824 280.365 112.964C276.164 114.625 282.564 119.608 278.313 126.912" stroke="black" stroke-width="2.6488" stroke-miterlimit="10" stroke-linecap="round"/>
<path d="M277.752 127.839C277.949 127.549 278.129 127.247 278.29 126.935V126.935C279.361 125.064 279.692 122.859 279.218 120.756C278.998 119.437 277.679 115.577 276.238 114.991C275.89 114.837 275.505 114.789 275.13 114.853C274.755 114.917 274.407 115.09 274.131 115.351C273.854 115.612 273.661 115.949 273.575 116.319C273.489 116.69 273.515 117.078 273.649 117.434C275.7 123.1 274.626 125.03 273.062 126.129C271.499 127.228 270.156 127.399 269.667 128.816C269.542 129.239 269.396 129.655 269.227 130.062C264.733 141.86 251.836 153.926 251.348 153.413C244.459 146.085 235.3 135.313 226.311 124.786C222.794 120.682 203.033 118.484 203.033 118.484C202.924 117.565 202.556 116.696 201.972 115.978C201.388 115.261 200.613 114.723 199.735 114.429L198.856 114.234C190.709 112.644 182.324 112.727 174.21 114.478V114.478H174.064C172.571 115.402 171.488 116.861 171.035 118.557C157.845 121 147.048 123.442 141.724 128.596C132.588 137.561 113.243 193.203 124.283 202.363C127.019 204.635 133.028 205.074 141.382 203.926C152.04 202.239 162.528 199.607 172.72 196.061L173.355 195.841L173.111 183.482C173.246 181.817 173.96 180.253 175.129 179.061C176.299 177.87 177.849 177.126 179.511 176.96" stroke="black" stroke-width="2.6488" stroke-miterlimit="10" stroke-linecap="round"/>
<path d="M269.398 130.16C269.398 130.16 274.283 137.488 282.612 136.12" stroke="black" stroke-width="2.6488" stroke-miterlimit="10" stroke-linecap="round"/>
<path d="M138.719 206.125C139.476 206.125 140.258 205.905 141.162 205.734C151.912 203.141 162.513 199.961 172.916 196.208L175.871 195.206" stroke="white" stroke-width="2.6488" stroke-linejoin="round"/>
<path d="M204.864 72.9056C205.123 72.9056 205.372 73.0086 205.555 73.1918C205.738 73.375 205.841 73.6235 205.841 73.8827C205.841 74.1418 205.738 74.3903 205.555 74.5736C205.372 74.7568 205.123 74.8597 204.864 74.8597C204.605 74.8597 204.357 74.7568 204.173 74.5736C203.99 74.3903 203.887 74.1418 203.887 73.8827C203.887 73.6235 203.99 73.375 204.173 73.1918C204.357 73.0086 204.605 72.9056 204.864 72.9056Z" fill="black"/>
<path d="M192.994 72.9056C193.187 72.9056 193.376 72.9629 193.536 73.0703C193.697 73.1777 193.822 73.3302 193.896 73.5088C193.97 73.6873 193.99 73.8838 193.952 74.0733C193.914 74.2628 193.821 74.4369 193.685 74.5736C193.548 74.7102 193.374 74.8032 193.184 74.8409C192.995 74.8786 192.798 74.8593 192.62 74.7853C192.441 74.7114 192.289 74.5862 192.181 74.4255C192.074 74.2648 192.017 74.0759 192.017 73.8827C192.017 73.6235 192.12 73.375 192.303 73.1918C192.486 73.0086 192.735 72.9056 192.994 72.9056Z" fill="black"/>
<path d="M242.726 377.815V382.09H299.272V377.449H299.174H242.75H242.726V377.815Z" stroke="black" stroke-width="2.6488" stroke-linecap="round" stroke-linejoin="round"/>
<path d="M306.403 354.05L336.154 338.026" stroke="white" stroke-width="2.6488" stroke-miterlimit="10"/>
<path d="M306.159 354.562L308.187 358.3L357.918 331.455L355.72 327.352L355.646 327.401L305.988 354.22H305.964L306.159 354.562Z" stroke="black" stroke-width="2.6488" stroke-linecap="round" stroke-linejoin="round"/>
<path d="M158.65 246.135C158.919 255.905 152.739 261.988 144.703 264.87" stroke="black" stroke-width="2.6488" stroke-miterlimit="10" stroke-linecap="round"/>
<path d="M317.176 327.425C317.908 327.205 320.351 327.083 323.648 326.79C330.307 326.383 336.881 325.076 343.189 322.906C346.951 321.416 351.201 321.221 353.864 324.25C354.613 325.106 355.185 326.103 355.549 327.181V327.401L306.697 353.903L297.684 338.099L317.176 327.425Z" stroke="black" stroke-width="2.6488" stroke-linecap="round" stroke-linejoin="round"/>
<path d="M175.578 181.821C169.985 182.823 149.076 185.949 142.701 186.707C144.379 175.686 147.551 164.946 152.129 154.782" stroke="white" stroke-width="2.6488" stroke-miterlimit="10" stroke-linecap="round"/>
<path d="M308.871 306.077H371.133" stroke="black" stroke-width="2.6488" stroke-miterlimit="10"/>
<path d="M263.927 306.077H277.142" stroke="black" stroke-width="2.6488" stroke-miterlimit="10"/>
<path d="M69.7886 306.077H230.903" stroke="black" stroke-width="2.6488" stroke-miterlimit="10"/>
<path fill-rule="evenodd" clip-rule="evenodd" d="M110.736 0.00226695L110.729 0.00202341C110.714 0.00152708 110.692 0.000976769 110.666 0.000575497C110.612 -0.000226622 110.538 -0.000435554 110.445 0.00158712C110.259 0.00562612 109.999 0.0185986 109.688 0.0539435C109.071 0.124139 108.233 0.285082 107.385 0.65529C106.533 1.0268 105.65 1.61846 104.983 2.55746C104.311 3.50247 103.897 4.74499 103.901 6.34775V34.7022C103.9 34.7168 103.899 34.7353 103.898 34.7575C103.895 34.8107 103.893 34.8851 103.891 34.9779C103.889 35.1632 103.893 35.4233 103.917 35.7341C103.965 36.3513 104.097 37.1916 104.438 38.0496C104.78 38.9107 105.342 39.8099 106.26 40.5046C107.183 41.2038 108.413 41.655 110.017 41.7007L110.028 41.701H153.719C155.278 41.7074 156.782 42.2718 157.96 43.2919L157.964 43.2951L161.13 46.0017C161.616 46.4358 162.168 46.7897 162.766 47.0499C162.966 47.1396 163.173 47.2137 163.385 47.2717L163.388 47.2726C163.851 47.3976 164.338 47.4136 164.808 47.3192C165.279 47.2249 165.721 47.0229 166.101 46.7289C166.48 46.435 166.787 46.0572 166.996 45.6251C167.204 45.1943 167.31 44.7213 167.306 44.2427V7.13975H166.513C167.306 7.13974 167.306 7.13935 167.306 7.13893V7.13797L167.306 7.1356L167.306 7.12912L167.306 7.1093C167.305 7.09308 167.305 7.07092 167.304 7.04319C167.302 6.98777 167.299 6.90999 167.292 6.81302C167.279 6.61935 167.253 6.34759 167.201 6.02345C167.098 5.37905 166.891 4.50711 166.469 3.62508C166.045 2.74074 165.396 1.82725 164.403 1.1358C163.403 0.439685 162.103 0.00226695 160.438 0.00226695H110.736ZM165.72 7.13975L165.72 7.1338C165.72 7.126 165.719 7.11254 165.719 7.0938C165.718 7.05629 165.715 6.99776 165.71 6.92125C165.699 6.76796 165.678 6.54406 165.635 6.27341C165.548 5.72823 165.375 5.01406 165.038 4.30999C164.702 3.60822 164.212 2.9356 163.497 2.43747C162.788 1.94401 161.811 1.58837 160.438 1.58837H110.703L110.686 1.58758C110.686 1.58759 110.686 1.58759 110.686 1.58758L110.679 1.58734C110.672 1.58711 110.659 1.58677 110.642 1.5865C110.607 1.58597 110.551 1.58575 110.479 1.58732C110.334 1.59047 110.123 1.60079 109.867 1.62988C109.352 1.68856 108.679 1.82104 108.019 2.10907C107.362 2.39579 106.737 2.82718 106.276 3.47627C105.819 4.11913 105.484 5.0294 105.487 6.34454L105.487 6.34669L105.487 34.763L105.485 34.7939L105.485 34.7951L105.484 34.8007C105.484 34.8078 105.483 34.8203 105.482 34.8378C105.48 34.8728 105.478 34.9276 105.477 34.9995C105.475 35.1437 105.478 35.3545 105.498 35.6099C105.539 36.125 105.647 36.7979 105.912 37.4636C106.175 38.1261 106.585 38.761 107.217 39.2402C107.843 39.7137 108.739 40.0757 110.051 40.1149H153.724C155.661 40.1224 157.532 40.8235 158.996 42.0911C158.997 42.0916 158.998 42.0922 158.998 42.0928L162.174 44.8077L162.18 44.8137C162.543 45.1386 162.956 45.4031 163.403 45.5972L163.412 45.6011C163.538 45.6579 163.669 45.705 163.803 45.7418C164.029 45.8025 164.267 45.8101 164.497 45.7641C164.727 45.7178 164.944 45.6189 165.13 45.4749C165.316 45.331 165.466 45.1459 165.568 44.9343C165.67 44.7226 165.722 44.4902 165.72 44.2551L165.72 44.2468V7.13975Z" fill="#333333"/>
<circle cx="135.211" cy="20.249" r="11.8958" fill="#FDD417"/>
<path d="M134.725 24.2326C134.184 24.2326 133.675 24.0217 133.292 23.6382L131.89 22.2363C131.531 21.8768 131.531 21.2944 131.89 20.935C132.25 20.5755 132.832 20.5755 133.191 20.935L134.594 22.3375C134.683 22.4268 134.766 22.428 134.856 22.3375L139.966 17.2282C140.326 16.8688 140.908 16.8688 141.268 17.2282C141.627 17.5877 141.627 18.1701 141.268 18.5295L136.158 23.6388C135.775 24.0217 135.266 24.2326 134.725 24.2326Z" fill="black"/>
<path d="M130.815 20.78C131.324 20.78 131.736 20.368 131.736 19.8598C131.736 19.3515 131.324 18.9395 130.815 18.9395C130.307 18.9395 129.895 19.3515 129.895 19.8598C129.895 20.368 130.307 20.78 130.815 20.78Z" fill="black"/>
<line y1="393.148" x2="548" y2="393.148" stroke="black" stroke-width="2"/>
<path fill-rule="evenodd" clip-rule="evenodd" d="M332.686 106.105L332.487 105.762C332.298 105.872 332.233 106.114 332.343 106.304C332.453 106.493 332.695 106.558 332.885 106.448L332.887 106.447L332.896 106.442L332.933 106.421C332.967 106.402 333.017 106.374 333.084 106.339C333.218 106.267 333.415 106.164 333.669 106.04C334.177 105.793 334.907 105.464 335.793 105.137C337.57 104.482 339.955 103.846 342.425 103.892C344.82 103.946 347.122 104.834 348.934 106.402C350.745 107.969 351.954 110.119 352.351 112.482C352.592 113.998 352.465 115.547 351.985 116.999C350.087 115.859 347.89 115.271 345.645 115.328C344.778 115.304 343.915 115.46 343.111 115.787C342.303 116.115 341.573 116.607 340.966 117.233L340.961 117.239L340.955 117.245C339.553 118.818 339.602 120.796 340.513 122.247C341.422 123.696 343.196 124.634 345.235 124.161C347.398 123.661 349.213 122.079 350.466 120.67C351.098 119.96 351.599 119.282 351.942 118.78C352.081 118.576 352.195 118.401 352.281 118.265L352.338 118.293L352.373 118.206C352.697 118.442 353.009 118.696 353.308 118.968L353.309 118.969C355.584 121.027 357.339 123.594 358.431 126.461C359.311 128.771 359.806 131.209 359.896 133.678L359.896 133.682L360.285 141.985C360.295 142.204 360.481 142.373 360.7 142.363C360.918 142.353 361.087 142.167 361.077 141.948L360.689 133.649C360.689 133.648 360.689 133.648 360.689 133.647C360.595 131.091 360.082 128.569 359.172 126.179C358.036 123.195 356.209 120.523 353.842 118.381C353.47 118.043 353.079 117.73 352.671 117.445C353.246 115.816 353.406 114.066 353.134 112.355L353.134 112.352C352.706 109.807 351.404 107.491 349.452 105.802C347.501 104.113 345.022 103.158 342.442 103.099L342.44 103.099C339.835 103.051 337.346 103.719 335.519 104.393C334.603 104.73 333.849 105.071 333.322 105.328C333.058 105.456 332.851 105.564 332.709 105.64C332.639 105.678 332.584 105.708 332.547 105.728L332.504 105.753L332.492 105.759L332.489 105.761L332.487 105.762C332.487 105.762 332.487 105.762 332.686 106.105ZM351.674 117.739C349.88 116.635 347.79 116.065 345.655 116.121L345.644 116.121L345.633 116.121C344.872 116.099 344.115 116.235 343.409 116.522C342.706 116.807 342.07 117.235 341.542 117.779C340.404 119.061 340.443 120.644 341.185 121.826C341.929 123.012 343.374 123.779 345.055 123.388C346.976 122.944 348.655 121.512 349.874 120.143C350.478 119.464 350.958 118.813 351.287 118.332C351.451 118.092 351.578 117.895 351.662 117.758C351.666 117.752 351.67 117.745 351.674 117.739Z" fill="#FFC672"/>
<path d="M353.512 260.793L324.661 171.411C324.661 171.411 323.027 167.323 329.423 165.291L404.109 141.585C404.109 141.585 408.559 139.624 410.395 144.1L433.73 218.257L421.732 243.234L359.553 262.338C359.553 262.338 355.716 264.55 353.512 260.793Z" fill="black"/>
<path fill-rule="evenodd" clip-rule="evenodd" d="M413.687 152.322C413.752 152.531 413.636 152.754 413.428 152.819L327.029 180.02C326.82 180.086 326.597 179.97 326.532 179.761C326.466 179.552 326.582 179.329 326.791 179.263L413.189 152.063C413.398 151.997 413.621 152.113 413.687 152.322Z" fill="white"/>
<path fill-rule="evenodd" clip-rule="evenodd" d="M328.081 166.975C328.201 167.157 328.151 167.402 327.97 167.523C327.969 167.523 327.968 167.524 327.967 167.524L327.75 167.193L327.532 166.861C327.715 166.741 327.961 166.792 328.081 166.975ZM354.754 259.416L326.364 172.254L326.362 172.246C325.83 170.351 326.085 169.014 326.509 168.136C326.719 167.701 326.965 167.388 327.164 167.182C327.263 167.079 327.35 167.002 327.415 166.949C327.447 166.923 327.474 166.902 327.494 166.888C327.504 166.881 327.512 166.875 327.519 166.87L327.527 166.865L327.53 166.863L327.531 166.862L327.532 166.861C327.532 166.861 327.532 166.861 327.75 167.193M354.754 259.416L354.757 259.432C354.763 259.458 354.771 259.495 354.782 259.54C354.803 259.632 354.837 259.761 354.884 259.915C354.976 260.22 355.125 260.631 355.345 261.041C355.775 261.839 356.559 262.764 357.843 262.663C358.061 262.646 358.224 262.455 358.207 262.237C358.19 262.018 357.999 261.855 357.781 261.872C356.984 261.935 356.431 261.384 356.044 260.665C355.856 260.316 355.726 259.957 355.642 259.684C355.601 259.548 355.572 259.434 355.553 259.356C355.544 259.317 355.537 259.287 355.533 259.267L355.528 259.245L355.527 259.241L355.523 259.216L327.123 172.024C326.642 170.303 326.89 169.17 327.223 168.481C327.391 168.132 327.587 167.886 327.736 167.731C327.81 167.653 327.873 167.598 327.915 167.564C327.936 167.547 327.952 167.536 327.961 167.529L327.97 167.523" fill="white"/>
<path d="M420.771 241.832L432.42 219.919L419.534 223.151C419.534 223.151 414.472 223.709 416.32 228.815L420.771 241.832Z" fill="white"/>
<path d="M346.677 194.069L345.469 188.351L380.43 177.726L382.581 183.075L346.677 194.069Z" fill="white"/>
<path fill-rule="evenodd" clip-rule="evenodd" d="M408.397 185.428C408.464 185.636 408.35 185.86 408.142 185.927L349.041 205.062C348.832 205.129 348.609 205.015 348.541 204.806C348.474 204.598 348.588 204.374 348.797 204.307L407.897 185.173C408.106 185.105 408.329 185.219 408.397 185.428Z" fill="white"/>
<path fill-rule="evenodd" clip-rule="evenodd" d="M411.032 193.068C411.098 193.277 410.983 193.5 410.774 193.566L351.278 212.444C351.07 212.51 350.847 212.394 350.78 212.185C350.714 211.977 350.83 211.754 351.039 211.688L410.534 192.81C410.743 192.744 410.966 192.86 411.032 193.068Z" fill="white"/>
<path fill-rule="evenodd" clip-rule="evenodd" d="M396.829 205.799C396.892 206.008 396.774 206.23 396.564 206.294L354.231 219.156C354.021 219.22 353.8 219.101 353.736 218.892C353.672 218.682 353.79 218.461 354 218.397L396.334 205.535C396.543 205.471 396.765 205.589 396.829 205.799Z" fill="white"/>
<path d="M362.938 230.004L360.714 238.011C360.631 238.315 360.628 238.636 360.707 238.941C360.786 239.246 360.944 239.525 361.165 239.75C361.385 239.975 361.661 240.138 361.964 240.223C362.268 240.308 362.588 240.312 362.894 240.234L370.949 238.152C371.254 238.073 371.533 237.915 371.757 237.694C371.982 237.474 372.144 237.197 372.228 236.894C372.312 236.59 372.314 236.269 372.235 235.964C372.155 235.66 371.997 235.381 371.775 235.157L365.95 229.222C365.73 228.996 365.453 228.832 365.149 228.747C364.845 228.662 364.523 228.659 364.217 228.739C363.912 228.818 363.632 228.977 363.408 229.199C363.183 229.421 363.021 229.699 362.938 230.004Z" fill="white"/>
<path d="M383.35 230.897L385.572 222.882C385.657 222.578 385.66 222.258 385.581 221.953C385.502 221.648 385.345 221.369 385.124 221.145C384.903 220.92 384.627 220.758 384.323 220.674C384.02 220.59 383.699 220.588 383.394 220.667L375.347 222.747C375.041 222.825 374.761 222.982 374.536 223.202C374.31 223.423 374.146 223.7 374.062 224.004C373.977 224.308 373.974 224.629 374.053 224.935C374.133 225.24 374.291 225.519 374.513 225.744L380.344 231.67C380.564 231.894 380.84 232.057 381.143 232.142C381.445 232.226 381.765 232.229 382.07 232.151C382.375 232.073 382.653 231.916 382.878 231.696C383.103 231.475 383.265 231.2 383.35 230.897Z" fill="white"/>
<path d="M498.436 393.216H446.65C445.242 393.225 443.887 392.684 442.874 391.707C441.86 390.731 441.269 389.397 441.225 387.99V387.657C441.225 387.413 441.241 387.169 441.273 386.928L448.069 335.696C448.069 335.696 449.077 329.352 454.247 329.019H487.183C488.154 329.014 489.108 329.275 489.943 329.772C491.062 330.441 492.019 331.349 492.747 332.43C493.475 333.512 493.956 334.741 494.154 336.029L500.966 387.855C500.995 388.089 501.008 388.325 501.006 388.561C501.03 389.719 500.585 393.216 498.436 393.216Z" stroke="black" stroke-miterlimit="10"/>
<path d="M443.485 370.717H498.602C498.602 370.717 503.361 393.716 498.436 393.216C496.057 393.779 444.651 392.836 444.651 392.836C443.665 392.537 442.803 391.926 442.193 391.095C440.313 387.768 442.295 377.855 443.485 370.717Z" fill="black"/>
<path fill-rule="evenodd" clip-rule="evenodd" d="M470.325 312.395C471.454 307.445 473.259 302.674 475.69 298.216L474.994 297.836C472.519 302.375 470.683 307.235 469.539 312.277L469.526 312.334L470.744 329.048L471.535 328.99L470.325 312.395Z" fill="black"/>
<path fill-rule="evenodd" clip-rule="evenodd" d="M470.344 312.726C470.344 312.726 470.344 312.727 469.949 312.761L469.554 312.796L469.553 312.792L469.552 312.778L469.547 312.725C469.543 312.678 469.536 312.608 469.527 312.518C469.508 312.338 469.48 312.077 469.44 311.757C469.362 311.118 469.241 310.243 469.07 309.3C468.898 308.356 468.678 307.351 468.402 306.45C468.123 305.541 467.799 304.771 467.432 304.272L468.071 303.803C468.518 304.411 468.874 305.284 469.16 306.218C469.449 307.16 469.676 308.198 469.85 309.158C470.025 310.12 470.148 311.011 470.228 311.661C470.267 311.986 470.296 312.252 470.315 312.436C470.325 312.529 470.332 312.601 470.337 312.65L470.342 312.706L470.343 312.721L470.344 312.726Z" fill="black"/>
<path d="M467.983 304.45C467.983 304.45 439.433 306.98 430.4 290.119C430.4 290.119 454.485 281.214 467.983 304.45Z" fill="#FDD417"/>
<path d="M430.4 290.119C430.4 290.119 454.485 281.214 467.983 304.45C467.983 304.45 439.417 306.98 430.4 290.119Z" fill="#FDD417"/>
<path fill-rule="evenodd" clip-rule="evenodd" d="M430.976 290.344C435.479 298.315 444.545 301.772 452.643 303.217C456.749 303.95 460.579 304.159 463.382 304.185C464.784 304.198 465.928 304.166 466.72 304.13C466.948 304.119 467.147 304.109 467.315 304.099C460.668 293.047 451.575 289.624 444.095 288.966C440.286 288.631 436.892 289.014 434.449 289.48C433.228 289.714 432.246 289.968 431.572 290.163C431.334 290.232 431.134 290.293 430.976 290.344ZM467.983 304.45L468.018 304.845L468.639 304.79L468.326 304.251C461.502 292.503 451.979 288.863 444.165 288.176C440.265 287.833 436.795 288.225 434.3 288.702C433.052 288.94 432.046 289.2 431.351 289.401C431.004 289.502 430.733 289.588 430.549 289.649C430.457 289.679 430.386 289.704 430.338 289.72C430.314 289.729 430.296 289.736 430.283 289.74L430.269 289.745L430.264 289.747L430.263 289.747C430.263 289.747 430.263 289.748 430.4 290.119L430.263 289.747L429.836 289.905L430.05 290.306C434.648 298.903 444.202 302.517 452.503 303.998C456.665 304.74 460.541 304.952 463.375 304.978C464.793 304.992 465.951 304.958 466.756 304.922C467.158 304.904 467.473 304.884 467.687 304.87C467.794 304.863 467.876 304.856 467.932 304.852L467.995 304.847L468.012 304.845L468.018 304.845C468.018 304.845 468.018 304.845 467.983 304.45Z" fill="black"/>
<path d="M474.684 299.763C474.684 299.763 501.854 288.866 507.865 267.327C507.865 267.327 474.406 269.5 474.684 299.763Z" fill="#FDD417"/>
<path d="M464.374 292.871C464.374 292.871 445.087 281.182 440.916 259.397C440.916 259.397 468.379 261.815 464.374 292.871Z" fill="#FDD417"/>
<path d="M465.587 293.101C465.587 293.101 445.087 281.206 440.916 259.397C440.916 259.397 469.592 262.045 465.587 293.101Z" fill="#FDD417"/>
<path fill-rule="evenodd" clip-rule="evenodd" d="M440.731 259.432C440.721 259.3 440.761 259.148 440.915 259H441.243L441.25 259.036C441.262 259.037 441.274 259.039 441.287 259.041C441.501 259.068 441.813 259.113 442.207 259.18C442.994 259.315 444.112 259.543 445.44 259.914C448.094 260.655 451.596 261.972 454.976 264.275C458.359 266.58 461.621 269.875 463.782 274.567C465.943 279.261 466.99 285.326 465.98 293.152L465.904 293.744L465.388 293.444L465.587 293.101C465.388 293.444 465.388 293.444 465.388 293.444L465.387 293.443L465.384 293.442L465.371 293.434L465.325 293.407C465.285 293.383 465.226 293.348 465.149 293.301C464.995 293.207 464.77 293.066 464.483 292.881C463.908 292.509 463.085 291.955 462.084 291.222C460.084 289.756 457.375 287.574 454.534 284.706C448.855 278.974 442.632 270.48 440.526 259.471L440.731 259.432ZM441.411 259.858C443.573 270.398 449.576 278.574 455.097 284.148C457.903 286.981 460.579 289.136 462.553 290.582C463.54 291.305 464.351 291.851 464.914 292.215C465.046 292.3 465.165 292.376 465.269 292.441C466.131 285.036 465.096 279.317 463.062 274.899C460.972 270.36 457.816 267.17 454.53 264.931C451.241 262.69 447.825 261.403 445.227 260.678C443.929 260.315 442.838 260.093 442.073 259.962C441.813 259.917 441.591 259.883 441.411 259.858Z" fill="black"/>
<path fill-rule="evenodd" clip-rule="evenodd" d="M507.84 266.931L508.397 266.895L508.247 267.434C505.206 278.332 496.767 286.508 489.14 291.945C485.32 294.667 481.691 296.712 479.016 298.077C477.678 298.76 476.579 299.272 475.812 299.615C475.429 299.786 475.129 299.915 474.925 300.001C474.823 300.044 474.744 300.076 474.691 300.098L474.63 300.123L474.614 300.129L474.609 300.131C474.609 300.131 474.608 300.131 474.462 299.763L474.609 300.131L474.071 300.345L474.065 299.767C473.917 284.446 482.391 276.218 490.872 271.844C495.106 269.66 499.344 268.433 502.522 267.752C504.111 267.411 505.437 267.206 506.367 267.086C506.832 267.026 507.199 266.988 507.45 266.964C507.575 266.952 507.672 266.944 507.737 266.939C507.77 266.936 507.795 266.934 507.813 266.933L507.832 266.932L507.838 266.931L507.84 266.931C507.84 266.931 507.84 266.931 507.865 267.327L507.84 266.931ZM507.324 267.773C507.099 267.796 506.812 267.829 506.469 267.873C505.557 267.99 504.253 268.191 502.688 268.527C499.556 269.199 495.389 270.407 491.235 272.549C483.052 276.77 474.932 284.606 474.857 299.168C475.03 299.094 475.241 299.001 475.489 298.891C476.244 298.553 477.331 298.046 478.656 297.371C481.305 296.019 484.899 293.994 488.679 291.299C496.118 285.997 504.226 278.14 507.324 267.773Z" fill="black"/>
<path fill-rule="evenodd" clip-rule="evenodd" d="M490.905 279.549C491.072 279.406 491.322 279.425 491.465 279.591C491.607 279.757 491.588 280.008 491.422 280.15L491.164 279.849L490.905 279.549ZM490.905 279.549C490.906 279.548 490.905 279.549 491.164 279.849C491.422 280.15 491.422 280.15 491.422 280.15L491.412 280.159L491.382 280.185C491.355 280.208 491.316 280.242 491.263 280.288C491.159 280.379 491.005 280.514 490.809 280.688C490.415 281.037 489.85 281.544 489.163 282.177C487.79 283.443 485.935 285.211 484.003 287.219C482.07 289.229 480.065 291.474 478.392 293.695C476.714 295.922 475.39 298.098 474.792 299.971C474.726 300.18 474.502 300.295 474.294 300.228C474.085 300.161 473.97 299.938 474.037 299.73C474.676 297.728 476.064 295.467 477.759 293.218C479.458 290.962 481.486 288.692 483.431 286.669C485.377 284.646 487.245 282.867 488.626 281.594C489.316 280.957 489.886 280.446 490.283 280.094C490.481 279.918 490.636 279.782 490.742 279.69C490.795 279.644 490.836 279.609 490.863 279.585L490.895 279.558L490.905 279.549L490.905 279.549Z" fill="black"/>
<path fill-rule="evenodd" clip-rule="evenodd" d="M449.141 266.139C449.289 265.978 449.54 265.967 449.701 266.115L449.433 266.407C449.701 266.115 449.701 266.115 449.701 266.115L449.703 266.116L449.705 266.119L449.715 266.128L449.753 266.164C449.787 266.195 449.835 266.241 449.898 266.302C450.024 266.425 450.209 266.607 450.444 266.849C450.915 267.333 451.589 268.055 452.409 269.014C454.05 270.932 456.273 273.797 458.613 277.594C463.295 285.188 468.447 296.511 470.343 311.434C470.371 311.652 470.217 311.85 470 311.878C469.782 311.905 469.584 311.752 469.556 311.534C467.677 296.742 462.571 285.526 457.938 278.01C455.622 274.253 453.424 271.42 451.807 269.529C450.998 268.584 450.335 267.874 449.876 267.402C449.646 267.166 449.467 266.989 449.346 266.872C449.286 266.813 449.24 266.769 449.209 266.741L449.175 266.709L449.167 266.701L449.165 266.7" fill="black"/>
<path fill-rule="evenodd" clip-rule="evenodd" d="M440.858 292.893C440.894 292.677 441.098 292.531 441.314 292.567L441.249 292.959L441.183 293.35C440.967 293.313 440.821 293.109 440.858 292.893ZM441.249 292.959C441.183 293.35 441.183 293.35 441.183 293.35L441.186 293.35L441.198 293.352L441.246 293.36C441.288 293.368 441.352 293.379 441.435 293.394C441.601 293.424 441.847 293.47 442.161 293.532C442.791 293.657 443.697 293.846 444.801 294.105C447.011 294.624 450.009 295.423 453.169 296.544C456.33 297.666 459.641 299.105 462.483 300.902C465.328 302.701 467.67 304.838 468.937 307.341C469.036 307.537 469.275 307.615 469.47 307.516C469.666 307.417 469.744 307.178 469.645 306.983C468.287 304.3 465.811 302.068 462.907 300.231C459.998 298.392 456.627 296.929 453.434 295.797C450.239 294.663 447.211 293.857 444.983 293.333C443.868 293.071 442.953 292.88 442.315 292.754C441.996 292.691 441.747 292.645 441.577 292.614C441.492 292.598 441.427 292.587 441.382 292.579L441.332 292.571L441.319 292.568L441.314 292.567C441.314 292.567 441.314 292.567 441.249 292.959Z" fill="black"/>
</svg>
