<svg width="75" height="75" viewBox="0 0 75 75" fill="none" xmlns="http://www.w3.org/2000/svg">
<path d="M63.0013 25.7037C62.2034 25.7037 61.4242 25.7843 60.6702 25.9362C58.1948 20.8673 54.1164 16.7229 49.101 14.1556C49.231 13.4559 49.3021 12.7356 49.3021 11.9989C49.3021 5.49429 44.0102 0.202667 37.5059 0.202667C31.0015 0.202667 25.7096 5.49429 25.7096 11.9989C25.7096 12.6683 25.7688 13.3243 25.8764 13.9637C20.7107 16.5029 16.5069 20.7062 13.9664 25.871C13.3261 25.7629 12.6694 25.7037 11.9988 25.7037C5.49477 25.7037 0.202881 30.9956 0.202881 37.5C0.202881 44.0043 5.49477 49.2962 11.9991 49.2962C12.735 49.2962 13.4542 49.2251 14.1532 49.0956C16.721 54.1151 20.8686 58.197 25.9418 60.6729C25.7904 61.4259 25.7099 62.2043 25.7099 63.0013C25.7099 69.5059 31.0018 74.7975 37.5061 74.7975C44.0104 74.7975 49.3023 69.5059 49.3023 63.0013C49.3023 62.1375 49.2064 61.2962 49.0294 60.4846C53.9583 57.9808 57.9848 53.9537 60.4875 49.024C61.2983 49.2008 62.1388 49.2965 63.0015 49.2965C69.5056 49.2962 74.7975 44.0046 74.7975 37.5C74.7975 30.9954 69.5056 25.7037 63.0013 25.7037ZM63.0013 47.9205C57.2553 47.9205 52.5807 43.2459 52.5807 37.5C52.5807 31.754 57.2553 27.0794 63.0013 27.0794C68.7472 27.0794 73.4218 31.754 73.4218 37.5C73.4218 43.2459 68.7472 47.9205 63.0013 47.9205ZM27.0856 11.9989C27.0856 6.25294 31.7602 1.57834 37.5061 1.57834C43.2521 1.57834 47.9267 6.25294 47.9267 11.9989C47.9267 17.7448 43.2521 22.4197 37.5061 22.4197C31.7602 22.4197 27.0856 17.7448 27.0856 11.9989ZM1.57829 37.5C1.57829 31.754 6.25288 27.0794 11.9988 27.0794C17.7448 27.0794 22.4196 31.754 22.4196 37.5C22.4196 43.2459 17.745 47.9205 11.9991 47.9205C6.25315 47.9205 1.57829 43.2459 1.57829 37.5ZM47.9267 63.001C47.9267 68.747 43.2521 73.4216 37.5061 73.4216C31.7602 73.4216 27.0856 68.747 27.0856 63.001C27.0856 57.2551 31.7602 52.5805 37.5061 52.5805C43.2521 52.5805 47.9267 57.2551 47.9267 63.001ZM48.648 59.1346C47.1153 54.7308 43.0442 51.507 38.194 51.2267V43.01L41.285 46.034C41.5564 46.2997 41.9923 46.2954 42.2577 46.0232C42.5234 45.7516 42.5188 45.3162 42.2469 45.0505L38.4596 41.3454C38.2329 41.1235 37.9494 40.9983 37.6567 40.9597C37.608 40.9489 37.558 40.9419 37.5061 40.9419C37.4969 40.9419 37.4886 40.9443 37.4794 40.9446C37.1091 40.9421 36.7383 41.0821 36.4596 41.3673L32.7545 45.1546C32.4888 45.4262 32.4934 45.8616 32.7653 46.1273C32.8991 46.2583 33.0726 46.3235 33.2461 46.3235C33.4245 46.3235 33.6031 46.2543 33.7377 46.1167L36.818 42.9678V51.2267C31.9026 51.5108 27.7869 54.8183 26.3032 59.3132C21.704 57.0059 17.9248 53.3016 15.5248 48.7578C20.1026 47.3208 23.4856 43.1629 23.7731 38.1881H31.9899L28.9661 41.2789C28.7004 41.5505 28.705 41.9859 28.9769 42.2516C29.1107 42.3827 29.2842 42.4478 29.4577 42.4478C29.6361 42.4478 29.8148 42.3786 29.9494 42.241L33.6545 38.4537C33.8707 38.2329 34.0007 37.9524 34.0402 37.6513C34.051 37.6027 34.058 37.5524 34.058 37.5005C34.058 37.4919 34.0559 37.4837 34.0556 37.4751C34.0556 37.4664 34.058 37.4581 34.0577 37.4494C34.0537 37.0716 33.9026 36.7181 33.6326 36.454L29.8453 32.7489C29.5745 32.4835 29.1388 32.4881 28.8726 32.7597C28.6069 33.0313 28.6115 33.4667 28.8834 33.7324L32.0321 36.8127H23.7734C23.4823 31.7743 20.0148 27.5759 15.3477 26.1913C17.7186 21.5262 21.5302 17.7151 26.1961 15.3454C27.5799 20.0137 31.7788 23.4824 36.8183 23.7737V31.9919L35.8929 31.0867L33.738 28.8837C33.6561 28.8 33.5572 28.7446 33.4526 28.7116C33.1813 28.5081 32.795 28.5292 32.5504 28.7789C32.2848 29.0505 32.2894 29.4859 32.5613 29.7516L34.9229 32.0621L36.4602 33.6335C36.7367 33.9159 37.1037 34.0575 37.471 34.0575C37.4756 34.0575 37.4802 34.0562 37.485 34.0562C37.4923 34.0564 37.4991 34.0583 37.5064 34.0583C37.5594 34.0583 37.6104 34.051 37.6599 34.0397C37.9515 34.0008 38.2337 33.8762 38.4596 33.6551L42.2469 29.95C42.5186 29.6843 42.5234 29.2489 42.2577 28.9773C42.2421 28.961 42.2237 28.9489 42.2067 28.9346C42.1726 28.8394 42.1196 28.75 42.0423 28.6746C41.7715 28.4092 41.3359 28.4135 41.0696 28.6854L38.1937 31.6251V23.7737C43.1675 23.4862 47.3248 20.104 48.7626 15.5275C53.3026 17.927 57.0037 21.7032 59.3104 26.2986C54.8169 27.7829 51.5107 31.8978 51.2267 36.8124H42.9677L46.1164 33.7321C46.388 33.4664 46.3929 33.031 46.1272 32.7594C45.8613 32.4873 45.4256 32.4827 45.1545 32.7486L41.3669 36.4537C41.0826 36.7321 40.9429 37.1021 40.945 37.4719C40.9445 37.4813 40.9421 37.4902 40.9421 37.5C40.9421 37.5524 40.9491 37.6027 40.9602 37.6516C40.9988 37.9437 41.124 38.2267 41.3453 38.4532L45.0504 42.2405C45.185 42.3783 45.3634 42.4473 45.5421 42.4473C45.7156 42.4473 45.8894 42.3821 46.0229 42.251C46.2945 41.9854 46.2994 41.55 46.0337 41.2783L43.0099 38.1875H51.2267C51.5072 43.0386 54.7323 47.1105 59.1369 48.6427C56.8007 53.1232 53.1277 56.797 48.648 59.1346Z" fill="black"/>
</svg>
