<svg width="71" height="71" viewBox="0 0 71 71" fill="none" xmlns="http://www.w3.org/2000/svg">
<path d="M69.4935 40.1395C69.5238 40.143 69.5535 40.1447 69.583 40.1447C69.9816 40.1447 70.3254 39.8452 70.3706 39.4398C70.517 38.1387 70.5911 36.8136 70.5911 35.5014C70.5911 34.1966 70.5179 32.8793 70.373 31.5857C70.3241 31.1501 69.9343 30.8379 69.4962 30.8852C69.0608 30.9341 68.7473 31.3266 68.7962 31.762C68.9341 32.9971 69.0043 34.2552 69.0043 35.5011C69.0043 36.7544 68.9335 38.0201 68.7941 39.2625C68.7446 39.6979 69.0581 40.0906 69.4935 40.1395Z" fill="black"/>
<path d="M23.9246 68.6175C26.3965 69.4807 28.9735 70.0667 31.5841 70.3594C31.6138 70.3626 31.6438 70.3643 31.6735 70.3643C32.0719 70.3643 32.4154 70.0645 32.4608 69.6591C32.5098 69.2237 32.1962 68.831 31.7608 68.7821C29.2684 68.5029 26.8076 67.9435 24.4476 67.1194C24.0349 66.9748 23.5814 67.1934 23.4368 67.607C23.2927 68.0205 23.5108 68.4732 23.9246 68.6175Z" fill="black"/>
<path d="M31.6065 0.639978C28.9962 0.931059 26.4192 1.51511 23.9465 2.37646C23.5327 2.52052 23.3141 2.97295 23.4584 3.38673C23.5722 3.7143 23.8795 3.91944 24.2079 3.91944C24.2943 3.91944 24.3827 3.90511 24.4689 3.87511C26.8292 3.05295 29.29 2.49511 31.7825 2.21728C32.2179 2.16863 32.5319 1.77646 32.483 1.34079C32.4346 0.905113 32.0389 0.59187 31.6065 0.639978Z" fill="black"/>
<path d="M53.3499 7.14586C55.4542 8.47234 57.421 10.0445 59.1818 11.8056C59.1861 11.8102 59.2031 11.8275 59.2077 11.8318C59.3613 11.9853 59.5599 12.0613 59.7594 12.0613C59.9631 12.0613 60.1669 11.9823 60.3234 11.8256C60.6334 11.5156 60.6272 11.0069 60.3172 10.6972C58.4594 8.8391 56.3996 7.19261 54.1958 5.80316C53.8248 5.56883 53.3353 5.68045 53.1013 6.05126C52.868 6.42234 52.9791 6.91234 53.3499 7.14586Z" fill="black"/>
<path d="M47.1195 2.39066C44.6479 1.52634 42.0708 0.938769 39.4606 0.644715C39.0252 0.595796 38.6322 0.908769 38.5833 1.34417C38.5341 1.77958 38.8476 2.17255 39.283 2.22147C41.7754 2.50228 44.2357 3.06309 46.5954 3.88823C46.6822 3.91877 46.7706 3.93309 46.8573 3.93309C47.1852 3.93309 47.4919 3.72823 47.6062 3.4012C47.7514 2.98769 47.5333 2.53499 47.1195 2.39066Z" fill="black"/>
<path d="M53.7527 65.3349C53.8973 65.3349 54.0432 65.2954 54.1746 65.2127C56.3835 63.8224 58.4481 62.1732 60.3113 60.3113C60.6213 60.0016 60.6213 59.4992 60.3116 59.1892C60.0016 58.8789 59.4992 58.8792 59.1892 59.1889C57.4097 60.9673 55.4384 62.5422 53.3289 63.8694C52.9581 64.103 52.8465 64.5927 53.0803 64.9638C53.2311 65.2035 53.4886 65.3349 53.7527 65.3349Z" fill="black"/>
<path d="M16.8467 65.2087C16.978 65.2914 17.124 65.3309 17.2686 65.3309C17.5321 65.3309 17.7902 65.1995 17.9408 64.96C18.1743 64.589 18.0629 64.0992 17.6921 63.8657C15.5824 62.5371 13.6108 60.9617 11.8508 59.2022C11.8426 59.1933 11.8089 59.1592 11.7999 59.1509C11.4878 58.8454 11.0008 58.8627 10.6937 59.173C10.3867 59.4833 10.4008 59.996 10.7097 60.3046C12.5721 62.1673 14.6367 63.8171 16.8467 65.2087Z" fill="black"/>
<path d="M16.8683 5.77973C14.6586 7.16891 12.5926 8.81675 10.7286 10.6778C10.4186 10.9876 10.4183 11.49 10.7277 11.8C10.8826 11.9551 11.0858 12.033 11.2891 12.033C11.4921 12.033 11.6948 11.9557 11.8496 11.8011C13.6299 10.0235 15.6029 8.44973 17.7126 7.12351C18.0837 6.89027 18.1953 6.40027 17.9621 6.02946C17.7294 5.65864 17.2404 5.54729 16.8683 5.77973Z" fill="black"/>
<path d="M39.3486 70.3649C39.3783 70.3649 39.4083 70.3632 39.438 70.36C42.048 70.0676 44.6245 69.4819 47.097 68.6194C47.5107 68.4751 47.7288 68.0227 47.5848 67.6086C47.4407 67.1946 46.9888 66.9765 46.574 67.1211C44.214 67.9446 41.7537 68.5038 39.2615 68.7827C38.8261 68.8316 38.5126 69.2243 38.5615 69.6597C38.6067 70.0651 38.9499 70.3649 39.3486 70.3649Z" fill="black"/>
<path d="M68.1406 46.0873C67.726 45.9427 67.2744 46.1608 67.1298 46.5746C66.3033 48.9392 65.2079 51.2119 63.8736 53.3298C63.64 53.7006 63.7511 54.1906 64.1219 54.4241C64.2533 54.5068 64.3998 54.5462 64.5444 54.5462C64.8079 54.5462 65.0654 54.4149 65.2165 54.1754C66.6144 51.9568 67.7622 49.5757 68.6276 47.0981C68.7719 46.6846 68.5538 46.2322 68.1406 46.0873Z" fill="black"/>
<path d="M64.1352 16.5989C63.7644 16.8322 63.6528 17.3222 63.886 17.693C65.2184 19.8108 66.312 22.0835 67.1363 24.4481C67.2506 24.7754 67.5574 24.9806 67.8857 24.9806C67.9725 24.9806 68.0606 24.9662 68.1468 24.9362C68.5606 24.7919 68.7793 24.3395 68.6349 23.9257C67.7709 21.4478 66.6252 19.0665 65.2295 16.8476C64.996 16.4773 64.5063 16.366 64.1352 16.5989Z" fill="black"/>
<path d="M1.43921 40.1043C1.46867 40.1043 1.49813 40.1027 1.52786 40.0995C1.96326 40.0511 2.27732 39.6586 2.22867 39.2232C2.09191 37.9913 2.02245 36.7392 2.02245 35.5011C2.02245 34.2432 2.0938 32.9719 2.23488 31.7224C2.28407 31.287 1.97056 30.894 1.53542 30.8451C1.10461 30.7962 0.706776 31.1092 0.657857 31.5446C0.51029 32.8527 0.435425 34.184 0.435425 35.5011C0.435425 36.7973 0.508398 38.1084 0.651641 39.3984C0.696776 39.8043 1.04029 40.1043 1.43921 40.1043Z" fill="black"/>
<path d="M5.78732 54.1383C5.93813 54.378 6.19597 54.5099 6.46002 54.5099C6.60407 54.5099 6.75029 54.4705 6.8811 54.388C7.25218 54.1551 7.36434 53.6653 7.1311 53.294C5.80029 51.1751 4.70786 48.9018 3.88461 46.5369C3.74056 46.1234 3.2884 45.904 2.87461 46.0486C2.46083 46.1926 2.24191 46.6448 2.38597 47.0588C3.24813 49.5364 4.39245 51.9183 5.78732 54.1383Z" fill="black"/>
<path d="M2.89284 24.8973C2.9796 24.9278 3.06798 24.9422 3.15473 24.9422C3.48257 24.9422 3.78933 24.7373 3.90365 24.4105C4.73041 22.0467 5.8269 19.7746 7.16257 17.6573C7.39663 17.2867 7.28528 16.7965 6.91501 16.563C6.54311 16.3286 6.05365 16.4403 5.82041 16.8108C4.42095 19.0292 3.27203 21.4097 2.40582 23.8862C2.26095 24.3 2.47906 24.7527 2.89284 24.8973Z" fill="black"/>
<path d="M23.7961 58.4595C26.2034 59.6884 28.7831 60.5268 31.4631 60.9511C31.505 60.9576 31.5469 60.9611 31.5883 60.9611C31.9715 60.9611 32.3088 60.6825 32.371 60.2916C32.4396 59.8587 32.144 59.4522 31.7112 59.3835C29.1967 58.9854 26.7761 58.1989 24.5177 57.046C24.1275 56.8465 23.6494 57.0016 23.4502 57.3919C23.251 57.7825 23.4056 58.2606 23.7961 58.4595Z" fill="black"/>
<path d="M17.2923 17.2797C15.3685 19.2032 13.7726 21.3959 12.5488 23.797C12.3496 24.1875 12.5048 24.6654 12.8953 24.8646C13.0107 24.9235 13.1337 24.9513 13.2548 24.9513C13.5437 24.9513 13.8223 24.7929 13.9623 24.5181C15.1112 22.2654 16.6091 20.2078 18.4145 18.4019L18.4496 18.367C18.7618 18.0594 18.7658 17.557 18.4583 17.2448C18.1507 16.9327 17.6485 16.9292 17.3361 17.2365L17.2923 17.2797Z" fill="black"/>
<path d="M60.9615 39.5656C61.1742 38.2272 61.282 36.8597 61.282 35.501C61.282 34.1659 61.1777 32.8215 60.972 31.5056C60.9047 31.0724 60.4963 30.7775 60.0658 30.844C59.6325 30.9115 59.3366 31.3175 59.4044 31.7505C59.5974 32.9856 59.695 34.2475 59.695 35.501C59.695 36.7764 59.5939 38.0602 59.3939 39.3164C59.3252 39.7491 59.6201 40.1559 60.0534 40.2245C60.0952 40.2313 60.1374 40.2345 60.1788 40.2345C60.562 40.2345 60.899 39.9561 60.9615 39.5656Z" fill="black"/>
<path d="M58.4655 47.2307C58.665 46.8405 58.5104 46.3623 58.1204 46.1629C57.7298 45.9632 57.252 46.1183 57.0528 46.508C55.9066 48.7491 54.415 50.7967 52.6017 52.6113C52.5998 52.6134 52.5979 52.6153 52.5958 52.6175L53.7344 53.7223C55.6514 51.8061 57.2431 49.6218 58.4655 47.2307Z" fill="black"/>
<path d="M18.4049 52.5905C16.6005 50.7848 15.1038 48.7264 13.9562 46.4726C13.757 46.0824 13.2795 45.9264 12.8892 46.1256C12.4987 46.3245 12.3432 46.8024 12.5422 47.1929C13.7657 49.5948 15.3605 51.7883 17.2822 53.7121C17.437 53.8672 17.6405 53.9448 17.8435 53.9448C18.0465 53.9448 18.2495 53.8675 18.4041 53.7126C18.7146 53.4029 18.7146 52.9005 18.4049 52.5905Z" fill="black"/>
<path d="M32.4381 10.7019C32.3703 10.2684 31.9657 9.96972 31.5319 10.0397C28.8511 10.4567 26.27 11.2878 23.8595 12.51C23.4687 12.7081 23.3124 13.1857 23.5103 13.5765C23.6503 13.8524 23.9292 14.0113 24.2189 14.0113C24.3395 14.0113 24.4619 13.9835 24.577 13.9254C26.8381 12.7789 29.2603 11.9992 31.776 11.6078C32.2087 11.5405 32.5054 11.1349 32.4381 10.7019Z" fill="black"/>
<path d="M52.6403 18.4305C54.4427 20.238 55.937 22.298 57.0822 24.5529C57.2222 24.8286 57.5011 24.9875 57.7906 24.9875C57.9114 24.9875 58.0338 24.9596 58.1489 24.9013C58.5397 24.7029 58.6957 24.2253 58.4973 23.8345C57.2768 21.4307 55.6843 19.2356 53.7641 17.3099C53.4549 16.9994 52.9527 16.9988 52.6419 17.3083C52.3316 17.6177 52.3308 18.1202 52.6403 18.4305Z" fill="black"/>
<path d="M10.0611 31.4651C9.85112 32.7953 9.74463 34.1532 9.74463 35.501C9.74463 36.8448 9.85031 38.1986 10.059 39.5248C10.1206 39.9159 10.4581 40.1953 10.8417 40.1953C10.8827 40.1953 10.9241 40.1921 10.966 40.1853C11.3987 40.1172 11.6949 39.7113 11.6265 39.2783C11.4308 38.0334 11.3317 36.7624 11.3317 35.5007C11.3317 34.2356 11.4317 32.961 11.629 31.7124C11.6971 31.2794 11.4019 30.8732 10.9687 30.8048C10.5403 30.7383 10.1298 31.0318 10.0611 31.4651Z" fill="black"/>
<path d="M38.6167 60.2967C38.678 60.6881 39.0153 60.9675 39.3994 60.9675C39.4405 60.9675 39.4818 60.9643 39.5234 60.9578C42.2037 60.5375 44.7842 59.7035 47.1932 58.4789C47.5837 58.2802 47.7394 57.8027 47.541 57.4121C47.3424 57.0219 46.8653 56.8654 46.474 57.0643C44.214 58.2132 41.7932 58.9956 39.2778 59.3897C38.8445 59.4578 38.5488 59.8637 38.6167 60.2967Z" fill="black"/>
<path d="M47.2556 12.5557C44.8502 11.3241 42.2718 10.4827 39.5921 10.0552C39.1596 9.98706 38.7521 10.2806 38.6834 10.7138C38.6139 11.1465 38.9093 11.5535 39.3418 11.6225C41.8566 12.0235 44.2756 12.8127 46.5326 13.9684C46.648 14.0276 46.7718 14.0557 46.8934 14.0557C47.182 14.0557 47.4599 13.8981 47.6004 13.6238C47.8002 13.2335 47.6458 12.7554 47.2556 12.5557Z" fill="black"/>
<path d="M41.5763 51.2626C41.9849 51.1051 42.1892 50.6459 42.0314 50.237C41.8738 49.8275 41.4141 49.6248 41.0057 49.7813C39.2552 50.4553 37.4071 50.797 35.5133 50.797C33.6054 50.797 31.7449 50.4505 29.9836 49.7672C29.5754 49.6091 29.1152 49.8113 28.9568 50.2202C28.7984 50.6288 29.0009 51.0886 29.4092 51.247C31.3546 52.0016 33.4084 52.3843 35.5133 52.3843C37.603 52.384 39.6427 52.0067 41.5763 51.2626Z" fill="black"/>
<path d="M50.2596 41.9954C49.8675 41.7981 49.391 41.9575 49.1945 42.3489C48.3448 44.0429 47.2002 45.55 45.7918 46.8289C45.4675 47.1235 45.4432 47.6254 45.738 47.9497C45.8945 48.1221 46.1096 48.2097 46.3259 48.2097C46.5161 48.2097 46.7072 48.1416 46.8591 48.0035C48.4124 46.5927 49.6759 44.9297 50.6134 43.0602C50.8099 42.6683 50.6515 42.1916 50.2596 41.9954Z" fill="black"/>
<path d="M47.7364 26.3035C47.892 26.5105 48.1301 26.6194 48.3707 26.6194C48.5369 26.6194 48.7047 26.5673 48.8477 26.4597C49.1977 26.1959 49.2674 25.6984 49.0034 25.3484C47.7423 23.6746 46.2012 22.2648 44.4237 21.1584C44.0518 20.9257 43.562 21.0405 43.3307 21.4124C43.0993 21.7846 43.2128 22.274 43.5853 22.5054C45.1964 23.5086 46.5926 24.7865 47.7364 26.3035Z" fill="black"/>
<path d="M24.1342 47.9733C24.2864 48.1122 24.478 48.1808 24.6688 48.1808C24.8842 48.1808 25.0988 48.0938 25.2553 47.9225C25.5504 47.5987 25.5277 47.0968 25.2042 46.8014C23.7996 45.5192 22.6591 44.0092 21.8137 42.3127C21.618 41.9211 21.1426 41.7606 20.7496 41.9565C20.3572 42.1519 20.198 42.6284 20.3931 43.0206C21.3264 44.8925 22.585 46.5589 24.1342 47.9733Z" fill="black"/>
<path d="M20.2547 30.3221C19.8309 30.2013 19.3942 30.4462 19.2742 30.8678C18.8472 32.3683 18.6307 33.927 18.6307 35.5008C18.6307 36.017 18.6542 36.5372 18.7004 37.0472C18.738 37.4594 19.0839 37.7689 19.4901 37.7689C19.5142 37.7689 19.5382 37.7678 19.5626 37.7656C19.9993 37.7259 20.3209 37.3399 20.2812 36.9035C20.2391 36.441 20.2177 35.9691 20.2177 35.5008C20.2177 34.0737 20.4137 32.6613 20.8009 31.3024C20.9204 30.881 20.6764 30.4421 20.2547 30.3221Z" fill="black"/>
<path d="M32.4316 18.8986C32.0008 18.9781 31.7159 19.3921 31.7954 19.8229C31.8749 20.2537 32.2859 20.5375 32.72 20.4594C34.5619 20.1197 36.5027 20.1218 38.3454 20.4667C38.3951 20.4759 38.4438 20.4805 38.4922 20.4805C38.8668 20.4805 39.2 20.214 39.2713 19.8327C39.3519 19.4021 39.0678 18.9875 38.6376 18.9067C36.603 18.5259 34.4646 18.5237 32.4316 18.8986Z" fill="black"/>
<path d="M22.2023 26.4254C22.3455 26.5338 22.5139 26.5865 22.6806 26.5865C22.9209 26.5865 23.1579 26.4781 23.3136 26.2722C24.4617 24.7573 25.8612 23.4832 27.4744 22.4851C27.8469 22.2546 27.9623 21.7654 27.7317 21.393C27.5009 21.0197 27.0117 20.9054 26.639 21.1357C24.8596 22.237 23.315 23.6427 22.0488 25.3135C21.7844 25.663 21.8531 26.1605 22.2023 26.4254Z" fill="black"/>
<path d="M51.4588 37.807C51.484 37.8094 51.5088 37.8105 51.5332 37.8105C51.9386 37.8105 52.284 37.5019 52.3224 37.0905C52.3716 36.564 52.3964 36.0292 52.3964 35.5011C52.3967 33.9421 52.184 32.3973 51.7645 30.9094C51.6456 30.4878 51.2078 30.2421 50.7853 30.3611C50.3634 30.48 50.118 30.9183 50.237 31.3402C50.617 32.6878 50.8097 34.0875 50.8091 35.5008C50.8091 35.98 50.7867 36.4651 50.7421 36.9432C50.7018 37.3794 51.0226 37.7662 51.4588 37.807Z" fill="black"/>
<path d="M35.5132 43.1808C39.7478 43.1808 43.1929 39.7356 43.1929 35.501C43.1929 31.2665 39.7478 27.8213 35.5132 27.8213C31.2786 27.8213 27.8334 31.2665 27.8334 35.501C27.8334 39.7356 31.2788 43.1808 35.5132 43.1808ZM35.5132 29.4083C38.8729 29.4083 41.6059 32.1413 41.6059 35.501C41.6059 38.8608 38.8729 41.5938 35.5132 41.5938C32.1534 41.5938 29.4205 38.8608 29.4205 35.501C29.4205 32.1413 32.1537 29.4083 35.5132 29.4083Z" fill="black"/>
</svg>
