<svg xmlns="http://www.w3.org/2000/svg" width="16" height="12.708" viewBox="0 0 16 12.708">
  <g id="eye-slash" transform="translate(0 -1.646)">
    <path id="Path_3" data-name="Path 3" d="M13.359,11.238A13.669,13.669,0,0,0,16,8S13,2.5,8,2.5a7.028,7.028,0,0,0-2.79.588l.77.771A5.944,5.944,0,0,1,8,3.5a7.457,7.457,0,0,1,5.168,2.457A13.134,13.134,0,0,1,14.828,8c-.058.087-.122.183-.195.288a13.187,13.187,0,0,1-1.465,1.755c-.165.165-.337.328-.517.486Z" fill="#a7a7a7"/>
    <path id="Path_4" data-name="Path 4" d="M11.3,9.176A3.5,3.5,0,0,0,6.823,4.7l.823.823a2.5,2.5,0,0,1,2.829,2.829l.822.822Zm-2.943,1.3.822.822A3.5,3.5,0,0,1,4.7,6.823l.823.823a2.5,2.5,0,0,0,2.829,2.829Z" fill="#a7a7a7"/>
    <path id="Path_5" data-name="Path 5" d="M3.35,5.47q-.27.24-.518.487A13.134,13.134,0,0,0,1.172,8l.2.288a13.187,13.187,0,0,0,1.465,1.755A7.459,7.459,0,0,0,8,12.5a5.926,5.926,0,0,0,2.02-.36l.77.772A7.029,7.029,0,0,1,8,13.5C3,13.5,0,8,0,8A13.616,13.616,0,0,1,2.641,4.762l.708.709Zm10.3,8.884-12-12,.708-.708,12,12Z" fill="#a7a7a7"/>
  </g>
</svg>
