<svg xmlns="http://www.w3.org/2000/svg" width="16" height="11" viewBox="0 0 16 11">
  <g id="eye" transform="translate(0 -2.5)">
    <path id="Path_1" data-name="Path 1" d="M16,8S13,2.5,8,2.5,0,8,0,8s3,5.5,8,5.5S16,8,16,8ZM1.173,8a13.133,13.133,0,0,1,1.66-2.043A7.451,7.451,0,0,1,8,3.5a7.457,7.457,0,0,1,5.168,2.457A13.133,13.133,0,0,1,14.828,8c-.058.087-.122.183-.2.288a13.187,13.187,0,0,1-1.465,1.755A7.459,7.459,0,0,1,8,12.5a7.457,7.457,0,0,1-5.168-2.457A13.134,13.134,0,0,1,1.172,8Z" fill="#a7a7a7"/>
    <path id="Path_2" data-name="Path 2" d="M8,5.5A2.5,2.5,0,1,0,10.5,8,2.5,2.5,0,0,0,8,5.5ZM4.5,8A3.5,3.5,0,1,1,8,11.5,3.5,3.5,0,0,1,4.5,8Z" fill="#a7a7a7"/>
  </g>
</svg>
