<svg width="92" height="92" viewBox="0 0 92 92" fill="none" xmlns="http://www.w3.org/2000/svg">
<mask id="mask0_1161_18610" style="mask-type:alpha" maskUnits="userSpaceOnUse" x="0" y="0" width="92" height="92">
<rect width="92" height="92" fill="#D9D9D9"/>
</mask>
<g mask="url(#mask0_1161_18610)">
<path d="M45.9009 67.1494C64.6238 67.1494 79.8018 52.1175 79.8018 33.5747C79.8018 15.0319 64.6238 0 45.9009 0C27.1779 0 12 15.0319 12 33.5747C12 52.1175 27.1779 67.1494 45.9009 67.1494Z" fill="#FDD417"/>
<path d="M78.006 92C74.7325 86.9287 70.0247 82.7182 64.3558 79.7916C58.687 76.8651 52.257 75.3258 45.7124 75.3284C39.166 75.3246 32.734 76.8634 27.0631 79.7899C21.3922 82.7165 16.6824 86.9277 13.4075 92C15.0185 85.4062 19.1009 79.5036 24.977 75.2719C30.8532 71.0402 38.1697 68.7338 45.7124 68.7356C53.2532 68.7358 60.5673 71.0431 66.4412 75.2746C72.3151 79.5062 76.3957 85.4077 78.006 92Z" fill="#FDD417"/>
</g>
</svg>
