<svg width="550" height="550" viewBox="0 0 550 550" fill="none" xmlns="http://www.w3.org/2000/svg">
<path d="M489.204 298.203H451.405C431.193 298.203 414.809 281.818 414.809 261.606V159.541H525.801V261.606C525.801 281.818 509.416 298.203 489.204 298.203Z" fill="#A8542A"/>
<path d="M489.203 297.34H453.207C450.381 297.401 447.555 297.196 444.767 296.727C428.103 293.577 415.948 279.149 415.675 262.192C415.636 259.708 415.67 257.221 415.67 254.737V159.541L414.807 160.404H521.278C522.707 160.404 524.189 160.518 525.615 160.404C525.676 160.399 525.739 160.404 525.8 160.404L524.937 159.541V256.983C524.937 258.522 524.94 260.062 524.937 261.601C524.954 271.084 521.195 280.183 514.49 286.889C507.785 293.595 498.686 297.355 489.203 297.34C488.738 297.356 488.369 297.737 488.369 298.203C488.369 298.668 488.738 299.05 489.203 299.066C507.048 299.06 522.414 286.474 525.935 268.98C526.496 265.769 526.74 262.509 526.663 259.25V159.541C526.656 159.067 526.274 158.685 525.8 158.678H419.33C417.885 158.678 416.436 158.641 414.992 158.678C414.931 158.679 414.869 158.678 414.807 158.678C414.334 158.685 413.951 159.067 413.944 159.541V251.82C413.944 254.993 413.944 258.166 413.944 261.338C413.874 271.327 417.795 280.93 424.837 288.014C431.879 295.098 441.458 299.076 451.447 299.066C456.926 299.076 462.405 299.066 467.884 299.066H489.203C489.668 299.05 490.037 298.668 490.037 298.203C490.037 297.737 489.669 297.356 489.203 297.34Z" fill="black"/>
<path d="M454.192 298.203H416.393C396.181 298.203 379.796 281.818 379.796 261.606V159.541H490.788V261.606C490.788 281.818 474.403 298.203 454.192 298.203Z" fill="#FC7F3A"/>
<path d="M454.192 297.34H418.195C415.369 297.401 412.543 297.196 409.755 296.727C393.091 293.577 380.937 279.149 380.663 262.192C380.624 259.708 380.659 257.221 380.659 254.737V159.541L379.796 160.404H486.266C487.695 160.404 489.178 160.518 490.604 160.404C490.664 160.399 490.727 160.404 490.788 160.404L489.925 159.541V256.983C489.925 258.522 489.929 260.062 489.925 261.601C489.942 271.084 486.183 280.183 479.478 286.889C472.773 293.595 463.674 297.355 454.192 297.34C453.726 297.356 453.358 297.737 453.358 298.203C453.358 298.668 453.726 299.05 454.192 299.066C472.036 299.06 487.403 286.474 490.923 268.98C491.485 265.769 491.728 262.509 491.651 259.25V159.541C491.645 159.067 491.262 158.685 490.788 158.678H384.318C382.874 158.678 381.424 158.641 379.98 158.678C379.919 158.679 379.857 158.678 379.796 158.678C379.322 158.685 378.939 159.067 378.933 159.541V251.82C378.933 254.993 378.933 258.166 378.933 261.338C378.862 271.327 382.784 280.93 389.826 288.014C396.867 295.098 406.447 299.076 416.435 299.066C421.914 299.076 427.393 299.066 432.872 299.066H454.192C454.657 299.05 455.026 298.668 455.026 298.203C455.026 297.737 454.657 297.356 454.192 297.34Z" fill="black"/>
<path d="M378.646 460.598C378.628 457.834 377.69 454.99 374.813 454.101C372.803 453.48 370.541 453.872 368.577 454.488C368.063 454.645 367.558 454.832 367.065 455.048L367.699 455.535C368.236 453.472 367.04 451.239 365.526 449.923C362.396 447.104 357.821 446.587 354.142 448.636C353.244 449.13 352.43 449.763 351.73 450.512L352.452 450.932C352.895 449.737 353.094 448.466 353.039 447.193C352.976 444.596 351.679 442.184 349.546 440.699C347.619 439.329 345.251 438.68 342.944 438.319V439.151C346.013 438.266 349.175 437.12 351.702 435.108C353.164 433.945 354.455 432.329 354.528 430.386C354.692 426.06 349.452 423.586 346.037 422.499C342.48 421.431 338.775 420.939 335.062 421.043L335.367 421.779C339.68 418.271 344.017 414.495 347.272 409.947C348.639 408.037 350.413 405.293 349.778 402.803C349.283 400.858 347.254 400.195 345.453 400.14C342.5 400.052 339.522 401.124 336.878 402.336C332.499 404.413 328.481 407.177 324.976 410.525L325.697 410.945C327.948 403.914 329.929 396.58 330.297 389.169C330.447 386.999 330.323 384.817 329.929 382.677C329.706 381.269 329.127 379.94 328.248 378.818C326.571 376.893 324.128 377.533 322.354 378.948C319.312 381.374 317.476 385.291 316.105 388.83C313.756 394.89 312.618 401.405 312.096 407.861C312.017 408.85 311.953 409.84 311.904 410.83L312.752 410.715C312.08 406.4 311.181 402.11 310.174 397.862C309.294 394.15 308.302 390.46 307.104 386.837C306.035 383.387 304.627 380.05 302.9 376.878C301.662 374.706 300.037 372.284 297.659 371.249C295.515 370.353 293.036 371.008 291.616 372.847C289.79 375.145 289.61 378.458 289.685 381.267C289.862 385.093 290.429 388.891 291.377 392.602C292.722 398.255 294.455 403.809 296.562 409.225C296.599 409.319 296.635 409.413 296.672 409.506L297.306 409.019C295.941 408.075 294.502 407.241 293.004 406.526C290.721 405.419 287.979 404.292 285.39 404.753C282.3 405.303 281.456 408.547 281.565 411.287C281.758 414.429 283.273 417.343 285.735 419.305C287.185 420.551 288.848 421.524 290.645 422.178V421.346C287.531 421.743 284.533 422.777 281.837 424.384C280.171 425.438 278.633 426.961 278.314 428.988C277.969 431.179 278.662 433.777 280.557 435.075C281.613 435.78 282.877 436.107 284.143 436.002C284.69 435.947 284.696 435.084 284.143 435.139C283.248 435.217 282.349 435.05 281.542 434.654C279.613 433.698 278.911 431.369 279.132 429.337C279.549 425.511 284.464 423.774 287.602 422.899C288.676 422.589 289.769 422.348 290.874 422.179C291.333 422.113 291.232 421.47 290.874 421.346C287.082 420.038 283.391 416.769 282.59 412.694C282.111 410.254 282.358 406.396 285.282 405.657C287.581 405.076 290.208 406.16 292.254 407.121C293.865 407.869 295.41 408.754 296.871 409.765C297.023 409.849 297.21 409.835 297.348 409.73C297.486 409.624 297.547 409.446 297.505 409.277C295.775 404.862 294.295 400.352 293.072 395.77C292.021 392.072 291.255 388.3 290.78 384.485C290.437 381.422 290.221 378.014 291.343 375.076C292.114 373.058 293.993 371.357 296.286 371.728C298.579 372.098 300.248 374.283 301.422 376.103C303.183 378.988 304.604 382.066 305.659 385.277C306.922 388.84 307.954 392.483 308.869 396.149C310.072 400.969 310.939 405.834 311.881 410.706C311.896 410.785 311.907 410.866 311.919 410.945C311.997 411.446 312.744 411.292 312.767 410.83C313.098 404.241 314.044 397.614 316.122 391.333C317.39 387.501 319.093 383.419 321.954 380.479C322.738 379.584 323.746 378.914 324.874 378.537C325.668 378.3 326.527 378.464 327.177 378.978C328.044 379.792 328.64 380.854 328.883 382.018C329.352 383.899 329.552 385.836 329.478 387.773C329.392 394.441 327.75 401.101 325.869 407.46C325.547 408.549 325.212 409.634 324.865 410.716C324.819 410.903 324.902 411.098 325.068 411.195C325.235 411.293 325.446 411.268 325.586 411.136C328.633 408.25 332.06 405.794 335.771 403.834C338.41 402.468 341.343 401.263 344.338 401.033C345.861 400.916 348.083 401.013 348.811 402.635C349.697 404.606 348.087 407.184 347.047 408.756C345.702 410.718 344.175 412.549 342.485 414.223C340.043 416.683 337.463 419.002 334.757 421.169C334.459 421.412 334.712 421.911 335.062 421.906C338.209 421.831 341.352 422.175 344.408 422.93C346.745 423.467 348.957 424.449 350.923 425.823C352.189 426.767 353.417 428.092 353.637 429.721C353.865 431.408 352.875 432.899 351.686 433.992C349.237 436.241 345.848 437.415 342.715 438.319C342.336 438.428 342.273 439.082 342.715 439.151C345.995 439.664 349.703 440.84 351.363 443.979C352.2 445.691 352.412 447.641 351.964 449.494C351.883 449.905 351.767 450.31 351.619 450.702C351.459 451.106 352.065 451.432 352.34 451.122C353.882 449.445 355.997 448.406 358.267 448.212C361.573 447.98 365.972 450.003 366.811 453.487C366.965 454.081 366.984 454.703 366.866 455.305C366.825 455.473 366.887 455.65 367.025 455.755C367.162 455.861 367.348 455.875 367.5 455.793C367.521 455.783 367.541 455.773 367.563 455.765C367.425 455.812 367.652 455.729 367.707 455.708C367.954 455.612 368.203 455.52 368.454 455.435C369.256 455.161 370.078 454.952 370.913 454.81C372.816 454.493 375.086 454.575 376.465 456.117C377.542 457.321 377.773 459.046 377.783 460.598C377.79 460.831 377.981 461.016 378.214 461.016C378.447 461.016 378.638 460.831 378.646 460.598L378.646 460.598Z" fill="black"/>
<path d="M306.135 438.849C306.453 437.836 306.841 436.845 307.295 435.885C308.084 434.186 309.063 432.372 310.556 431.185C311.889 430.126 313.999 429.953 315.002 431.583C315.985 433.182 315.444 435.453 314.959 437.126C314.568 438.499 314.046 439.832 313.401 441.106C313.248 441.403 313.511 441.894 313.888 441.74C315.985 440.884 318.705 440.427 320.852 441.304C321.828 441.702 322.607 442.34 322.018 443.404C321.467 444.263 320.742 444.997 319.892 445.561C319.338 445.978 318.759 446.36 318.158 446.705C318.028 446.784 317.949 446.925 317.949 447.077C317.949 447.23 318.028 447.371 318.158 447.45C318.738 447.835 319.245 448.319 319.655 448.881C320.544 449.957 320.574 451.503 319.73 452.613C319.412 453.07 320.16 453.502 320.475 453.049C322.089 450.729 320.745 448.101 318.594 446.705V447.45C320.134 446.576 321.979 445.363 322.811 443.752C323.356 442.856 323.109 441.692 322.249 441.093C320.835 440.039 318.883 439.878 317.186 440.062C315.977 440.179 314.79 440.464 313.659 440.908L314.146 441.542C314.767 440.315 315.281 439.038 315.682 437.723C316.274 435.811 316.818 433.437 315.946 431.526C315.06 429.736 312.904 428.986 311.099 429.84C309.224 430.692 307.974 432.673 307.053 434.429C306.342 435.769 305.756 437.172 305.302 438.62C305.139 439.152 305.972 439.38 306.135 438.849L306.135 438.849Z" fill="black"/>
<path d="M169.184 154.043C179.164 151.561 189.742 154.542 196.557 159.755L243.601 195.742L289.301 213.307C286.813 216.758 284.028 222.072 281.628 228.257C280.093 232.211 279.158 247.807 278.378 251.137L231.72 237.335C226.824 235.901 222.169 233.745 217.908 230.94L174.379 189.842L149.66 159.694L169.184 154.043Z" fill="white"/>
<path d="M169.414 154.875C178.711 152.715 188.487 154.774 196.122 160.501C197.759 161.745 199.388 162.999 201.021 164.248L212.489 173.021L226.265 183.559L237.942 192.492L241.608 195.296C242.099 195.719 242.614 196.113 243.151 196.476C243.672 196.73 244.212 196.942 244.766 197.11L249.239 198.83L263.75 204.407L279.342 210.4L288.628 213.969L289.071 214.139L288.556 212.871C286.59 215.693 284.884 218.685 283.457 221.813C282.22 224.433 280.864 227.146 280.25 229.995C279.193 234.903 278.853 239.984 278.325 244.968C278.184 246.962 277.924 248.945 277.546 250.908L278.608 250.305L268.065 247.186L247.391 241.07L232.765 236.744C229.352 235.769 226.041 234.468 222.878 232.858C221.365 232.144 219.918 231.299 218.553 230.332C218.506 230.295 218.442 230.252 218.388 230.207C218.056 229.93 217.752 229.607 217.438 229.309L206.658 219.132L190.741 204.103L177.92 191.998C176.991 191.121 176.043 190.261 175.132 189.366C174.61 188.806 174.117 188.219 173.657 187.606L161.79 173.133L150.873 159.819L150.27 159.084L149.89 160.526L167.011 155.571L169.414 154.875C170.478 154.567 170.026 152.901 168.955 153.211L151.833 158.167L149.431 158.862C149.139 158.95 148.914 159.182 148.837 159.477C148.759 159.771 148.84 160.084 149.05 160.304L157.194 170.237L170.408 186.353C171.817 188.194 173.341 189.943 174.973 191.589L185.996 201.996L201.937 217.047L214.632 229.034C215.491 229.845 216.331 230.685 217.213 231.47C217.493 231.702 217.791 231.91 218.104 232.094C219.512 232.992 220.961 233.819 222.452 234.577C225.35 236.046 228.376 237.247 231.491 238.167C235.043 239.22 238.595 240.271 242.148 241.319L262.898 247.458L277.409 251.75L278.149 251.969C278.608 252.091 279.08 251.823 279.211 251.366C279.548 249.651 279.785 247.917 279.921 246.174C280.201 243.61 280.453 241.043 280.743 238.48C281.015 236.081 281.296 233.675 281.744 231.301C282.241 228.669 283.312 226.258 284.418 223.825C285.962 220.29 287.847 216.913 290.046 213.742C290.177 213.51 290.195 213.231 290.094 212.984C289.994 212.737 289.786 212.549 289.53 212.474L282.92 209.934L268.048 204.218L252.596 198.279C249.749 197.184 246.907 196.075 244.053 194.995C243.984 194.969 243.913 194.945 243.846 194.916C243.848 194.916 244.065 195.086 243.995 194.965C243.904 194.806 243.579 194.647 243.436 194.537L240.593 192.362L229.862 184.153L216.161 173.673L203.831 164.241L197.239 159.198C191.208 154.657 183.848 152.23 176.299 152.293C173.824 152.315 171.359 152.623 168.955 153.211C167.876 153.474 168.333 155.139 169.414 154.875Z" fill="black"/>
<path d="M278.4 251.136C276.613 250.442 276.63 245.762 278.134 239.339L286.937 241.917C283.582 248.083 280.258 251.857 278.4 251.136Z" fill="black"/>
<path d="M278.63 250.304C278.864 250.402 278.428 250.127 278.606 250.274C278.559 250.237 278.516 250.194 278.479 250.146C278.4 250.035 278.591 250.317 278.452 250.11C278.303 249.902 278.198 249.666 278.144 249.416C277.951 248.656 277.868 247.873 277.896 247.09C277.97 244.55 278.33 242.027 278.967 239.568L277.906 240.171L286.709 242.749L286.193 241.481C284.94 243.929 283.415 246.228 281.647 248.333C281.11 248.984 280.481 249.553 279.78 250.022C279.563 250.172 279.321 250.28 279.064 250.341C279.039 250.348 278.835 250.375 278.959 250.363C279.082 250.352 278.885 250.361 278.861 250.361C278.631 250.353 279.044 250.395 278.821 250.361C278.756 250.348 278.692 250.329 278.631 250.304C277.583 249.928 277.132 251.596 278.172 251.968C279.838 252.565 281.542 250.975 282.571 249.879C284.645 247.67 286.239 244.997 287.684 242.352C287.814 242.12 287.832 241.841 287.732 241.594C287.631 241.347 287.424 241.16 287.168 241.085L278.364 238.506C277.905 238.385 277.433 238.653 277.303 239.109C276.658 241.888 276.075 244.804 276.178 247.672C276.235 249.276 276.506 251.27 278.171 251.968C278.631 252.092 279.104 251.823 279.233 251.365C279.348 250.907 279.082 250.44 278.63 250.304Z" fill="black"/>
<path d="M281.628 228.257C284.029 222.073 286.814 216.758 289.301 213.307L295.88 215.836L306.702 219.995L296.728 244.784L286.938 241.917L278.135 239.339C279.043 235.569 280.21 231.866 281.628 228.257Z" fill="#FC7F3A"/>
<path d="M282.46 228.486C284.459 223.358 286.828 218.232 290.046 213.743L289.072 214.139L303.334 219.621L306.473 220.827L305.87 219.766L302.505 228.129L297.136 241.473L295.896 244.554L296.957 243.952L282.326 239.667L278.364 238.506L278.967 239.568C279.877 235.798 281.044 232.096 282.461 228.486C282.861 227.449 281.193 227 280.796 228.027C279.38 231.637 278.212 235.34 277.303 239.109C277.186 239.567 277.452 240.036 277.906 240.171L292.734 244.513L296.499 245.616C296.956 245.729 297.423 245.465 297.56 245.013L300.925 236.65L306.295 223.306L307.534 220.224C307.652 219.766 307.386 219.297 306.932 219.163L293.605 214.041L289.531 212.475C289.154 212.376 288.757 212.537 288.556 212.871C285.25 217.483 282.848 222.761 280.796 228.027C280.392 229.063 282.061 229.512 282.46 228.486Z" fill="black"/>
<path d="M136.654 257.57L137.243 263.209C137.579 266.429 139.962 269.06 143.132 269.714L158.193 272.818L214.544 253.126C218.385 251.784 220.572 247.737 219.59 243.788L219.276 242.524L213.483 237.341" fill="black"/>
<path d="M135.791 257.571L136.352 262.944C136.669 265.985 138.352 268.717 141.21 269.985C142.579 270.593 144.12 270.797 145.578 271.097L152.475 272.519L157.629 273.582C158.074 273.682 158.539 273.64 158.958 273.463L165.586 271.147L177.354 267.035L191.247 262.18L204.055 257.704L212.763 254.661C213.383 254.444 214.003 254.23 214.622 254.012C216.806 253.287 218.627 251.747 219.704 249.713C220.499 248.174 220.82 246.435 220.626 244.714C220.539 244.09 220.413 243.472 220.249 242.863C220.206 242.499 220.062 242.153 219.833 241.866C218.463 240.461 216.873 239.219 215.41 237.91L214.093 236.731C213.267 235.993 212.042 237.209 212.872 237.952L216.775 241.443C217.328 242.031 217.93 242.571 218.576 243.055C218.845 243.218 218.391 242.917 218.447 242.769C218.399 242.896 218.582 243.312 218.616 243.449C218.785 244.043 218.897 244.652 218.95 245.268C219.112 248.375 217.23 251.226 214.308 252.296C213.911 252.439 213.511 252.575 213.112 252.714L205.579 255.347L193.651 259.515L180.081 264.257L167.792 268.551L159.659 271.393C159.109 271.538 158.571 271.726 158.05 271.956C157.795 272.097 158.748 272.072 158.185 271.937C157.587 271.794 156.977 271.688 156.375 271.564L144.195 269.053C143.766 268.965 143.332 268.888 142.909 268.773C141.346 268.348 139.994 267.36 139.114 265.999C137.926 264.143 137.959 261.804 137.737 259.681L137.517 257.571C137.403 256.477 135.675 256.465 135.791 257.571L135.791 257.571Z" fill="black"/>
<path d="M205.282 427.262L208.494 468.24L264.751 464.013C264.751 464.013 264.51 448.002 243.446 447.861C239.479 447.846 236.199 444.768 235.934 440.81C235.609 435.825 235.317 430.999 235.317 430.999" fill="#FC7F3A"/>
<path d="M204.419 427.262L205.508 441.159L207.233 463.159L207.631 468.24C207.637 468.714 208.02 469.097 208.494 469.103L214.103 468.681L227.505 467.674L243.781 466.452L257.802 465.398C260.084 465.227 262.374 465.097 264.654 464.883C264.686 464.88 264.718 464.879 264.75 464.876C265.223 464.867 265.605 464.486 265.614 464.013C265.557 460.61 264.005 457.093 261.943 454.459C259.815 451.83 257.003 449.837 253.817 448.7C251.679 447.927 249.453 447.425 247.191 447.206C244.687 446.933 242.048 447.339 239.829 445.917C238.726 445.205 237.857 444.186 237.329 442.984C236.661 441.459 236.726 439.73 236.622 438.101C236.472 435.734 236.324 433.367 236.18 430.999C236.114 429.896 234.387 429.888 234.454 430.999C234.573 432.957 234.694 434.915 234.818 436.873C234.998 439.714 234.852 442.716 236.582 445.14C238.055 447.203 240.366 448.506 242.893 448.7C244.199 448.803 245.512 448.766 246.82 448.894C248.025 449.01 249.221 449.205 250.4 449.478C253.857 450.28 257.151 451.836 259.632 454.419C261.28 456.154 262.509 458.244 263.221 460.529C263.49 461.393 263.69 462.277 263.82 463.172C263.779 462.891 263.832 463.281 263.846 463.414C263.856 463.521 263.866 463.628 263.874 463.736C263.88 463.828 263.886 463.921 263.888 464.013L264.751 463.15L259.142 463.572L245.74 464.578L229.464 465.801L215.443 466.855L210.783 467.205C210.05 467.211 209.317 467.266 208.591 467.369C208.559 467.374 208.526 467.376 208.494 467.377L209.357 468.24L208.268 454.343L206.543 432.343L206.145 427.262C206.059 426.162 204.332 426.153 204.419 427.262V427.262Z" fill="black"/>
<path d="M237.086 444.277C238.507 445.935 242.122 448.067 244.463 448.083C245.622 448.091 246.716 448.148 247.755 448.244L236.531 464.228L208.289 467.071L207.871 463.05C207.805 462.416 207.999 461.782 208.409 461.294C208.818 460.806 209.408 460.504 210.044 460.459L222.351 459.577C225.277 459.367 227.945 457.824 229.586 455.392L237.086 444.277Z" fill="white"/>
<path d="M236.475 444.887C237.828 446.325 239.481 447.447 241.317 448.173C242.195 448.568 243.13 448.822 244.086 448.926C245.304 449.033 246.534 448.998 247.754 449.107L247.009 447.808L237.184 461.8L235.785 463.792L236.53 463.364L226.99 464.325L211.782 465.856L208.289 466.207L209.152 467.07C209.019 465.793 208.876 464.515 208.753 463.237C208.681 462.488 208.87 461.742 209.637 461.425C209.927 461.33 210.231 461.284 210.537 461.286L219.39 460.652C220.355 460.583 221.321 460.517 222.286 460.444C224.539 460.29 226.685 459.426 228.417 457.976C229.368 457.116 230.192 456.125 230.866 455.034L233.17 451.62L237.831 444.712C238.454 443.789 236.959 442.924 236.341 443.841L232.333 449.78L229.762 453.591C229.269 454.39 228.72 455.153 228.117 455.873C226.607 457.53 224.521 458.548 222.286 458.718C221.283 458.794 220.279 458.862 219.276 458.934L210.457 459.566C209.874 459.574 209.299 459.7 208.766 459.934C207.607 460.528 206.916 461.756 207.008 463.055C207.104 464.395 207.287 465.734 207.426 467.07C207.47 467.497 207.787 467.984 208.289 467.933L215.533 467.204L229.111 465.837C231.57 465.59 234.085 465.471 236.528 465.091C237.073 465.006 237.275 464.663 237.558 464.261L238.623 462.745L242.169 457.695C244.235 454.753 246.42 451.863 248.38 448.85C248.418 448.792 248.46 448.736 248.5 448.679C248.91 448.095 248.345 447.434 247.755 447.381C246.607 447.278 245.463 447.273 244.315 447.216C243.507 447.145 242.718 446.935 241.982 446.594C240.356 445.945 238.893 444.945 237.696 443.666C236.961 442.83 235.744 444.055 236.475 444.887Z" fill="black"/>
<path d="M256.547 450.512C262.144 453.092 265.892 458.514 266.33 464.662L238.546 464.258L243.863 463.233L252.199 451.61C253.19 450.238 255.023 449.775 256.547 450.512Z" fill="white"/>
<path d="M256.111 451.257C259.124 452.659 261.643 454.939 263.339 457.796C264.369 459.6 265.058 461.578 265.372 463.631C265.379 463.676 265.385 463.72 265.391 463.765C265.409 463.892 265.365 463.551 265.389 463.754C265.398 463.828 265.407 463.902 265.415 463.977C265.428 464.096 265.439 464.216 265.448 464.336C265.456 464.444 265.464 464.553 265.466 464.661L266.329 463.798L256.915 463.661L241.986 463.444L238.545 463.394L238.775 465.09L243.489 464.181C243.951 464.171 244.383 463.953 244.666 463.587C244.93 463.228 245.186 462.863 245.445 462.501L252.007 453.351C252.303 452.938 252.588 452.511 252.898 452.108C253.641 451.112 254.973 450.759 256.111 451.257C257.117 451.706 257.996 450.219 256.982 449.767C255.025 448.827 252.675 449.438 251.425 451.213C250.939 451.875 250.467 452.548 249.989 453.216L244.552 460.798L243.118 462.798L243.633 462.401L238.316 463.425C237.339 463.614 237.597 465.107 238.545 465.121L247.96 465.257L262.888 465.474L266.329 465.524C266.803 465.519 267.186 465.136 267.192 464.661C267.122 460.58 265.026 456.362 262.228 453.492C260.708 451.956 258.933 450.695 256.982 449.767C255.986 449.284 255.11 450.772 256.111 451.257Z" fill="black"/>
<path d="M236.53 464.228L238.546 464.257L236.191 464.711L236.53 464.228Z" fill="white"/>
<path d="M236.53 465.091L238.294 465.117L238.545 465.121L238.316 463.425L236.259 463.822L235.962 463.879L236.936 465.147L237.275 464.664C237.453 464.361 237.429 463.98 237.215 463.702C237.001 463.424 236.639 463.303 236.301 463.396C236.089 463.465 235.906 463.605 235.785 463.793L235.446 464.276C235.368 464.407 235.327 464.558 235.328 464.711C235.33 464.901 235.395 465.085 235.513 465.234C235.729 465.506 236.084 465.627 236.421 465.543L238.478 465.147L238.775 465.09C238.992 465.03 239.177 464.887 239.291 464.693C239.383 464.525 239.419 464.332 239.393 464.143C239.336 463.717 238.975 463.398 238.545 463.394L236.782 463.369L236.53 463.365C236.056 463.369 235.674 463.754 235.674 464.228C235.674 464.702 236.056 465.087 236.53 465.091V465.091Z" fill="black"/>
<path d="M221.632 468.306C222.815 468.258 223.813 469.178 223.861 470.36L223.944 472.388L267.198 469.078C267.198 469.078 267.13 464.141 265.573 460.854L208.205 464.91L208.535 473.598L219.668 472.724L219.578 470.535C219.53 469.352 220.449 468.355 221.632 468.306Z" fill="white"/>
<path d="M221.632 469.169C223.331 469.169 223.034 471.229 223.081 472.388C223.086 472.863 223.469 473.246 223.944 473.251L238.64 472.127L261.88 470.348L267.197 469.941C267.67 469.932 268.052 469.551 268.06 469.078C268.079 466.103 267.486 463.156 266.318 460.419C266.167 460.15 265.881 459.986 265.573 459.991L259.84 460.397L246.147 461.365L229.593 462.535L215.279 463.547C212.956 463.711 210.625 463.831 208.306 464.04C208.272 464.043 208.239 464.044 208.205 464.047C207.731 464.054 207.349 464.436 207.342 464.91L207.672 473.599C207.677 474.073 208.06 474.457 208.535 474.462L219.667 473.587C220.141 473.58 220.523 473.198 220.53 472.724C220.485 471.617 219.958 469.306 221.632 469.169C222.731 469.08 222.741 467.353 221.632 467.443C220.02 467.52 218.744 468.834 218.715 470.448C218.701 471.204 218.773 471.969 218.804 472.724L219.667 471.861L208.535 472.736L209.398 473.599L209.068 464.91L208.205 465.773L213.937 465.368L227.631 464.4L244.185 463.23L258.499 462.218L263.236 461.883C263.984 461.882 264.731 461.829 265.472 461.725C265.505 461.72 265.539 461.718 265.573 461.718L264.828 461.29C265.922 463.658 266.294 466.484 266.335 469.078L267.198 468.215L252.501 469.34L229.262 471.118L223.944 471.525L224.807 472.388C224.777 471.657 224.785 470.914 224.71 470.185C224.551 468.611 223.214 467.42 221.632 467.443C221.168 467.46 220.8 467.841 220.799 468.306C220.799 468.771 221.167 469.153 221.632 469.169Z" fill="black"/>
<path d="M248.979 461.166C245.836 461.288 242.843 463.346 241.196 465.934C240.292 467.41 239.682 469.048 239.4 470.757C239.287 471.215 239.552 471.681 240.003 471.819C240.462 471.941 240.934 471.673 241.065 471.216C241.516 468.713 242.532 466.41 244.456 464.793C244.78 464.523 245.125 464.281 245.489 464.067C245.847 463.855 246.218 463.664 246.599 463.498C246.392 463.589 246.666 463.472 246.716 463.453C246.8 463.419 246.886 463.388 246.971 463.357C247.131 463.299 247.293 463.246 247.456 463.197C247.73 463.115 248.008 463.045 248.29 462.988C248.412 462.963 248.534 462.943 248.656 462.922C248.93 462.876 248.458 462.938 248.732 462.912C248.814 462.905 248.896 462.895 248.979 462.892C250.086 462.849 250.092 461.122 248.979 461.166L248.979 461.166Z" fill="black"/>
<path d="M133.462 397.994L109.536 431.415L155.302 464.403C155.302 464.403 165.427 451.997 149.401 438.327C146.375 435.762 145.847 431.294 148.192 428.095C151.154 424.072 154.038 420.191 154.038 420.191" fill="#FC7F3A"/>
<path d="M132.717 397.558L124.603 408.892L111.758 426.835L108.791 430.979C108.56 431.392 108.697 431.914 109.101 432.16L113.663 435.449L124.566 443.308L137.807 452.851L149.213 461.073L153.004 463.805C153.593 464.229 154.169 464.708 154.787 465.09C154.815 465.107 154.84 465.129 154.866 465.147C155.205 465.346 155.635 465.29 155.912 465.012C158.282 462.098 159.42 457.982 159.313 454.281C159.123 450.418 157.791 446.698 155.486 443.592C153.893 441.429 152.056 439.458 150.011 437.716C148.4 436.343 147.511 434.306 147.6 432.192C147.662 431.027 148.03 429.9 148.667 428.923C149.526 427.59 150.55 426.342 151.492 425.068C152.588 423.586 153.684 422.106 154.783 420.626C155.446 419.734 153.948 418.873 153.293 419.755C152.42 420.929 151.55 422.103 150.68 423.279C149.834 424.422 148.99 425.566 148.146 426.711C147.38 427.655 146.763 428.71 146.317 429.841C145.623 431.901 145.747 434.148 146.663 436.119C147.717 438.434 149.957 439.85 151.658 441.65C154.502 444.661 156.779 448.318 157.427 452.463C157.819 455.129 157.512 457.851 156.535 460.362C156.186 461.266 155.755 462.136 155.248 462.961C155.095 463.209 154.935 463.453 154.765 463.69C154.712 463.753 154.663 463.82 154.617 463.89C154.577 463.964 154.793 463.669 154.692 463.793L155.738 463.658L151.175 460.369L140.272 452.51L127.031 442.967L115.625 434.745L111.835 432.013C111.265 431.551 110.67 431.121 110.051 430.727C110.024 430.71 109.997 430.691 109.972 430.67L110.282 431.851L118.395 420.516L131.241 402.573L134.207 398.429C134.855 397.524 133.359 396.661 132.717 397.558H132.717Z" fill="black"/>
<path d="M146.843 431.489C146.862 433.673 148.255 437.632 150.036 439.151C150.918 439.903 151.718 440.651 152.451 441.394L133.572 446.397L110.133 430.389L112.402 427.043C112.76 426.515 113.316 426.156 113.944 426.046C114.571 425.936 115.217 426.085 115.732 426.459L125.717 433.709C128.091 435.432 131.126 435.969 133.947 435.165L146.843 431.489Z" fill="white"/>
<path d="M145.979 431.49C146.083 433.453 146.609 435.371 147.523 437.112C147.929 437.972 148.464 438.765 149.11 439.463C149.971 440.354 150.965 441.123 151.841 442.005L152.222 440.562L135.695 444.942L133.342 445.565L134.007 445.652L126.089 440.245L113.468 431.624L110.568 429.644L110.878 430.824C111.586 429.779 112.281 428.723 113.005 427.688C113.374 427.026 114.163 426.723 114.88 426.968C115.157 427.1 115.417 427.267 115.653 427.464L122.693 432.575C123.524 433.179 124.354 433.786 125.188 434.387C127.046 435.736 129.294 436.44 131.589 436.391C132.818 436.316 134.032 436.085 135.203 435.705L139.243 434.553L147.072 432.322C147.516 432.183 147.77 431.717 147.646 431.268C147.522 430.82 147.065 430.55 146.613 430.658L139.849 432.585L135.344 433.869C134.461 434.158 133.562 434.392 132.651 434.572C130.318 434.909 127.948 434.306 126.059 432.896C125.226 432.295 124.396 431.688 123.564 431.084L116.482 425.943C114.889 424.786 112.843 424.941 111.653 426.612C110.873 427.708 110.142 428.84 109.387 429.953C109.155 430.366 109.292 430.888 109.697 431.134L115.709 435.241L126.93 442.904L131.298 445.887C131.882 446.344 132.495 446.762 133.133 447.141C133.512 447.282 133.931 447.266 134.298 447.098L136.111 446.617L142.095 445.032C145.553 444.115 149.044 443.277 152.479 442.28C152.546 442.26 152.613 442.244 152.681 442.226C152.973 442.141 153.2 441.908 153.278 441.613C153.356 441.318 153.274 441.003 153.061 440.784C152.251 439.968 151.382 439.228 150.54 438.447C149.943 437.856 149.454 437.164 149.096 436.404C148.277 434.888 147.802 433.21 147.705 431.49C147.682 430.381 145.956 430.377 145.979 431.49Z" fill="black"/>
<path d="M157.719 448.791C160.34 454.368 159.717 460.93 156.093 465.915L135.095 447.718L139.823 450.358L153.685 446.831C155.327 446.419 157.028 447.245 157.719 448.791Z" fill="white"/>
<path d="M156.973 449.226C159.183 454.023 158.907 459.597 156.233 464.152C156.04 464.481 155.836 464.805 155.617 465.117C155.556 465.203 155.481 465.286 155.428 465.376C155.367 465.48 155.592 465.17 155.483 465.304H156.703L149.588 459.138L138.305 449.36L135.705 447.107L134.659 448.462L138.851 450.803C139.216 451.095 139.685 451.225 140.149 451.164C140.611 451.065 141.069 450.93 141.527 450.814L152.44 448.037C152.912 447.917 153.384 447.787 153.859 447.676C155.136 447.364 156.452 448.018 156.973 449.225C157.458 450.225 158.947 449.351 158.464 448.354C157.544 446.472 155.43 445.494 153.4 446.012C152.587 446.204 151.78 446.424 150.97 446.63L141.979 448.918L139.593 449.525L140.259 449.612L135.53 446.972C134.705 446.511 133.719 447.664 134.485 448.327L141.599 454.493L152.882 464.271L155.483 466.525C155.822 466.857 156.364 466.857 156.703 466.525C159.309 463.315 160.472 458.719 160.139 454.659C159.942 452.478 159.376 450.346 158.464 448.354C158.012 447.342 156.524 448.219 156.973 449.226Z" fill="black"/>
<path d="M133.571 446.397L135.094 447.717L133.001 446.548L133.571 446.397Z" fill="white"/>
<path d="M132.961 447.008L134.294 448.163L134.484 448.328L135.53 446.972L133.698 445.949L133.436 445.803L133.23 447.381L133.801 447.23C134.016 447.167 134.201 447.026 134.316 446.833C134.494 446.53 134.47 446.15 134.256 445.871C134.042 445.593 133.68 445.472 133.342 445.565L132.772 445.716C132.44 445.813 132.198 446.096 132.153 446.438C132.108 446.78 132.27 447.116 132.565 447.294L134.398 448.317L134.659 448.463C135.034 448.675 135.508 448.581 135.772 448.24C136.039 447.9 136.01 447.414 135.705 447.107L134.372 445.952L134.182 445.787C134.017 445.63 133.799 445.54 133.572 445.534C133.343 445.536 133.124 445.627 132.961 445.787C132.8 445.949 132.709 446.169 132.708 446.398C132.708 446.627 132.799 446.846 132.961 447.008Z" fill="black"/>
<path d="M119.547 439.925C120.483 440.65 120.654 441.996 119.93 442.932L118.688 444.538L153.914 469.854C153.914 469.854 157.041 466.033 157.966 462.516L111.46 428.682L106.118 435.543L115.199 442.041L116.54 440.309C117.264 439.373 118.611 439.201 119.547 439.925Z" fill="white"/>
<path d="M118.937 440.536C120.284 441.673 118.843 442.938 118.078 443.927C117.896 444.12 117.81 444.384 117.844 444.646C117.878 444.909 118.028 445.142 118.252 445.282L130.221 453.884L149.148 467.486L153.478 470.599C153.817 470.797 154.247 470.742 154.524 470.464C156.361 468.211 158.027 465.564 158.798 462.745C158.891 462.369 158.731 461.975 158.401 461.77L153.754 458.39L142.654 450.313L129.234 440.55L117.63 432.108L113.791 429.315C113.192 428.879 112.606 428.389 111.978 427.996C111.95 427.978 111.923 427.956 111.896 427.936C111.557 427.737 111.127 427.793 110.85 428.071L105.508 434.932C105.327 435.125 105.241 435.389 105.275 435.651C105.309 435.914 105.458 436.147 105.683 436.288L114.763 442.786C115.102 442.985 115.532 442.929 115.809 442.651C116.59 441.643 117.611 439.608 119.111 440.671C120.019 441.314 120.883 439.818 119.982 439.18C118.699 438.278 116.939 438.504 115.926 439.702C115.46 440.259 115.034 440.856 114.589 441.431L115.635 441.296L106.554 434.797L106.728 436.153L112.07 429.292L111.024 429.427L115.671 432.807L126.772 440.884L140.192 450.647L151.796 459.089L155.635 461.882C156.215 462.355 156.82 462.795 157.448 463.201C157.476 463.219 157.504 463.239 157.53 463.261L157.133 462.286C156.619 463.987 155.848 465.599 154.848 467.067C154.49 467.624 154.115 468.168 153.721 468.699C153.659 468.783 153.597 468.866 153.535 468.948C153.499 468.995 153.464 469.041 153.429 469.087C153.486 469.013 153.489 469.01 153.435 469.078C153.396 469.137 153.352 469.192 153.304 469.243L154.349 469.108L142.38 460.506L123.454 446.905L119.123 443.792L119.298 445.148C119.735 444.584 120.179 444.025 120.608 443.455C121.58 442.174 121.382 440.357 120.157 439.315C119.313 438.603 118.086 439.818 118.937 440.536Z" fill="black"/>
<path d="M145.123 452.12C143.887 451.2 142.445 450.597 140.922 450.363C137.401 449.785 134.138 451.12 131.443 453.342C130.585 454.049 131.812 455.264 132.663 454.563C134.908 452.712 137.777 451.51 140.717 452.072C141.547 452.224 142.349 452.495 143.1 452.879C143.338 453.001 143.57 453.134 143.795 453.28C143.893 453.343 144.275 453.628 143.903 453.34C144.246 453.662 144.78 453.662 145.123 453.34C145.458 453.002 145.458 452.458 145.123 452.12Z" fill="black"/>
<path d="M209.218 239.711L223.316 286.1C230.421 309.477 225.324 334.859 209.747 353.682L153.487 421.849L121.453 394.386C121.453 394.386 172.07 317.662 186.548 302.926L155.792 243.989L163.356 214.833" fill="#458DC9"/>
<path d="M208.386 239.94L212.076 252.084L218.873 274.448C220.11 278.517 221.365 282.58 222.582 286.654C229.494 309.773 224.359 334.818 208.906 353.351C206.63 356.109 204.354 358.867 202.077 361.625L188.94 377.542L173.645 396.075L160.35 412.184L153.212 420.833L152.877 421.239H154.097L143.257 411.945L126.052 397.195L122.063 393.775L122.198 394.821C123.899 392.244 125.607 389.671 127.324 387.105C131.569 380.741 135.839 374.394 140.133 368.063C145.629 359.961 151.175 351.893 156.771 343.858C162.216 336.058 167.717 328.294 173.383 320.652C177.418 315.212 181.471 309.7 186.055 304.702C186.417 304.307 186.784 303.919 187.158 303.536C187.428 303.255 187.482 302.831 187.293 302.49L176.906 282.586L160.345 250.851L156.537 243.554L156.624 244.219L163.257 218.651L164.188 215.063C164.467 213.987 162.803 213.528 162.524 214.604L157.323 234.652C156.561 237.587 155.731 240.513 155.036 243.464C154.795 244.493 155.616 245.516 156.08 246.406L165.616 264.679L178.348 289.077L183.215 298.402L184.843 301.522C185.09 302.081 185.373 302.624 185.691 303.147C185.733 303.216 185.77 303.288 185.803 303.362L185.938 302.316C181.51 306.834 177.711 312.023 173.918 317.068C168.312 324.526 162.897 332.128 157.537 339.764C151.854 347.86 146.236 356.002 140.683 364.188C136.132 370.878 131.609 377.587 127.114 384.316C125.67 386.477 124.23 388.639 122.792 390.804C122.135 391.793 121.356 392.772 120.794 393.82C120.77 393.865 120.736 393.907 120.708 393.95C120.511 394.289 120.567 394.718 120.843 394.996L131.683 404.29L148.888 419.04L152.877 422.46C153.216 422.791 153.758 422.791 154.097 422.46L159.154 416.332L171.483 401.394L186.752 382.894L200.84 365.824L209.421 355.426C214.688 349.183 218.952 342.158 222.06 334.604C226.893 322.474 228.428 309.28 226.508 296.364C225.621 290.383 223.786 284.678 222.035 278.916L215.402 257.091L210.321 240.374L210.05 239.481C209.728 238.421 208.061 238.873 208.386 239.94V239.94Z" fill="black"/>
<path d="M144.185 223.037L137.277 240.17C134.139 251.814 136.171 270.569 146.191 287.051L188.82 344.657C188.085 365.303 198.563 432.504 198.563 432.504L245.416 431.047L242.535 348.343C241.911 330.401 235.178 313.211 223.453 299.617L192.014 263.168C187.423 257.844 185.161 250.899 185.739 243.893L187.36 224.213" fill="#458DC9"/>
<path d="M143.353 222.807L140.171 230.698C138.951 233.725 137.599 236.73 136.5 239.803C135.878 241.82 135.491 243.9 135.344 246.005C135.029 249.009 134.97 252.034 135.165 255.048C135.612 262.011 137.099 268.868 139.576 275.39C140.912 278.947 142.524 282.394 144.396 285.7C144.806 286.465 145.263 287.204 145.762 287.914L148.837 292.07L161.582 309.292L176.838 329.908L187.071 343.736C187.336 344.164 187.636 344.57 187.968 344.949C188.228 345.196 187.854 344.996 187.951 344.849C187.837 345.023 187.931 345.64 187.928 345.847C187.922 346.224 187.92 346.602 187.92 346.98C187.923 350.678 188.139 354.376 188.404 358.063C189.101 367.779 190.203 377.467 191.389 387.134C192.556 396.654 193.827 406.161 195.199 415.654C195.976 421.09 196.779 426.521 197.609 431.949C197.649 432.21 197.69 432.472 197.731 432.733C197.834 433.107 198.175 433.367 198.563 433.367L214.375 432.875L239.599 432.091L245.416 431.91C245.89 431.904 246.273 431.521 246.279 431.047L245.942 421.362L245.154 398.73L244.253 372.881L243.568 353.214C243.357 347.156 243.052 341.152 241.841 335.181C239.087 321.781 232.949 309.308 224.013 298.949C220.519 294.89 217.021 290.835 213.519 286.782L197.359 268.046L192.96 262.946C189.537 259.064 187.354 254.245 186.693 249.112C186.279 245.641 186.747 242.131 187.032 238.667L188.025 226.617L188.223 224.213C188.314 223.106 186.588 223.112 186.497 224.213L184.929 243.24C184.394 248.876 185.59 254.542 188.356 259.481C189.719 261.701 191.295 263.783 193.061 265.698L207.328 282.24L221.408 298.564C223.319 300.78 225.204 303.009 226.919 305.384C231.203 311.306 234.634 317.801 237.112 324.677C240.11 333.024 241.44 341.659 241.747 350.488L242.326 367.11L243.208 392.412L244.054 416.725L244.53 430.392L244.553 431.047L245.416 430.184L229.604 430.676L204.38 431.46L198.563 431.641L199.395 432.274C198.803 428.478 198.241 424.677 197.685 420.876C196.396 412.063 195.178 403.241 194.031 394.409C192.744 384.43 191.546 374.434 190.647 364.412C190.273 360.25 189.948 356.08 189.767 351.905C189.694 350.216 189.645 348.525 189.646 346.834C189.647 346.015 189.897 344.833 189.485 344.113C188.735 342.968 187.921 341.868 187.045 340.816L181.899 333.862L167.38 314.242L153.182 295.055L148.621 288.892C147.95 287.984 147.224 287.1 146.644 286.13C139.607 274.339 135.595 259.913 137.056 246.138C137.195 244.128 137.572 242.142 138.181 240.221C138.606 239.056 139.111 237.914 139.575 236.763L144.094 225.556L145.018 223.266C145.433 222.236 143.764 221.788 143.353 222.807L143.353 222.807Z" fill="black"/>
<path d="M244.97 417.35L240.172 417.45L228.719 417.69L214.867 417.979L202.829 418.23C200.888 418.271 198.93 418.24 196.991 418.352C196.962 418.354 196.933 418.353 196.905 418.354C195.795 418.377 195.792 420.103 196.905 420.08L201.703 419.979L213.156 419.74L227.007 419.451L239.045 419.2C240.987 419.159 242.945 419.19 244.884 419.078C244.912 419.076 244.941 419.077 244.97 419.076C246.079 419.053 246.083 417.327 244.97 417.35V417.35Z" fill="black"/>
<path d="M162.239 411.374L150.894 402.015L132.842 387.123L128.738 383.738C127.888 383.037 126.66 384.251 127.518 384.959L138.863 394.317L156.915 409.209L161.018 412.594C161.869 413.296 163.097 412.081 162.239 411.373L162.239 411.374Z" fill="black"/>
<path d="M168.196 155.879L139.851 162.929C135.235 164.077 133.298 166.586 133.002 173.852C133.002 173.852 129.816 236.025 137.83 266.7C182.314 246.363 219.276 242.524 219.276 242.524L188.954 183.519" fill="white"/>
<path d="M167.966 155.046L160.465 156.912L146.612 160.358C144.08 160.988 141.506 161.53 139.002 162.264C136.638 162.957 134.605 164.325 133.538 166.606C132.473 168.88 132.251 171.443 132.135 173.919C132.053 175.665 131.981 177.413 131.919 179.16C131.777 183.156 131.674 187.153 131.609 191.151C131.515 196.672 131.492 202.195 131.537 207.717C131.593 214.041 131.746 220.364 132.039 226.681C132.337 233.113 132.775 239.542 133.459 245.945C134.034 251.756 134.922 257.53 136.119 263.245C136.388 264.479 136.68 265.707 136.997 266.93C137.073 267.185 137.261 267.392 137.507 267.492C137.754 267.592 138.033 267.575 138.265 267.445C146.403 263.729 154.692 260.373 163.132 257.378C170.32 254.824 177.595 252.534 184.956 250.507C190.774 248.907 196.637 247.484 202.545 246.238C206.49 245.411 210.454 244.669 214.437 244.051C215.085 243.95 215.733 243.853 216.382 243.76C216.651 243.722 216.919 243.684 217.187 243.648C217.26 243.638 217.578 243.595 217.444 243.613C217.314 243.63 217.622 243.589 217.693 243.58C218.199 243.514 218.704 243.455 219.21 243.394C219.232 243.392 219.253 243.389 219.275 243.387C219.581 243.38 219.861 243.213 220.013 242.947C220.165 242.682 220.168 242.356 220.02 242.088L217.012 236.234L209.757 222.116L201.007 205.089L193.42 190.324C192.203 187.956 191.09 185.485 189.75 183.183C189.731 183.151 189.716 183.117 189.699 183.084C189.191 182.095 187.701 182.968 188.209 183.955L191.217 189.809L198.472 203.928L207.222 220.955L214.809 235.719L217.286 240.539C217.641 241.334 218.039 242.109 218.479 242.86C218.498 242.892 218.515 242.926 218.53 242.96L219.275 241.661C217.872 241.807 216.473 242.012 215.078 242.219C211.336 242.775 207.613 243.449 203.905 244.199C198.214 245.349 192.561 246.676 186.949 248.179C179.682 250.113 172.492 252.309 165.378 254.767C156.993 257.66 148.74 260.905 140.62 264.502C139.542 264.98 138.466 265.464 137.394 265.955L138.661 266.471C137.325 261.142 136.332 255.732 135.689 250.276C134.9 244.055 134.386 237.8 134.019 231.541C133.647 225.195 133.433 218.84 133.324 212.485C133.226 206.734 133.21 200.982 133.278 195.23C133.326 190.785 133.418 186.34 133.554 181.896C133.629 179.465 133.716 177.034 133.828 174.604C133.976 171.404 134.023 167.237 136.865 165.139C138.008 164.391 139.288 163.876 140.631 163.625L144.508 162.66L157.804 159.353L167.893 156.844L168.425 156.711C169.502 156.443 169.046 154.778 167.966 155.047L167.966 155.046Z" fill="black"/>
<path d="M135.187 252.968L212.561 229.457L200.436 205.861L132.89 226.386C133.306 235.501 134.02 244.699 135.187 252.968Z" fill="#389B48"/>
<path d="M135.417 253.801L143.159 251.448L161.614 245.84L183.921 239.062L203.305 233.172C206.42 232.225 209.57 231.355 212.659 230.329C212.702 230.315 212.746 230.303 212.79 230.29C213.045 230.214 213.253 230.026 213.353 229.78C213.453 229.533 213.436 229.254 213.306 229.022L209.199 221.03L202.686 208.354L201.181 205.425C200.981 205.09 200.583 204.928 200.206 205.029L193.47 207.076L177.299 211.989L157.874 217.892L140.972 223.028C138.243 223.857 135.476 224.61 132.772 225.519C132.735 225.532 132.697 225.542 132.66 225.553C132.289 225.661 132.032 225.999 132.026 226.385C132.438 235.348 133.106 244.309 134.355 253.198C134.484 253.655 134.957 253.924 135.416 253.8C135.868 253.664 136.134 253.197 136.019 252.739C134.792 244.006 134.157 235.192 133.752 226.385L133.119 227.218L139.855 225.171L156.026 220.257L175.451 214.355L192.353 209.219L197.892 207.536C198.794 207.318 199.683 207.048 200.553 206.727C200.59 206.714 200.627 206.702 200.665 206.693L199.69 206.297L203.797 214.289L210.311 226.964L211.816 229.893L212.332 228.625L204.589 230.978L186.134 236.586L163.827 243.364L144.443 249.254C141.328 250.2 138.178 251.071 135.089 252.096C135.045 252.111 135.001 252.123 134.958 252.136C133.898 252.458 134.35 254.125 135.417 253.801Z" fill="black"/>
<path d="M289.806 242.757L294.436 244.254C297.327 245.188 300.489 244.718 302.984 242.982L303.054 242.933C305.775 241.606 309.024 242.024 311.319 243.997L312.692 245.177C315.338 248.482 318.553 248.563 320.435 245.844C322.108 247.377 327.476 246.051 328.8 243.053C335.633 244.725 336.26 239.635 336.26 239.635C345.602 241.167 343.051 233.778 343.051 233.778L332.526 218.252C329.245 215.134 324.494 214.115 320.222 215.614L306.663 219.993L300.157 217.48" fill="#FC7F3A"/>
<path d="M289.576 243.589L293.66 244.909C295.987 245.742 298.525 245.777 300.875 245.01C302.193 244.548 303.274 243.629 304.617 243.264C305.982 242.898 307.426 242.966 308.751 243.458C309.712 243.861 310.592 244.436 311.347 245.155C312.201 245.89 312.894 246.779 313.802 247.451C314.923 248.338 316.348 248.746 317.768 248.584C319.175 248.321 320.41 247.486 321.18 246.279L319.825 246.454C321.195 247.639 323.277 247.473 324.905 247.001C326.771 246.46 328.7 245.311 329.546 243.488L328.571 243.885C330.972 244.453 333.821 244.519 335.671 242.614C336.461 241.802 336.97 240.758 337.123 239.635L336.03 240.467C338.622 240.878 342.278 241.009 343.684 238.255C344.331 236.834 344.423 235.222 343.941 233.737C343.658 232.79 342.832 231.92 342.288 231.117L337.835 224.548L333.907 218.754C333.677 218.414 333.465 218.046 333.204 217.729C332.425 216.891 331.502 216.2 330.479 215.688C327.523 214.052 324.044 213.638 320.787 214.533C320.134 214.713 319.489 214.944 318.845 215.152L311.595 217.494L308.059 218.636L306.95 218.994C306.774 219.021 306.603 219.077 306.444 219.158C306.546 219.059 307.027 219.293 306.789 219.121C306.631 219.038 306.464 218.974 306.292 218.929L304.719 218.321L301.063 216.909L300.386 216.648C299.349 216.247 298.9 217.915 299.927 218.312L305.677 220.533C306.115 220.784 306.631 220.862 307.123 220.751C307.87 220.531 308.608 220.271 309.35 220.032L316.824 217.618C318.534 216.985 320.278 216.447 322.047 216.006C324.092 215.606 326.207 215.78 328.159 216.51C329.431 216.979 331.017 217.814 331.861 218.807C332.212 219.269 332.538 219.75 332.838 220.247L334.686 222.974C337.176 226.647 339.567 230.414 342.167 234.01C342.314 234.212 342.264 234.284 342.221 234.013C342.239 234.127 342.291 234.246 342.32 234.358C342.384 234.616 342.435 234.876 342.472 235.139C342.437 234.89 342.487 235.322 342.493 235.412C342.506 235.608 342.51 235.804 342.504 236C342.501 236.662 342.292 237.308 341.904 237.845C341.18 238.576 340.19 238.98 339.161 238.965C338.267 239.008 337.372 238.954 336.49 238.803C336.231 238.74 335.957 238.797 335.745 238.959C335.533 239.121 335.405 239.369 335.397 239.636C335.437 239.325 335.431 239.456 335.385 239.635C335.341 239.804 335.293 239.968 335.238 240.134C335.222 240.181 335.203 240.228 335.185 240.275C335.117 240.452 335.248 240.144 335.17 240.31C335.108 240.441 335.043 240.571 334.971 240.697C334.847 240.927 334.694 241.139 334.514 241.328C333.154 242.789 330.886 242.661 329.03 242.221C328.653 242.122 328.256 242.284 328.056 242.618C327.411 244.006 326.013 244.854 324.593 245.293C323.589 245.604 321.861 245.939 321.045 245.234C320.853 245.051 320.589 244.964 320.326 244.998C320.063 245.032 319.829 245.183 319.69 245.408C319.12 246.308 318.146 246.871 317.082 246.916C315.839 246.908 314.739 246.121 313.911 245.261C312.52 243.817 311.054 242.442 309.116 241.761C307.774 241.303 306.339 241.189 304.942 241.43C304.271 241.545 303.616 241.743 302.993 242.018C302.435 242.261 301.957 242.641 301.414 242.918C299.207 243.995 296.659 244.14 294.345 243.318L290.036 241.925C288.976 241.583 288.522 243.249 289.577 243.59L289.576 243.589Z" fill="black"/>
<path fill-rule="evenodd" clip-rule="evenodd" d="M147.814 304.514C148.261 304.792 148.705 305.074 149.139 305.367C155.623 309.737 161.36 315.164 165.174 322.088C171.483 333.542 173.705 347.461 169.719 360.099C165.94 372.084 158.063 382.969 146.805 388.965C135.295 395.094 121.485 397.279 108.889 393.173C102.295 391.116 96.1772 387.764 90.8931 383.315C88.999 381.7 87.2379 379.936 85.6267 378.038C82.4936 378.897 79.2839 379.447 76.0435 379.681C72.6907 379.847 69.3297 379.69 66.0068 379.213C63.7559 378.947 61.5347 378.472 59.372 377.794C48.5225 374.369 39.27 367.881 32.727 358.506C26.8368 350.065 23.5111 338.896 24.3205 328.596C24.4899 325.524 24.9116 322.471 25.5813 319.468C26.3481 316.519 27.3512 313.637 28.5807 310.849C30.6239 306.221 33.4037 301.955 36.8118 298.217C40.2347 294.375 44.2739 291.129 48.7635 288.615C50.6659 287.572 52.6293 286.644 54.643 285.837C54.3209 275.869 56.9981 265.736 62.6155 257.57C66.641 251.717 71.3822 246.633 77.4809 242.85C83.8564 238.895 90.715 236.756 98.0888 235.732C111.164 233.915 124.61 238.586 134.729 246.771C145.304 255.326 151.698 268.9 152.217 282.415C152.47 290.022 150.963 297.585 147.814 304.514ZM137.737 363.982C139.171 362.637 140.497 361.181 141.701 359.626C142.75 357.958 143.666 356.21 144.439 354.397C145.031 352.522 145.472 350.602 145.761 348.657C145.855 346.63 145.782 344.599 145.543 342.584C145.092 340.578 144.478 338.611 143.706 336.705C142.757 334.918 141.665 333.211 140.438 331.602C139.087 330.159 137.623 328.826 136.06 327.615C134.393 326.568 132.645 325.653 130.834 324.88C129.454 324.445 128.051 324.089 126.631 323.816C125.819 323.773 125.015 323.64 124.233 323.419C122.289 323.009 120.497 322.064 119.059 320.692C118.949 320.604 118.838 320.518 118.731 320.428C117.873 319.692 117.139 318.824 116.556 317.857C115.544 316.384 114.901 314.688 114.684 312.914C114.588 312.379 114.53 311.839 114.508 311.296C114.487 310.422 114.556 309.548 114.713 308.688C114.748 308.443 114.786 308.198 114.831 307.955C114.997 307.105 115.271 306.279 115.647 305.499C116.144 304.233 116.904 303.087 117.878 302.137C117.982 302.042 118.083 301.944 118.186 301.848C118.451 301.572 118.723 301.308 119.004 301.06C120.162 299.912 121.243 298.69 122.242 297.401C123.29 295.734 124.206 293.987 124.98 292.176C125.574 290.291 126.018 288.361 126.306 286.405C126.398 284.384 126.324 282.359 126.086 280.35C125.634 278.343 125.019 276.377 124.247 274.471C123.295 272.679 122.198 270.968 120.966 269.356C119.621 267.921 118.165 266.595 116.61 265.391C114.942 264.342 113.194 263.426 111.381 262.653C109.506 262.062 107.587 261.62 105.642 261.331C103.615 261.237 101.583 261.31 99.5685 261.549C97.5593 262 95.5905 262.616 93.6819 263.39C91.8897 264.341 90.1788 265.438 88.5667 266.67C87.1321 268.015 85.8062 269.472 84.6017 271.026C83.5528 272.694 82.6374 274.442 81.8639 276.255C81.2725 278.13 80.8306 280.049 80.5424 281.995C80.4477 284.031 80.5216 286.072 80.7634 288.096C81.0119 289.214 81.305 290.32 81.661 291.41C82.8669 295.231 82.1856 299.398 79.8255 302.636C77.3513 306.176 73.9788 307.736 69.7459 308.215C69.6443 308.226 69.543 308.239 69.4418 308.252C69.3836 308.26 69.3255 308.267 69.2673 308.275C67.2252 308.728 65.2242 309.35 63.285 310.134C61.4945 311.084 59.7853 312.181 58.1746 313.412C56.74 314.757 55.4142 316.213 54.2097 317.768C53.1608 319.436 52.2453 321.184 51.4718 322.997C50.8804 324.872 50.4386 326.791 50.1503 328.737C50.056 330.763 50.1288 332.795 50.368 334.81C50.8192 336.819 51.4347 338.788 52.2081 340.696C53.1593 342.488 54.2565 344.199 55.4886 345.811C56.8336 347.246 58.2901 348.572 59.8446 349.776C61.5126 350.825 63.261 351.741 65.0733 352.514C66.9487 353.106 68.868 353.547 70.8132 353.836C72.8385 353.93 74.8681 353.857 76.8814 353.619C78.9092 353.161 80.8957 352.538 82.8209 351.754L82.902 351.711C83.1501 351.581 83.3983 351.451 83.6441 351.315C86.6276 349.553 90.1505 348.937 93.5547 349.583C96.3355 350.098 100.251 352.583 101.542 355.192C102.602 357.335 103.865 359.37 105.315 361.27C106.666 362.714 108.129 364.048 109.691 365.26C111.353 366.305 113.095 367.218 114.901 367.991C116.785 368.587 118.713 369.031 120.668 369.321C122.688 369.414 124.713 369.342 126.722 369.105C128.736 368.654 130.709 368.037 132.622 367.262C134.414 366.311 136.125 365.214 137.737 363.982Z" fill="#FFC41F"/>
<path d="M149.574 304.622C149.138 304.33 148.695 304.047 148.249 303.769L148.559 304.95C153.575 293.918 154.423 281.442 150.948 269.832C147.743 259.147 140.996 249.871 131.818 243.531C122.331 237.024 110.53 233.418 99.0046 234.753C93.0016 235.408 87.1462 237.04 81.67 239.585C76.4016 242.095 71.6541 245.576 67.6764 249.846C63.6342 254.071 60.3317 258.947 57.9073 264.268C55.539 269.686 54.1599 275.484 53.8354 281.388C53.7509 282.87 53.7363 284.354 53.7802 285.838L54.4138 285.005C49.6883 286.863 45.2807 289.446 41.3491 292.659C29.4741 302.508 22.8281 317.3 23.3499 332.719C23.633 342.239 26.7101 351.465 32.198 359.248C37.3029 366.43 44.1806 372.168 52.1613 375.902C56.4813 377.998 61.1042 379.4 65.8603 380.058C68.5781 380.435 71.3185 380.625 74.0623 380.626C76.7309 380.571 79.3895 380.282 82.0076 379.763C83.3021 379.516 84.5843 379.215 85.8561 378.87L85.0166 378.649C88.8247 383.085 93.3937 386.805 98.5089 389.636C103.483 392.447 108.888 394.414 114.506 395.455C125.882 397.435 137.841 394.938 147.882 389.361C156.85 384.38 163.765 376.199 168.005 366.93C172.87 356.727 173.909 345.117 170.931 334.213C169.548 328.728 167.263 323.512 164.171 318.776C161.089 314.27 157.288 310.301 152.919 307.027C151.829 306.191 150.714 305.389 149.574 304.621C148.652 303.997 147.787 305.492 148.703 306.112C153.112 309.021 157.07 312.562 160.451 316.62C163.84 320.898 166.445 325.742 168.146 330.928C169.938 336.126 170.852 341.585 170.852 347.083C170.806 352.506 169.779 357.877 167.822 362.934C164.321 372.132 158.229 380.524 150.007 386.038C140.793 392.155 129.812 395.05 118.78 394.269C113.223 393.761 107.802 392.27 102.767 389.866C97.7462 387.567 93.1536 384.43 89.1858 380.59C88.1544 379.582 87.1745 378.524 86.237 377.428C86.0183 377.207 85.6968 377.122 85.3974 377.206C75.6004 379.878 65.2019 379.312 55.7532 375.591C47.8886 372.477 40.9469 367.411 35.5828 360.871C29.8608 353.816 26.293 345.262 25.3066 336.233C24.8546 331.492 25.0628 326.711 25.9254 322.028C28.654 307.421 38.0504 294.928 51.327 288.255C52.4891 287.683 53.671 287.154 54.8726 286.67C55.2408 286.557 55.4959 286.222 55.5062 285.838C55.3206 280.106 56.1446 274.387 57.9407 268.942C59.7852 263.573 62.5776 258.579 66.1853 254.196C69.6164 249.842 73.7909 246.129 78.5158 243.23C83.5375 240.275 89.0361 238.22 94.7643 237.155C100.343 236.011 106.089 235.938 111.695 236.937C117.136 237.969 122.367 239.902 127.172 242.656C147.162 254.003 156.241 277.975 148.784 299.717C148.282 301.198 147.71 302.652 147.069 304.079C146.842 304.492 146.978 305.01 147.378 305.26C147.824 305.537 148.266 305.82 148.703 306.112C149.63 306.731 150.495 305.236 149.574 304.622Z" fill="black"/>
<path d="M141.092 359.016C140.223 360.133 139.293 361.201 138.306 362.215C137.312 363.214 136.208 364.098 135.016 364.85C133.837 365.665 132.569 366.345 131.238 366.876C129.845 367.392 128.422 367.821 126.976 368.161C125.563 368.426 124.126 368.538 122.69 368.496C121.188 368.502 119.691 368.333 118.228 367.993C116.81 367.713 115.427 367.277 114.105 366.692C112.804 366.096 111.544 365.411 110.336 364.644C109.165 363.818 108.077 362.882 107.087 361.847C106.099 360.862 105.224 359.771 104.478 358.593C103.137 356.537 102.275 354.131 100.481 352.41C98.8167 350.804 96.7955 349.616 94.5832 348.943C92.1551 348.286 89.5959 348.287 87.1684 348.946C85.8635 349.302 84.6044 349.809 83.4164 350.456C82.1774 351.098 80.88 351.619 79.5418 352.014C78.1072 352.489 76.6218 352.793 75.1161 352.922C73.6412 353.074 72.155 353.083 70.6786 352.947C69.2595 352.743 67.8569 352.437 66.4816 352.032C65.0618 351.599 63.695 351.009 62.4068 350.272C61.1549 349.612 59.9802 348.815 58.9043 347.895C57.8225 347.026 56.8299 346.052 55.9412 344.986C55.0612 343.821 54.2599 342.598 53.5426 341.326C52.8736 340.094 52.3439 338.792 51.9634 337.443C51.4939 336.016 51.1923 334.539 51.0647 333.042C50.9119 331.566 50.9033 330.079 51.0391 328.601C51.2434 327.182 51.5492 325.779 51.9542 324.404C52.3866 322.984 52.977 321.617 53.7142 320.329C54.3745 319.077 55.1717 317.903 56.0911 316.827C56.9597 315.745 57.9339 314.752 58.9994 313.864C60.1313 313.009 61.3177 312.229 62.5509 311.528C63.8287 310.825 65.1829 310.27 66.587 309.875C67.9565 309.46 69.3553 309.148 70.7716 308.943C71.874 308.784 72.9578 308.516 74.0071 308.143C78.5412 306.453 81.884 302.546 82.8511 297.805C83.113 296.54 83.1844 295.242 83.0628 293.956C82.8726 292.614 82.5623 291.293 82.1357 290.007C81.3705 287.114 81.173 284.1 81.554 281.132C81.8043 279.721 82.1375 278.326 82.5519 276.954C83.0424 275.551 83.6834 274.206 84.4638 272.942C85.1444 271.758 85.952 270.651 86.8721 269.642C87.7963 268.547 88.8394 267.557 89.9824 266.692C91.1379 265.868 92.34 265.111 93.5827 264.425C94.8775 263.779 96.2398 263.278 97.6448 262.932C99.0943 262.514 100.588 262.268 102.095 262.2C103.566 262.081 105.045 262.129 106.505 262.342C107.916 262.593 109.311 262.926 110.682 263.34C112.047 263.817 113.356 264.437 114.588 265.192C115.811 265.887 116.954 266.715 117.995 267.661C119.09 268.585 120.08 269.628 120.945 270.771C121.769 271.927 122.526 273.129 123.212 274.371C123.857 275.665 124.357 277.026 124.703 278.429C125.463 281.271 125.672 284.232 125.318 287.152C125.064 288.612 124.722 290.055 124.294 291.474C123.817 292.838 123.196 294.147 122.441 295.379C121.73 296.629 120.881 297.795 119.91 298.855C118.981 299.891 117.949 300.81 116.981 301.806C115.134 303.704 114.175 306.384 113.803 308.954C113.415 311.605 113.802 314.311 114.916 316.746C116.087 319.131 117.881 321.154 120.107 322.602C121.161 323.329 122.337 323.858 123.58 324.164C125.013 324.496 126.469 324.631 127.899 324.968C129.301 325.273 130.666 325.733 131.967 326.338C133.323 326.933 134.615 327.663 135.824 328.519C136.913 329.371 137.947 330.292 138.92 331.276C139.901 332.292 140.765 333.415 141.497 334.624C142.308 335.852 142.975 337.169 143.485 338.55C143.993 339.901 144.393 341.29 144.683 342.705C144.902 344.171 144.988 345.654 144.938 347.136C144.905 348.63 144.699 350.115 144.326 351.563C144.036 352.891 143.603 354.184 143.034 355.42C142.413 356.714 141.719 357.973 140.957 359.19C140.367 360.135 141.859 361.003 142.447 360.061C143.253 358.775 143.982 357.441 144.63 356.069C145.824 353.321 146.512 350.381 146.661 347.389C146.681 345.868 146.606 344.348 146.436 342.836C146.211 341.374 145.834 339.94 145.311 338.557C144.852 337.169 144.244 335.834 143.497 334.578C142.767 333.28 141.92 332.05 140.967 330.905C139.98 329.826 138.914 328.821 137.779 327.898C136.658 326.978 135.443 326.179 134.154 325.514C132.863 324.786 131.5 324.196 130.085 323.753C129.35 323.543 128.608 323.355 127.86 323.189C127.122 323.026 126.393 322.971 125.65 322.851C124.277 322.664 122.948 322.233 121.727 321.577C119.34 320.236 117.444 318.167 116.315 315.673C115.251 313.082 115.076 310.211 115.817 307.51C116.175 306.186 116.761 304.935 117.547 303.812C118.331 302.708 119.456 301.86 120.385 300.883C121.457 299.831 122.417 298.669 123.247 297.418C124.017 296.158 124.711 294.853 125.326 293.512C125.914 292.16 126.356 290.75 126.645 289.305C126.993 287.858 127.182 286.376 127.208 284.888C127.235 283.371 127.149 281.854 126.949 280.35C126.68 278.856 126.273 277.391 125.732 275.973C125.234 274.555 124.579 273.197 123.781 271.924C123.063 270.665 122.215 269.485 121.252 268.402C120.271 267.382 119.233 266.419 118.142 265.518C117.009 264.61 115.784 263.824 114.486 263.173C113.162 262.446 111.764 261.865 110.315 261.437C108.895 261.043 107.451 260.736 105.993 260.517C104.445 260.352 102.884 260.353 101.336 260.519C99.8484 260.629 98.377 260.903 96.9491 261.336C95.5217 261.702 94.137 262.218 92.8181 262.875C91.5379 263.577 90.3002 264.353 89.1116 265.201C87.9343 266.068 86.8538 267.06 85.8888 268.159C84.8785 269.223 83.9837 270.391 83.2191 271.643C82.4745 272.919 81.806 274.237 81.2172 275.592C80.6831 276.96 80.2921 278.38 80.0503 279.828C79.7523 281.295 79.6163 282.79 79.6446 284.286C79.6191 285.842 79.7616 287.397 80.0696 288.923C80.4016 290.318 80.9275 291.67 81.2032 293.076C81.4625 294.414 81.4709 295.789 81.2279 297.13C80.7563 299.67 79.5281 302.008 77.7044 303.838C76.1068 305.393 74.1095 306.474 71.9344 306.962C70.6533 307.273 69.3382 307.353 68.0606 307.673C66.6006 308.038 65.1636 308.489 63.7574 309.025C62.4071 309.584 61.121 310.286 59.9215 311.121C58.7061 311.888 57.576 312.782 56.5504 313.789C55.5283 314.824 54.5674 315.918 53.6725 317.064C52.8172 318.258 52.0871 319.537 51.4939 320.881C50.2399 323.596 49.4834 326.514 49.2605 329.497C49.221 331.017 49.2755 332.539 49.4238 334.052C49.6095 335.525 49.9529 336.973 50.4481 338.373C50.8898 339.814 51.4893 341.203 52.2359 342.513C52.9795 343.817 53.8179 345.065 54.7445 346.247C55.6639 347.317 56.6776 348.303 57.7733 349.193C58.8655 350.133 60.0544 350.955 61.3199 351.645C62.5843 352.396 63.9232 353.015 65.315 353.491C66.7265 353.916 68.162 354.256 69.6138 354.511C71.1416 354.743 72.6904 354.806 74.232 354.699C75.777 354.648 77.3112 354.423 78.8057 354.028C80.2526 353.646 81.6712 353.165 83.0513 352.586C84.3199 352.038 85.4618 351.295 86.7867 350.86C89.2363 350.017 91.8872 349.956 94.3732 350.685C96.6016 351.396 98.5824 352.725 100.086 354.517C100.856 355.477 101.313 356.676 101.926 357.737C102.642 358.977 103.429 360.175 104.283 361.324C106.133 363.557 108.349 365.458 110.838 366.946C112.13 367.723 113.493 368.376 114.908 368.897C116.319 369.349 117.76 369.702 119.22 369.952C122.193 370.386 125.22 370.282 128.156 369.647C129.634 369.264 131.086 368.791 132.507 368.232C133.842 367.648 135.111 366.924 136.293 366.073C137.461 365.31 138.545 364.426 139.527 363.436C140.514 362.422 141.444 361.354 142.312 360.237C142.988 359.371 141.775 358.141 141.092 359.016Z" fill="black"/>
<path d="M124.169 299.181C124.634 299.165 125.003 298.784 125.003 298.318C125.003 297.853 124.634 297.471 124.169 297.455C123.704 297.471 123.335 297.853 123.335 298.318C123.335 298.784 123.704 299.165 124.169 299.181Z" fill="black"/>
<path d="M144.494 312.329L155.477 308.895L183.415 300.16L217.629 289.463L255.111 277.744L292.807 265.958L322.691 256.614L329.66 278.901L331.19 283.796C332.254 287.052 334.527 289.774 337.541 291.402C340.354 292.875 344.375 293.389 347.409 292.289C350.56 291.146 353.546 289.06 355.015 285.938C356.555 282.881 356.872 279.352 355.902 276.07L347.403 248.887L357.765 245.647L361.435 244.5L366.355 260.236L367.616 264.269C368.679 267.525 370.953 270.247 373.967 271.874C376.78 273.348 380.8 273.862 383.835 272.761C386.986 271.619 389.972 269.533 391.44 266.411C392.981 263.354 393.298 259.825 392.327 256.543L386.15 236.785C387.184 236.462 388.216 236.134 389.247 235.804C389.394 235.757 389.541 235.712 389.687 235.666C392.943 234.603 395.665 232.33 397.292 229.316C398.766 226.503 399.28 222.482 398.179 219.448C397.037 216.297 394.951 213.311 391.829 211.842C388.772 210.302 385.243 209.985 381.961 210.955L374.981 213.137L366.744 215.713C366.513 215.776 366.285 215.845 366.064 215.925L356.078 219.048L328.14 227.783L328.001 227.827C327.77 227.89 327.542 227.959 327.321 228.039L293.926 238.481L256.444 250.2L218.748 261.986L183.598 272.976L153.789 282.296L132.436 288.973" fill="#FFC41F"/>
<path d="M144.724 313.162L209.054 293.048L281.979 270.247L322.921 257.446L321.86 256.843L328.59 278.371C329.546 281.426 330.221 284.804 332.028 287.498C333.493 289.728 335.569 291.489 338.009 292.569C343.099 294.736 348.986 293.716 353.049 289.962C355.159 287.976 356.566 285.358 357.059 282.502C357.716 279.065 356.809 276.077 355.79 272.82L348.236 248.658L347.633 249.72L361.665 245.332L360.603 244.73L366.311 262.986C367.059 265.377 367.928 267.527 369.583 269.449C371.128 271.252 373.122 272.616 375.362 273.404C379.856 274.969 384.837 274.129 388.57 271.178C392.653 268.048 394.502 262.522 393.468 257.511C392.749 254.029 391.37 250.588 390.309 247.195L386.983 236.556L386.38 237.618C390.435 236.346 394.125 235.117 396.825 231.621C399.164 228.513 400.104 224.571 399.419 220.742C398.676 217.02 396.474 213.751 393.305 211.664C391.45 210.547 389.374 209.849 387.221 209.621C384.769 209.342 382.56 209.864 380.236 210.59L321.273 229.026L260.52 248.022L199.939 266.963L139.655 285.811L132.206 288.14C131.149 288.471 131.6 290.137 132.665 289.805L190.606 271.689L248.631 253.547L307.058 235.279L364.297 217.382L378.202 213.035C380.593 212.287 383.02 211.279 385.555 211.256C387.98 211.237 390.362 211.895 392.434 213.155C399.961 217.866 399.358 229.201 392 233.668C390.143 234.795 387.978 235.309 385.921 235.954C385.466 236.086 385.199 236.557 385.318 237.016L390.387 253.227C391.221 255.894 392.228 258.484 391.985 261.329C391.753 264.932 389.903 268.237 386.952 270.318C384.001 272.399 380.267 273.032 376.795 272.04C374.591 271.448 372.605 270.231 371.076 268.536C369.341 266.642 368.57 264.428 367.818 262.024L362.268 244.271C362.135 243.815 361.665 243.548 361.206 243.668L347.174 248.055C346.719 248.188 346.451 248.658 346.571 249.117L352.552 268.245C353.503 271.287 354.74 274.374 355.378 277.497C355.964 280.616 355.367 283.841 353.703 286.542C350.786 291.22 344.685 293.025 339.586 291.333C336.971 290.424 334.749 288.64 333.296 286.283C331.732 283.793 331.124 280.693 330.255 277.912L323.524 256.384C323.392 255.929 322.921 255.662 322.462 255.782L249.563 278.574L176.7 301.356L144.265 311.497C143.208 311.828 143.659 313.494 144.724 313.162L144.724 313.162Z" fill="black"/>
<path d="M319.863 224.25L329.471 229.326C330.131 229.675 330.621 230.279 330.827 230.997C331.033 231.715 330.937 232.485 330.562 233.131C329.93 234.22 328.639 234.74 327.429 234.392L317.146 231.431C317.146 231.431 309.89 239.516 300.396 234.626" fill="#FC7F3A"/>
<path d="M319.428 224.995L328.695 229.892C329.439 230.285 330.06 230.811 330.069 231.735C330.065 232.337 329.777 232.901 329.292 233.257C328.807 233.613 328.183 233.72 327.608 233.545C325.944 233.106 324.297 232.591 322.643 232.115L317.375 230.599C317.076 230.515 316.755 230.6 316.536 230.821C313.949 233.633 310.324 235.264 306.503 235.333C304.526 235.295 302.584 234.798 300.832 233.88C299.844 233.379 298.969 234.868 299.961 235.37C303.107 237.039 306.765 237.465 310.21 236.566C312.595 235.882 314.802 234.685 316.676 233.059C317.058 232.744 317.419 232.404 317.757 232.041L316.917 232.263C320.333 233.246 323.734 234.321 327.174 235.216C328.88 235.716 330.696 234.899 331.453 233.29C332.21 231.682 331.682 229.761 330.209 228.766C329.722 228.462 329.218 228.187 328.699 227.942L325.683 226.349L320.299 223.504C319.318 222.986 318.444 224.475 319.428 224.995L319.428 224.995Z" fill="black"/>
<path d="M190.668 248.105L193.05 256.228C193.269 256.977 193.514 257.719 193.783 258.452L198.108 270.233" fill="#458DC9"/>
<path d="M189.836 248.334C190.652 251.117 191.45 253.905 192.284 256.682C193.291 260.03 194.645 263.295 195.849 266.575L197.276 270.462C197.656 271.496 199.325 271.05 198.941 270.003L195.631 260.989C194.631 258.266 193.746 255.532 192.929 252.749L191.5 247.875C191.189 246.812 189.522 247.264 189.836 248.334Z" fill="black"/>
<path d="M147.486 205.274L95.3264 229.904L112.714 265.361C108.459 265.934 102.384 267.782 95.9176 270.637C92.3444 272.215 80.1897 283.025 77.427 284.694L55.2267 233.785C48.0115 218.624 59.4771 205.016 70.929 196.685L78.7111 191.808L124.028 167.479C129.107 164.752 134.507 162.668 140.102 161.277L161.45 155.967" fill="white"/>
<path d="M147.051 204.529L141.868 206.976L129.42 212.854L114.357 219.967L101.328 226.12L97.0293 228.15C96.3526 228.469 95.6371 228.752 94.9829 229.116C94.9536 229.132 94.9216 229.145 94.8913 229.159C94.4869 229.405 94.35 229.927 94.5817 230.34L100.447 242.3L109.826 261.426L111.969 265.797L112.485 264.529C109.051 265.062 105.679 265.936 102.418 267.138C100.397 267.845 98.4049 268.633 96.4373 269.477C95.5447 269.846 94.6868 270.294 93.8738 270.816C89.6332 273.595 85.7824 277.008 81.8559 280.203C80.3201 281.559 78.6952 282.81 76.992 283.949L78.1729 284.259L73.7536 274.124L64.6667 253.285L57.1696 236.094C56.7399 235.109 56.3241 234.116 55.8742 233.14C53.2792 227.498 53.2327 221.012 55.7465 215.333C58.1523 209.739 62.2994 205.02 66.8391 201.043C68.4133 199.599 70.0995 198.283 71.8819 197.106L76.3013 194.337C77.5182 193.575 78.7135 192.787 79.9783 192.108L85.5232 189.131L104.819 178.772L121.814 169.647C123.055 168.981 124.29 168.302 125.542 167.658C130.434 165.17 135.597 163.258 140.93 161.961L159.929 157.235L161.68 156.8C162.757 156.532 162.301 154.867 161.221 155.135L143.651 159.505C140.501 160.289 137.349 161.044 134.271 162.092C130.347 163.448 126.542 165.127 122.894 167.109L108.639 174.762L88.3097 185.677L80.9557 189.625C80.0471 190.113 79.113 190.571 78.2251 191.096C75.6679 192.607 73.1489 194.223 70.6559 195.838C68.6017 197.236 66.6621 198.796 64.8556 200.502C62.5122 202.609 60.3679 204.928 58.45 207.428C54.8205 212.196 52.1734 217.911 52.1162 223.993C52.1119 227.189 52.7731 230.352 54.0576 233.28C54.2813 233.801 54.5235 234.315 54.7504 234.836L60.8237 248.763L70.1721 270.2L76.3747 284.424L76.6825 285.13C76.9254 285.538 77.4512 285.676 77.8633 285.439C79.321 284.474 80.7144 283.415 82.0345 282.268C84.1027 280.598 86.1514 278.904 88.2224 277.238C90.1162 275.714 92.018 274.188 94.0152 272.801C96.2783 271.228 98.84 270.284 101.415 269.329C105.133 267.869 108.999 266.818 112.944 266.193C113.539 266.111 113.674 265.362 113.46 264.925L107.595 252.965L98.2158 233.84L96.0726 229.469L95.763 230.65L100.945 228.202L113.393 222.324L128.456 215.211L141.485 209.059L145.784 207.029C146.461 206.709 147.176 206.426 147.83 206.062C147.86 206.046 147.892 206.034 147.922 206.019C148.926 205.545 148.051 204.057 147.051 204.529L147.051 204.529Z" fill="black"/>
<path d="M77.4689 284.547C76.6627 282.722 80.2923 279.22 86.3168 275.582L91.1492 283.712C83.8571 286.007 78.3182 286.47 77.4689 284.547Z" fill="black"/>
<path d="M78.3002 284.318C78.2754 284.257 78.1921 283.937 78.2237 284.109C78.2163 284.056 78.2151 284.003 78.2203 283.951C78.2322 283.789 78.2048 283.993 78.222 283.89C78.2652 283.638 78.3545 283.397 78.4852 283.177C78.9269 282.433 79.478 281.759 80.1202 281.178C82.142 279.318 84.3664 277.691 86.7515 276.327L85.5706 276.017L90.4032 284.147L90.9189 282.879C88.0748 283.851 85.1317 284.506 82.1436 284.83C81.2339 284.937 80.3138 284.918 79.4094 284.773C79.1101 284.723 78.8207 284.625 78.5519 284.484C78.3803 284.388 78.4326 284.421 78.3464 284.328C78.2971 284.274 78.2408 284.205 78.3178 284.302C78.276 284.243 78.2409 284.179 78.2133 284.112C77.7358 283.109 76.2471 283.984 76.7228 284.983C77.5295 286.676 80.0779 286.673 81.6466 286.589C84.9543 286.413 88.2319 285.528 91.3779 284.544C91.6338 284.469 91.8416 284.281 91.9421 284.034C92.0426 283.787 92.0247 283.508 91.8936 283.276L87.0611 275.146C86.8162 274.74 86.2928 274.603 85.8803 274.836C83.2931 276.406 80.6668 278.125 78.5488 280.308C77.5178 281.371 75.9751 283.152 76.6359 284.777C76.7753 285.226 77.24 285.49 77.6975 285.379C78.1554 285.25 78.4241 284.777 78.3002 284.318Z" fill="black"/>
<path d="M95.9178 270.638C102.384 267.782 108.459 265.934 112.714 265.361L115.592 271.251L119.832 279.93L105.977 286.402L95.6231 291.239L91.1489 283.712L86.3164 275.582C89.4101 273.734 92.6169 272.083 95.9178 270.638Z" fill="#FC7F3A"/>
<path d="M96.354 271.383C101.619 269.066 107.217 266.982 112.944 266.194L111.97 265.797L117.759 277.647L119.087 280.366L119.397 279.185L108.871 284.102L100.604 287.964L95.1879 290.494L96.3687 290.803L88.945 278.315L87.0618 275.147L86.7522 276.327C89.847 274.482 93.0537 272.83 96.3537 271.383C97.3672 270.934 96.49 269.446 95.4825 269.893C92.1825 271.34 88.9758 272.991 85.881 274.837C85.4756 275.082 85.3384 275.605 85.5714 276.018C88.0172 280.133 90.463 284.247 92.9088 288.362L94.8782 291.675C95.1268 292.076 95.6458 292.212 96.0591 291.984L106.184 287.255L115.687 282.816L120.268 280.676C120.673 280.43 120.81 279.908 120.578 279.495C118.752 275.757 116.926 272.02 115.1 268.282L113.46 264.926C113.257 264.594 112.862 264.434 112.485 264.529C106.606 265.339 100.885 267.516 95.4828 269.893C94.4683 270.339 95.3457 271.827 96.354 271.383Z" fill="black"/>
<path d="M98.2551 235.876L89.4795 218.112L98.2551 235.876Z" fill="white"/>
<path d="M99.0007 235.44L91.3236 219.901L90.2251 217.677C89.7331 216.681 88.2438 217.555 88.7346 218.548L96.4117 234.088L97.5103 236.312C98.0023 237.307 99.4916 236.434 99.0007 235.44Z" fill="black"/>
<path d="M110.977 283.238L124.287 278.007C128.515 276.389 133.292 277.274 136.66 280.299L144.245 287.114C147.728 290.243 148.936 295.186 147.289 299.568C147.289 299.568 146.267 303.164 142.197 302.303C138.923 304.906 138.509 305.057 136.191 304.495C134.932 306.832 131.26 307.703 129.998 307.46C129.153 309.646 127.172 311.116 124.734 309.989L121.838 306.076C119.63 303.091 115.524 302.255 112.324 304.139C108.159 306.192 103.114 304.633 100.834 300.587L94.4902 289.333" fill="#FC7F3A"/>
<path d="M111.206 284.07L120.088 280.579L124.238 278.948C126.59 277.985 129.193 277.826 131.644 278.495C133.735 279.085 135.373 280.302 136.954 281.723L141.371 285.691C142.572 286.674 143.702 287.74 144.753 288.882C146.797 291.367 147.593 294.65 146.915 297.795C146.781 298.349 146.618 298.896 146.425 299.432C146.335 299.7 146.468 299.379 146.363 299.59C146.285 299.749 146.205 299.906 146.113 300.057C145.612 300.892 144.75 301.447 143.783 301.558C143.395 301.589 143.005 301.573 142.621 301.509C141.953 301.409 141.708 301.598 141.192 302.005C140.545 302.542 139.862 303.035 139.147 303.478C138.2 304.031 137.481 303.917 136.42 303.662C136.044 303.566 135.648 303.727 135.446 304.059C134.828 305.038 133.89 305.774 132.792 306.141C132.285 306.337 131.759 306.482 131.223 306.573C131.035 306.605 130.846 306.625 130.656 306.632C130.536 306.637 130.131 306.611 130.227 306.627C129.77 306.52 129.307 306.783 129.165 307.23C128.84 308.152 128.167 308.909 127.29 309.339C126.87 309.507 126.411 309.557 125.965 309.484C125.823 309.437 125.678 309.401 125.531 309.376L125.437 309.345C125.273 309.267 125.286 309.335 125.476 309.55C125.472 309.552 125.392 309.435 125.386 309.429C124.544 308.454 123.832 307.328 123.065 306.292C122.191 304.958 120.996 303.864 119.591 303.109C117.566 302.12 115.222 302.012 113.114 302.808C112.17 303.273 111.193 303.667 110.191 303.986C109.213 304.211 108.201 304.244 107.21 304.083C105.153 303.748 103.31 302.618 102.078 300.937C101.632 300.268 101.223 299.575 100.852 298.861L98.8589 295.326L95.2349 288.897C94.6894 287.93 93.1978 288.799 93.7445 289.769L97.0134 295.568C98.1108 297.515 99.1299 299.537 100.329 301.424C102.878 305.386 107.906 306.943 112.249 305.116C113.269 304.679 114.166 304.149 115.3 304.032C116.387 303.917 117.484 304.077 118.493 304.496C119.998 305.13 120.931 306.293 121.867 307.557L123.414 309.649C123.858 310.249 124.138 310.714 124.885 310.978C127.581 311.932 129.855 310.103 130.83 307.689L129.768 308.292C132.346 308.727 135.654 307.195 136.936 304.93L135.962 305.327C136.965 305.66 138.044 305.691 139.065 305.418C140.47 304.923 141.661 303.823 142.807 302.913L141.968 303.135C144.258 303.585 146.502 302.887 147.688 300.785C148.703 298.788 149.094 296.531 148.808 294.309C148.483 291.31 147.075 288.533 144.849 286.498C143.853 285.591 142.844 284.698 141.842 283.797C138.897 281.151 136.029 277.942 132.103 276.831C129.42 276.079 126.566 276.213 123.964 277.211C122.781 277.668 121.604 278.139 120.424 278.603L110.747 282.406C109.725 282.808 110.17 284.478 111.206 284.07V284.07Z" fill="black"/>
<path d="M176.265 152.282C178.07 159.505 175.881 167.141 170.525 172.312C165.169 177.482 157.46 179.399 150.306 177.341C143.152 175.282 137.641 169.56 135.853 162.334L176.265 152.282Z" fill="#FC7F3A"/>
<path d="M175.431 152.512C177.145 159.433 175.036 166.743 169.898 171.688C164.761 176.633 157.376 178.461 150.525 176.484C143.674 174.508 138.397 169.026 136.684 162.104L136.081 163.166L149.744 159.768L171.51 154.354L176.493 153.114C177.57 152.846 177.114 151.181 176.034 151.45L162.372 154.848L140.605 160.262L135.622 161.502C135.167 161.635 134.901 162.105 135.019 162.563C137.937 174.164 149.699 181.211 161.304 178.312C172.91 175.413 179.976 163.663 177.096 152.053C176.833 150.974 175.168 151.431 175.431 152.512Z" fill="black"/>
<path d="M146.543 162.753L142.736 140.97L162.527 144.456L165.888 158.588" fill="#FC7F3A"/>
<path d="M147.374 162.523L144.033 143.4L143.568 140.741L142.506 141.802L159.878 144.862L162.297 145.288L161.694 144.685L164.639 157.067L165.055 158.817C165.312 159.897 166.977 159.44 166.719 158.358L163.774 145.976L163.358 144.226C163.281 143.931 163.051 143.7 162.756 143.623L145.383 140.564L142.965 140.138C142.667 140.064 142.352 140.152 142.135 140.369C141.918 140.586 141.83 140.901 141.903 141.199L145.245 160.322L145.71 162.982C145.901 164.074 147.564 163.611 147.374 162.523H147.374Z" fill="black"/>
<path d="M144.043 148.492C131.841 142.375 133.472 133.472 131.718 127.589C130.699 124.173 133.809 115.715 133.809 115.715L169.384 110.068C169.384 110.068 191.457 146.731 156.244 147.634" fill="#FC7F3A"/>
<path d="M144.478 147.747C141.535 146.257 138.736 144.31 136.808 141.587C135.417 139.544 134.453 137.242 133.975 134.818C133.519 132.734 133.313 130.605 132.849 128.523C132.575 127.6 132.417 126.645 132.377 125.682C132.429 124.376 132.612 123.079 132.923 121.809C133.367 119.818 133.94 117.859 134.641 115.944L134.038 116.547L146.063 114.638L165.224 111.597L169.614 110.9L168.639 110.503C169.328 111.648 169.935 112.846 170.519 114.046C171.872 116.784 172.991 119.63 173.865 122.555C174.884 125.988 175.531 129.388 175.311 132.962C175.107 136.293 173.933 139.575 171.461 141.949C168.132 145.147 163.21 146.283 158.703 146.643C157.884 146.708 157.064 146.748 156.244 146.77C155.135 146.801 155.131 148.527 156.244 148.496C161.415 148.354 167.074 147.529 171.315 144.321C174.315 142.031 176.293 138.653 176.824 134.916C177.395 131.208 176.917 127.418 176 123.804C175.14 120.526 173.978 117.336 172.53 114.272C171.851 112.693 171.061 111.164 170.167 109.695C170.154 109.675 170.142 109.653 170.13 109.632C169.924 109.303 169.531 109.143 169.155 109.235L157.13 111.144L137.969 114.185L133.579 114.882C133.286 114.963 133.057 115.192 132.976 115.485C132.369 117.157 131.855 118.861 131.437 120.59C130.824 123.095 130.325 125.699 131.002 128.234C131.568 130.353 131.759 132.556 132.19 134.704C132.641 137.222 133.556 139.635 134.888 141.819C136.99 145.111 140.158 147.492 143.607 149.237C144.596 149.738 145.471 148.249 144.478 147.747V147.747Z" fill="black"/>
<path d="M160.439 119.745C159.62 119.468 158.757 119.347 157.894 119.389C155.979 119.452 154.154 120.218 152.768 121.542C151.954 122.301 153.177 123.519 153.989 122.762C154.589 122.196 155.295 121.754 156.066 121.46C156.436 121.335 156.815 121.238 157.2 121.171C157.467 121.121 157.039 121.183 157.303 121.156C157.383 121.148 157.464 121.14 157.544 121.133C157.711 121.12 157.878 121.113 158.045 121.112C158.33 121.112 158.615 121.127 158.898 121.157C158.949 121.162 159.153 121.203 158.906 121.157C158.961 121.167 159.016 121.174 159.071 121.183C159.177 121.201 159.282 121.221 159.387 121.244C159.588 121.285 159.786 121.34 159.98 121.409C160.439 121.531 160.912 121.263 161.042 120.806C161.158 120.348 160.892 119.88 160.439 119.744V119.745Z" fill="black"/>
<path d="M172.521 116.669C169.839 116.119 166.29 116.906 165.007 119.55C163.517 122.622 165.583 125.808 167.893 127.804C168.291 128.224 168.752 128.581 169.258 128.861C169.462 128.935 169.316 128.931 169.271 128.811C169.304 128.887 169.327 128.968 169.337 129.051C169.34 129.135 169.348 129.125 169.334 129.174C169.306 129.271 169.146 129.378 168.947 129.464C168.524 129.623 168.08 129.72 167.628 129.751C166.537 129.874 166.525 131.602 167.628 131.477C168.891 131.335 170.645 131.053 171.011 129.585C171.163 128.934 171.016 128.249 170.612 127.716C170.245 127.409 169.859 127.126 169.455 126.869C169.067 126.557 168.699 126.223 168.35 125.868C167.425 124.924 166.465 123.668 166.239 122.329C166.019 120.916 166.725 119.522 167.993 118.862C168.882 118.46 169.848 118.258 170.824 118.268C171.148 118.261 171.473 118.271 171.797 118.297C171.887 118.292 171.977 118.305 172.062 118.333C173.147 118.555 173.61 116.892 172.521 116.669V116.669Z" fill="black"/>
<circle cx="171.872" cy="123.364" r="1.26044" fill="black"/>
<path d="M173.516 122.966C173.348 122.27 172.761 121.755 172.05 121.679C171.338 121.602 170.655 121.982 170.344 122.627C170.034 123.272 170.162 124.043 170.666 124.552C171.169 125.061 171.938 125.198 172.587 124.895C173.312 124.551 173.698 123.748 173.516 122.966C173.451 122.738 173.214 122.603 172.985 122.665C172.758 122.733 172.626 122.967 172.683 123.196C172.688 123.215 172.703 123.331 172.692 123.219C172.694 123.242 172.697 123.265 172.698 123.288C172.702 123.344 172.699 123.4 172.697 123.457C172.693 123.568 172.72 123.367 172.696 123.475C172.691 123.497 172.687 123.518 172.682 123.54C172.674 123.572 172.665 123.604 172.655 123.636C172.648 123.659 172.608 123.752 172.652 123.655C172.63 123.705 172.604 123.754 172.576 123.801C172.565 123.82 172.552 123.837 172.54 123.856C172.486 123.948 172.6 123.793 172.529 123.873C172.493 123.915 172.455 123.954 172.414 123.992C172.398 124.007 172.381 124.021 172.364 124.035C172.444 123.967 172.351 124.042 172.33 124.055C172.282 124.086 172.232 124.11 172.182 124.136C172.124 124.166 172.278 124.109 172.174 124.138C172.146 124.146 172.119 124.156 172.091 124.164C172.063 124.171 172.034 124.176 172.005 124.184C171.899 124.213 172.066 124.183 172 124.187C171.937 124.192 171.875 124.194 171.812 124.192C171.79 124.191 171.68 124.175 171.794 124.194C171.772 124.19 171.75 124.187 171.728 124.182C171.674 124.171 171.622 124.154 171.569 124.138C171.468 124.106 171.624 124.168 171.565 124.138C171.541 124.126 171.516 124.115 171.492 124.102C171.468 124.089 171.444 124.075 171.421 124.06C171.401 124.048 171.305 123.974 171.388 124.042C171.345 124.008 171.305 123.971 171.266 123.932C171.251 123.916 171.237 123.899 171.222 123.883C171.148 123.806 171.265 123.956 171.208 123.865C171.178 123.818 171.147 123.771 171.122 123.721C171.111 123.701 171.102 123.68 171.092 123.66C171.137 123.756 171.089 123.64 171.082 123.618C171.067 123.567 171.056 123.516 171.045 123.464C171.068 123.57 171.046 123.464 171.045 123.441C171.043 123.418 171.042 123.396 171.042 123.373C171.042 123.337 171.06 123.178 171.041 123.287C171.052 123.221 171.067 123.156 171.087 123.093C171.088 123.09 171.123 122.987 171.1 123.052C171.077 123.116 171.116 123.019 171.119 123.014C171.144 122.965 171.174 122.92 171.202 122.873C171.255 122.783 171.161 122.916 171.204 122.868C171.222 122.848 171.239 122.826 171.258 122.806C171.273 122.79 171.288 122.775 171.304 122.759C171.32 122.744 171.433 122.657 171.343 122.72C171.389 122.688 171.436 122.658 171.485 122.631C171.504 122.62 171.525 122.61 171.545 122.6C171.641 122.551 171.488 122.614 171.552 122.597C171.609 122.582 171.663 122.561 171.72 122.548C171.746 122.543 171.826 122.533 171.726 122.544C171.76 122.54 171.795 122.537 171.829 122.536C171.863 122.535 171.897 122.535 171.93 122.536C171.953 122.538 172.059 122.555 171.949 122.534C172.014 122.546 172.079 122.561 172.142 122.58C172.164 122.587 172.184 122.595 172.205 122.602C172.099 122.566 172.228 122.615 172.251 122.627C172.299 122.653 172.344 122.683 172.39 122.714C172.302 122.655 172.389 122.714 172.405 122.729C172.43 122.75 172.453 122.773 172.476 122.797C172.499 122.821 172.52 122.846 172.542 122.871C172.495 122.817 172.53 122.856 172.553 122.891C172.59 122.948 172.623 123.007 172.65 123.069C172.643 123.053 172.622 122.987 172.645 123.062C172.658 123.106 172.673 123.15 172.684 123.196C172.749 123.424 172.985 123.558 173.215 123.497C173.441 123.43 173.574 123.196 173.516 122.966Z" fill="black"/>
<circle cx="160.185" cy="125.568" r="1.26044" fill="black"/>
<path d="M161.83 125.17C161.663 124.474 161.076 123.958 160.364 123.882C159.652 123.806 158.97 124.185 158.659 124.83C158.348 125.475 158.477 126.246 158.98 126.755C159.483 127.264 160.253 127.402 160.901 127.098C161.626 126.754 162.013 125.951 161.83 125.17C161.765 124.941 161.529 124.807 161.299 124.868C161.073 124.936 160.94 125.17 160.998 125.399C161.002 125.419 161.018 125.534 161.006 125.422C161.009 125.445 161.011 125.468 161.012 125.491C161.016 125.548 161.014 125.603 161.012 125.66C161.007 125.771 161.035 125.57 161.01 125.678C161.005 125.7 161.002 125.722 160.996 125.743C160.989 125.775 160.98 125.807 160.97 125.839C160.962 125.862 160.923 125.955 160.967 125.859C160.944 125.909 160.919 125.957 160.891 126.004C160.879 126.023 160.866 126.04 160.855 126.059C160.8 126.151 160.915 125.996 160.843 126.076C160.807 126.118 160.769 126.158 160.729 126.195C160.713 126.21 160.696 126.224 160.679 126.238C160.759 126.17 160.665 126.246 160.645 126.259C160.597 126.289 160.547 126.313 160.497 126.339C160.439 126.369 160.593 126.312 160.489 126.341C160.461 126.349 160.434 126.359 160.406 126.367C160.378 126.374 160.348 126.379 160.32 126.387C160.214 126.416 160.381 126.386 160.314 126.39C160.252 126.395 160.19 126.397 160.127 126.395C160.105 126.394 159.995 126.378 160.108 126.397C160.086 126.394 160.065 126.39 160.043 126.385C159.989 126.374 159.937 126.357 159.884 126.341C159.783 126.31 159.939 126.371 159.88 126.341C159.856 126.329 159.831 126.318 159.807 126.305C159.782 126.292 159.759 126.278 159.736 126.263C159.715 126.251 159.62 126.177 159.703 126.246C159.66 126.211 159.619 126.174 159.581 126.135C159.566 126.119 159.552 126.102 159.537 126.086C159.462 126.009 159.579 126.159 159.523 126.068C159.493 126.021 159.462 125.974 159.437 125.924C159.426 125.904 159.417 125.883 159.407 125.863C159.452 125.959 159.403 125.843 159.397 125.821C159.381 125.77 159.371 125.719 159.36 125.667C159.382 125.773 159.36 125.667 159.359 125.644C159.358 125.621 159.357 125.599 159.357 125.576C159.356 125.54 159.374 125.381 159.356 125.49C159.367 125.424 159.382 125.36 159.402 125.296C159.403 125.293 159.437 125.19 159.414 125.255C159.392 125.319 159.431 125.222 159.433 125.217C159.458 125.168 159.488 125.123 159.517 125.076C159.57 124.986 159.475 125.119 159.518 125.071C159.536 125.051 159.553 125.029 159.572 125.009C159.587 124.994 159.603 124.978 159.618 124.962C159.634 124.947 159.747 124.86 159.658 124.923C159.703 124.891 159.75 124.861 159.799 124.834C159.819 124.823 159.839 124.813 159.859 124.803C159.955 124.754 159.803 124.817 159.867 124.8C159.923 124.785 159.977 124.764 160.035 124.752C160.06 124.746 160.14 124.736 160.04 124.747C160.074 124.743 160.109 124.74 160.143 124.739C160.177 124.738 160.211 124.738 160.245 124.74C160.267 124.741 160.373 124.758 160.264 124.738C160.329 124.749 160.393 124.764 160.457 124.783C160.478 124.79 160.498 124.798 160.519 124.805C160.413 124.769 160.543 124.818 160.565 124.83C160.614 124.856 160.659 124.887 160.704 124.917C160.617 124.859 160.703 124.917 160.719 124.932C160.744 124.954 160.768 124.977 160.791 125C160.814 125.024 160.835 125.049 160.857 125.074C160.809 125.019 160.844 125.059 160.868 125.094C160.905 125.151 160.937 125.21 160.965 125.272C160.958 125.256 160.936 125.19 160.959 125.265C160.973 125.309 160.987 125.353 160.998 125.399C161.063 125.627 161.299 125.761 161.529 125.7C161.755 125.633 161.888 125.399 161.83 125.17Z" fill="black"/>
<path d="M130.173 109.806C130.173 109.806 121.852 110.323 122.833 122.502C123.071 125.453 124.628 128.848 126.598 132.062C130.869 138.972 136.883 144.637 144.036 148.488L144.044 148.492L142.754 136.634C140.839 135.645 137.504 131.114 136.965 128.255C136.151 123.937 138.278 122.484 141.294 121.915C142.392 121.708 143.675 122.251 144.901 123.225C147.796 125.706 147.933 131.449 147.933 131.449C147.933 131.449 151.423 159.728 168.745 156.725C185.814 153.771 176.389 130.293 176.389 130.293C176.389 130.293 174.927 133.377 169.029 130.777C162.385 129.51 158.474 137.126 156.01 137.148C149.824 139.749 149.507 117.473 149.507 117.473C155.304 116.929 161.031 115.791 166.595 114.077C173.39 111.859 174.16 102.551 167.863 99.1691C159.305 94.5724 145.45 92.2204 130.173 109.806Z" fill="black"/>
<path d="M130.173 108.943C126.652 109.172 123.844 112.048 122.711 115.214C121.336 119.055 121.676 123.573 123.189 127.305C125.131 131.878 127.873 136.067 131.288 139.675C134.838 143.522 139.001 146.753 143.608 149.238C144.129 149.518 144.981 149.18 144.906 148.492L143.803 138.343C143.744 137.8 143.689 137.256 143.625 136.714C143.589 136.299 143.335 135.935 142.959 135.757C142.485 135.44 142.053 135.066 141.672 134.642C139.716 132.604 137.781 129.767 137.66 126.858C137.611 125.686 137.867 124.504 138.843 123.759C139.791 123.041 140.966 122.689 142.153 122.765C145.169 123.282 146.35 126.647 146.824 129.251C146.985 130.137 147.007 131.031 147.133 131.92C147.251 132.748 147.398 133.572 147.561 134.392C148.204 137.716 149.166 140.97 150.435 144.108C151.974 147.855 154.028 151.577 157.12 154.271C160.355 157.133 164.728 158.345 168.974 157.558C171.311 157.195 173.514 156.235 175.369 154.769C176.909 153.466 178.082 151.785 178.775 149.891C180.194 146.202 180.016 142.033 179.396 138.198C178.972 135.561 178.295 132.971 177.373 130.464C177.324 130.33 177.274 130.196 177.221 130.064C176.974 129.448 176.001 129.119 175.643 129.858C175.614 129.916 175.58 129.972 175.542 130.025C175.43 130.19 175.689 129.877 175.526 130.048C175.448 130.128 175.374 130.209 175.294 130.287C175.247 130.332 175.198 130.375 175.146 130.415C175.172 130.394 175.285 130.315 175.149 130.408C175.039 130.483 174.926 130.552 174.809 130.615C174.484 130.773 174.136 130.878 173.778 130.925C172.688 131.012 171.593 130.853 170.573 130.459C169.858 130.157 169.11 129.941 168.345 129.813C167.753 129.754 167.156 129.762 166.565 129.835C164.312 130.108 162.365 131.247 160.62 132.642C159.281 133.714 158.078 135.151 156.653 136.021C156.473 136.156 156.264 136.247 156.043 136.287C155.828 136.341 156.176 136.26 156.042 136.284C155.93 136.305 155.819 136.316 155.71 136.345C155.572 136.382 155.437 136.435 155.299 136.472C155.059 136.537 155.377 136.495 155.135 136.495C155.074 136.495 154.76 136.476 154.874 136.492C154.721 136.463 154.574 136.409 154.438 136.333C154.285 136.256 154.148 136.152 154.032 136.025C153.863 135.875 153.715 135.703 153.593 135.512C153.258 135.003 152.972 134.463 152.742 133.899C151.53 130.862 151.105 127.488 150.783 124.255C150.559 122.004 150.403 119.736 150.37 117.473L149.507 118.336C152.109 118.116 154.697 117.756 157.261 117.259C158.995 116.941 160.722 116.577 162.434 116.154C164.185 115.777 165.904 115.266 167.576 114.625C169.817 113.644 171.567 111.8 172.43 109.511C173.293 107.222 173.196 104.682 172.162 102.466C171.135 100.242 169.251 98.8513 167.103 97.8152C165.314 96.9418 163.44 96.2549 161.51 95.7655C156.99 94.6445 152.25 94.7817 147.803 96.1624C140.526 98.4222 134.493 103.542 129.562 109.196C128.835 110.03 130.051 111.256 130.783 110.417C137.848 102.316 147.739 95.1579 159.055 97.018C160.929 97.3312 162.764 97.8456 164.529 98.5525C166.328 99.2682 168.246 100.111 169.549 101.586C172.399 104.809 171.655 110.189 168.003 112.475C166.597 113.355 164.891 113.724 163.306 114.148C161.431 114.649 159.536 115.072 157.631 115.439C154.947 115.986 152.235 116.377 149.506 116.61C149.034 116.619 148.652 117 148.643 117.473C148.673 119.491 148.806 121.512 148.987 123.521C149.301 126.99 149.709 130.595 150.9 133.89C151.355 135.149 151.946 136.518 152.991 137.407C153.425 137.796 153.957 138.061 154.53 138.173C154.87 138.232 155.218 138.232 155.559 138.172C155.671 138.155 155.783 138.132 155.893 138.103C155.963 138.083 156.03 138.057 156.099 138.036C156.2 138.007 156.192 137.998 156.074 138.01C156.173 138.002 156.271 137.99 156.369 137.973C157.9 137.717 159.163 136.221 160.254 135.232C161.821 133.81 163.519 132.384 165.589 131.784C166.215 131.598 166.865 131.502 167.518 131.498C168.304 131.524 169.079 131.698 169.8 132.013C171.169 132.565 172.652 132.769 174.119 132.607C175.25 132.439 176.603 131.825 177.134 130.729L175.556 130.523C176.117 131.969 176.584 133.45 176.953 134.956C177.796 138.009 178.182 141.17 178.1 144.336C177.962 147.592 177.037 150.946 174.543 153.209C171.819 155.682 167.473 156.592 163.915 155.864C156.989 154.448 153.236 147.212 151.145 141.107C150.267 138.532 149.579 135.896 149.088 133.219C148.975 132.604 148.877 131.987 148.784 131.368C148.813 131.557 148.801 131.529 148.79 131.303C148.749 130.57 148.667 129.84 148.544 129.116C148.177 126.876 147.417 124.44 145.74 122.824C144.655 121.778 143.017 120.885 141.469 121.026C140.36 121.135 139.288 121.481 138.325 122.04C136.018 123.408 135.651 126.037 136.133 128.486C136.628 131.004 138.294 133.409 139.949 135.312C140.61 136.136 141.412 136.837 142.318 137.38L141.89 136.635L143.019 147.017L143.18 148.493L144.479 147.747C136.544 143.508 130.063 136.988 125.872 129.028C124.846 127.039 123.912 124.853 123.705 122.6C123.502 120.743 123.594 118.865 123.979 117.037C124.477 114.872 125.639 112.846 127.411 111.713C128.022 111.292 128.706 110.988 129.429 110.819C129.654 110.759 129.882 110.724 130.108 110.674C130.329 110.626 129.865 110.701 130.104 110.675C130.127 110.673 130.15 110.67 130.173 110.669C131.276 110.597 131.284 108.871 130.173 108.943Z" fill="black"/>
<path d="M165.642 135.55L167.503 135.659L167.77 135.675C168.247 135.675 168.633 135.289 168.633 134.812C168.623 134.34 168.243 133.959 167.77 133.949L165.91 133.84L165.642 133.824C165.166 133.824 164.779 134.21 164.779 134.687C164.79 135.159 165.17 135.54 165.642 135.55Z" fill="white"/>
<path d="M140.01 126.93C140.034 126.914 140.06 126.901 140.085 126.887C140.113 126.873 140.143 126.862 140.17 126.846C140.274 126.786 139.956 126.924 140.032 126.904C140.056 126.898 140.079 126.885 140.102 126.877C140.211 126.84 140.321 126.809 140.433 126.785C140.465 126.779 140.498 126.776 140.529 126.768C140.617 126.745 140.261 126.789 140.428 126.782C140.513 126.779 140.596 126.769 140.681 126.77C140.763 126.77 140.845 126.777 140.927 126.783C141.113 126.796 140.757 126.746 140.861 126.774C140.911 126.787 140.964 126.793 141.014 126.804C141.104 126.825 141.193 126.85 141.281 126.879C141.331 126.896 141.379 126.916 141.429 126.933C141.55 126.974 141.34 126.898 141.336 126.893C141.372 126.915 141.411 126.933 141.451 126.946C141.559 126.999 141.665 127.057 141.767 127.121C141.822 127.155 141.876 127.19 141.93 127.227C141.965 127.252 142.148 127.4 142.049 127.311C141.94 127.214 142.129 127.38 142.151 127.399C142.209 127.449 142.266 127.5 142.322 127.553C142.451 127.674 142.574 127.801 142.691 127.933C142.767 128.017 142.841 128.104 142.912 128.192C142.942 128.229 142.972 128.266 143.001 128.303C142.925 128.206 142.979 128.276 143.022 128.335C143.173 128.54 143.315 128.751 143.45 128.967C143.77 129.488 144.058 130.029 144.312 130.585C144.554 130.995 145.081 131.133 145.492 130.895C145.893 130.646 146.029 130.127 145.802 129.714C145.067 128.128 144.05 126.39 142.459 125.526C141.633 125.05 140.65 124.926 139.732 125.183C139.524 125.242 139.324 125.328 139.139 125.44C138.727 125.68 138.588 126.209 138.829 126.621C139.07 127.032 139.598 127.171 140.01 126.93L140.01 126.93Z" fill="black"/>
<circle cx="118.601" cy="108.027" r="14.9399" fill="black" stroke="black" stroke-width="1.0897"/>
<path d="M181.903 154.017C183.16 158.873 182.755 164.011 180.752 168.61C178.685 173.049 175.318 176.755 171.099 179.24C166.565 182.005 161.335 183.415 156.026 183.302C144.74 182.913 135.082 175.081 132.369 164.118C132.097 163.042 130.432 163.498 130.705 164.577C133.451 175.573 142.771 183.685 154.041 184.886C164.7 186.056 176.319 180.486 181.497 170.977C184.338 165.633 185.077 159.419 183.567 153.558C183.303 152.479 181.638 152.936 181.903 154.017L181.903 154.017Z" fill="black"/>
<path d="M443.782 208.487C443.783 202.135 439.285 196.673 433.051 195.456C426.817 194.239 420.594 197.609 418.207 203.495C415.82 209.381 417.937 216.133 423.257 219.603L420.247 244.812C420.024 246.681 420.611 248.555 421.86 249.962C423.109 251.369 424.901 252.174 426.782 252.174H434.234C436.116 252.174 437.907 251.369 439.156 249.962C440.405 248.555 440.992 246.681 440.769 244.812L437.759 219.603C441.518 217.155 443.784 212.972 443.782 208.487Z" fill="black"/>
<path d="M444.645 208.487C444.646 201.717 439.848 195.897 433.202 194.607C426.557 193.317 419.93 196.919 417.398 203.197C414.866 209.475 417.14 216.667 422.821 220.348L422.394 219.603L420.694 233.839L419.66 242.501C419.575 243.21 419.489 243.919 419.406 244.629C419.21 246.186 419.501 247.766 420.241 249.15C421.355 251.186 423.352 252.588 425.645 252.945C426.853 253.064 428.067 253.095 429.279 253.037H433.764C435.485 253.103 437.18 252.606 438.594 251.623C440.51 250.224 441.653 248.003 441.678 245.631C441.66 245.015 441.603 244.402 441.51 243.793L440.611 236.264L438.659 219.916L438.622 219.603L438.194 220.348C442.187 217.717 444.606 213.269 444.645 208.487C444.629 208.022 444.247 207.653 443.782 207.653C443.316 207.653 442.934 208.022 442.919 208.487C442.894 212.659 440.797 216.546 437.323 218.858C437.057 219.012 436.894 219.296 436.896 219.603L438.518 233.189L439.56 241.918C439.771 243.687 440.228 245.652 439.667 247.386C438.982 249.429 437.217 250.92 435.088 251.254C433.974 251.355 432.853 251.375 431.736 251.311H427.321C425.784 251.402 424.269 250.916 423.071 249.948C421.602 248.665 420.867 246.734 421.111 244.799C421.163 244.322 421.225 243.846 421.282 243.37L422.205 235.637L424.082 219.916L424.119 219.603C424.121 219.296 423.958 219.012 423.692 218.858C418.732 215.6 416.771 209.287 419.014 203.793C421.257 198.299 427.075 195.16 432.898 196.304C438.721 197.447 442.92 202.553 442.918 208.487C442.93 208.955 443.313 209.328 443.782 209.328C444.25 209.328 444.633 208.955 444.645 208.487Z" fill="black"/>
<path d="M406.99 159.541V127.511C406.99 122.313 406.88 117.163 408 112.042C412.723 90.3345 432.817 75.4993 454.953 77.3763C477.089 79.2533 494.398 97.26 495.398 119.453C495.468 121.018 495.444 122.587 495.444 124.153V159.541C495.46 160.006 495.841 160.375 496.307 160.375C496.772 160.375 497.154 160.006 497.17 159.541V121.789C497.182 118.059 496.755 114.342 495.898 110.712C490.585 88.6523 469.967 73.7722 447.356 75.68C424.746 77.5879 406.913 95.7124 405.371 118.351C405.246 120.168 405.263 121.986 405.263 123.806V159.541C405.279 160.006 405.661 160.375 406.127 160.375C406.592 160.375 406.974 160.006 406.99 159.541V159.541Z" fill="black"/>
</svg>
