<svg width="78" height="73" viewBox="0 0 78 73" fill="none" xmlns="http://www.w3.org/2000/svg">
<path d="M38.8259 52.0828C44.0324 52.0828 48.2684 47.8471 48.2684 42.6406C48.2684 37.4341 44.0324 33.1985 38.8259 33.1985C33.6194 33.1985 29.384 37.4341 29.384 42.6406C29.384 47.8471 33.6194 52.0828 38.8259 52.0828ZM38.8259 34.8434C43.1256 34.8434 46.6234 38.3413 46.6234 42.6406C46.6234 46.94 43.1256 50.4379 38.8259 50.4379C34.5266 50.4379 31.029 46.94 31.029 42.6406C31.029 38.3413 34.5266 34.8434 38.8259 34.8434Z" fill="black"/>
<path d="M13.5888 70.2196C16.7505 70.2196 19.6588 69.1194 21.9564 67.2854C26.6852 70.496 32.3878 72.3743 38.5212 72.3743C44.6843 72.3743 50.4114 70.4763 55.1535 67.2373C57.4608 69.1005 60.3931 70.2196 63.5831 70.2196C70.9944 70.2196 77.024 64.1899 77.024 56.7787C77.024 50.9342 73.2731 45.9516 68.0532 44.1048C68.0719 43.6748 68.086 43.2438 68.086 42.8094C68.086 31.3758 61.558 21.4447 52.0372 16.5283C52.1857 15.7299 52.2671 14.9078 52.2671 14.0669C52.2671 6.65564 46.2375 0.625702 38.8262 0.625702C31.415 0.625702 25.3853 6.65536 25.3853 14.0669C25.3853 14.8074 25.4482 15.5336 25.5642 16.2419C15.7396 21.0529 8.95686 31.1528 8.95686 42.8094C8.95686 43.2585 8.97104 43.7043 8.99079 44.1484C3.83741 46.0306 0.148193 50.9818 0.148193 56.7787C0.147637 64.1899 6.1773 70.2196 13.5888 70.2196ZM13.5888 44.9824C20.0932 44.9824 25.3848 50.2743 25.3848 56.7787C25.3848 63.2831 20.0932 68.5747 13.5888 68.5747C7.08444 68.5747 1.79229 63.2831 1.79229 56.7787C1.79229 50.2743 7.08444 44.9824 13.5888 44.9824ZM63.5828 68.5747C57.0785 68.5747 51.7863 63.2831 51.7863 56.7787C51.7863 50.2743 57.0785 44.9824 63.5828 44.9824C70.0872 44.9824 75.3788 50.2743 75.3788 56.7787C75.3788 63.2831 70.0872 68.5747 63.5828 68.5747ZM27.0297 14.0669C27.0297 7.56251 32.3213 2.27064 38.8257 2.27064C45.3301 2.27064 50.6217 7.56251 50.6217 14.0669C50.6217 20.5712 45.3301 25.8628 38.8257 25.8628C32.3213 25.8628 27.0297 20.5712 27.0297 14.0669ZM10.6012 42.8094C10.6012 31.9376 16.8514 22.504 25.9438 17.8949C27.5965 23.4465 32.7449 27.5078 38.826 27.5078C44.8083 27.5078 49.8883 23.578 51.6259 18.1652C60.4323 22.8672 66.4411 32.1481 66.4411 42.8094C66.4411 43.0886 66.4283 43.3645 66.42 43.6418C65.5048 43.4443 64.5562 43.3378 63.5831 43.3378C56.1716 43.3378 50.1419 49.3675 50.1419 56.779C50.1419 60.3923 51.578 63.6749 53.906 66.0927C49.4915 69.0196 44.2035 70.7296 38.5214 70.7296C32.8736 70.7296 27.6157 69.0388 23.2173 66.1441C25.5744 63.7216 27.0303 60.4179 27.0303 56.779C27.0303 49.3677 21.0006 43.3378 13.5894 43.3378C12.5702 43.3378 11.5785 43.4557 10.6235 43.6715C10.6143 43.3845 10.6012 43.0984 10.6012 42.8094Z" fill="black"/>
</svg>
