<svg width="115" height="98" viewBox="0 0 115 98" fill="none" xmlns="http://www.w3.org/2000/svg">
<path d="M57.4404 16.3637C59.6366 16.3637 61.4237 14.577 61.4237 12.3804C61.4237 10.1841 59.6366 8.39746 57.4404 8.39746C55.2441 8.39746 53.457 10.1841 53.457 12.3804C53.457 14.577 55.2441 16.3637 57.4404 16.3637ZM55.8241 12.3804C55.8241 11.4895 56.5487 10.765 57.44 10.765C58.3312 10.765 59.0558 11.4895 59.0558 12.3804C59.0558 13.2712 58.3312 13.9962 57.44 13.9962C56.5491 13.9966 55.8241 13.2716 55.8241 12.3804Z" fill="black"/>
<path d="M12.6483 97.4992C19.0758 97.4992 24.3712 92.575 24.9691 86.3013H45.1183C45.7166 92.575 51.0129 97.4992 57.4404 97.4992C63.8679 97.4992 69.1633 92.575 69.7612 86.3013H89.9104C90.5087 92.575 95.8041 97.4992 102.232 97.4992C109.059 97.4992 114.613 91.945 114.613 85.1179C114.613 78.2908 109.059 72.7363 102.232 72.7363C100.276 72.7363 98.4312 73.2046 96.7849 74.0158L87.2966 58.6075C90.2795 56.3446 92.2179 52.7738 92.2179 48.7496C92.2179 41.9225 86.6633 36.3679 79.8362 36.3679C77.8804 36.3679 76.0358 36.8363 74.3895 37.6475L64.9012 22.2392C67.8837 19.9763 69.8216 16.405 69.8216 12.3813C69.8216 5.55417 64.2674 0 57.4404 0C50.6133 0 45.0587 5.55417 45.0587 12.3813C45.0587 16.4054 46.997 19.9763 49.9799 22.2392L40.4912 37.6475C38.8445 36.8363 37.0004 36.3679 35.0441 36.3679C28.217 36.3679 22.6624 41.9225 22.6624 48.7496C22.6624 52.7738 24.6008 56.345 27.5837 58.6075L18.0954 74.0158C16.4487 73.2046 14.6045 72.7363 12.6483 72.7363C5.82119 72.7363 0.266602 78.2908 0.266602 85.1179C0.266602 91.945 5.82119 97.4992 12.6483 97.4992ZM22.6624 85.1179C22.6624 90.64 18.1699 95.1321 12.6487 95.1321C7.1266 95.1321 2.6341 90.6396 2.6341 85.1179C2.6341 79.5958 7.1266 75.1033 12.6487 75.1033C18.1699 75.1033 22.6624 79.5958 22.6624 85.1179ZM67.4541 85.1179C67.4541 90.64 62.9616 95.1321 57.4404 95.1321C51.9183 95.1321 47.4258 90.6396 47.4258 85.1179C47.4258 79.5958 51.9183 75.1033 57.4404 75.1033C62.962 75.1033 67.4541 79.5958 67.4541 85.1179ZM92.2174 85.1179C92.2174 79.5958 96.7099 75.1033 102.231 75.1033C107.753 75.1033 112.246 79.5958 112.246 85.1179C112.246 90.64 107.753 95.1321 102.231 95.1321C96.7099 95.1321 92.2174 90.6396 92.2174 85.1179ZM94.7708 75.2596C92.0845 77.2979 90.2474 80.3963 89.9104 83.9342H69.7612C69.4241 80.3967 67.587 77.2983 64.9008 75.2596L74.3895 59.8513C76.0358 60.6621 77.8804 61.1304 79.8362 61.1304C81.792 61.1304 83.6366 60.6621 85.2829 59.8508L94.7708 75.2596ZM79.8358 58.7633C74.3137 58.7633 69.8212 54.2708 69.8212 48.7492C69.8212 43.2271 74.3137 38.7346 79.8358 38.7346C85.3579 38.7346 89.8504 43.2271 89.8504 48.7492C89.8504 54.2713 85.3579 58.7633 79.8358 58.7633ZM67.4541 12.3804C67.4541 17.9025 62.9616 22.395 57.4404 22.395C51.9183 22.395 47.4258 17.9025 47.4258 12.3804C47.4258 6.85833 51.9183 2.36625 57.4404 2.36625C62.962 2.36625 67.4541 6.85875 67.4541 12.3804ZM51.9933 23.4829C53.6395 24.2942 55.4841 24.7625 57.4399 24.7625C59.3958 24.7625 61.2404 24.2942 62.8866 23.4829L72.3749 38.8913C69.392 41.1542 67.4537 44.7254 67.4537 48.7496C67.4537 52.7738 69.392 56.3446 72.3749 58.6075L62.8866 74.0158C61.2404 73.2046 59.3958 72.7363 57.4399 72.7363C55.4841 72.7363 53.6395 73.2046 51.9933 74.0158L42.5045 58.6075C45.4874 56.3446 47.4258 52.7738 47.4258 48.7496C47.4258 44.7254 45.4874 41.1546 42.5049 38.8917L51.9933 23.4829ZM35.0441 38.735C40.5662 38.735 45.0587 43.2275 45.0587 48.7496C45.0587 54.2717 40.5662 58.7638 35.0441 58.7638C29.522 58.7638 25.0295 54.2713 25.0295 48.7492C25.0295 43.2275 29.522 38.735 35.0441 38.735ZM29.5974 59.8517C31.2437 60.6625 33.0879 61.1308 35.0441 61.1308C36.9999 61.1308 38.8445 60.6625 40.4908 59.8513L49.9795 75.2596C47.2929 77.2979 45.4558 80.3963 45.1187 83.9342H24.9695C24.6324 80.3967 22.7954 77.2979 20.1091 75.2596L29.5974 59.8517Z" fill="black"/>
</svg>
