<svg width="115" height="115" viewBox="0 0 115 115" fill="none" xmlns="http://www.w3.org/2000/svg">
<path d="M100.28 42.9438C99.9008 42.9438 99.5267 42.9633 99.155 42.9933C98.4625 40.9117 97.6163 38.8871 96.6196 36.9317C99.5608 34.3975 101.428 30.6496 101.428 26.4717C101.428 18.8567 95.2329 12.6613 87.6179 12.6613C83.44 12.6613 79.6925 14.5288 77.1579 17.47C75.1138 16.4283 72.9938 15.55 70.8121 14.8408C70.8375 14.5 70.8546 14.1567 70.8546 13.8092C70.8546 6.195 64.66 0 57.045 0C49.43 0 43.2354 6.195 43.2354 13.8096C43.2354 14.1571 43.2529 14.5004 43.2779 14.8413C41.0958 15.5504 38.9762 16.4288 36.9317 17.4704C34.3971 14.5292 30.6496 12.6617 26.4717 12.6617C18.8567 12.6617 12.6621 18.8571 12.6621 26.4721C12.6621 30.65 14.5296 34.3975 17.4704 36.9321C16.4742 38.8871 15.6275 40.9117 14.935 42.9938C14.5633 42.9638 14.1888 42.9442 13.8096 42.9442C6.19458 42.9442 0 49.1392 0 56.7538C0 64.3683 6.195 70.5642 13.8096 70.5642C14.125 70.5642 14.4371 70.5496 14.7475 70.5288C15.4783 72.83 16.3983 75.0625 17.4971 77.2117C14.5408 79.7463 12.6617 83.5042 12.6617 87.695C12.6617 95.31 18.8567 101.505 26.4713 101.505C30.6742 101.505 34.4425 99.6154 36.9775 96.6438C39.0092 97.6758 41.1154 98.5471 43.2829 99.2517C43.2537 99.6171 43.2346 99.9854 43.2346 100.358C43.2354 107.972 49.43 114.167 57.045 114.167C64.66 114.167 70.8546 107.972 70.8546 100.357C70.8546 99.9842 70.8354 99.6163 70.8063 99.2508C72.9738 98.5467 75.08 97.6754 77.1113 96.6429C79.6463 99.615 83.4142 101.505 87.6175 101.505C95.2325 101.505 101.428 95.3092 101.428 87.6942C101.428 83.5033 99.5492 79.7458 96.5925 77.2108C97.6917 75.0617 98.6113 72.8288 99.3421 70.5279C99.6525 70.5488 99.9646 70.5633 100.28 70.5633C107.895 70.5633 114.09 64.3679 114.09 56.7529C114.09 49.1379 107.895 42.9438 100.28 42.9438ZM100.28 68.2683C93.9308 68.2683 88.7654 63.1029 88.7654 56.7538C88.7654 50.405 93.9308 45.2396 100.28 45.2396C106.629 45.2396 111.795 50.405 111.795 56.7538C111.795 63.1029 106.629 68.2683 100.28 68.2683ZM87.6179 14.9575C93.9675 14.9575 99.1329 20.1229 99.1329 26.4725C99.1329 32.8213 93.9675 37.9867 87.6179 37.9867C81.2692 37.9867 76.1038 32.8213 76.1038 26.4725C76.1033 20.1229 81.2688 14.9575 87.6179 14.9575ZM45.5308 13.8096C45.5308 7.46083 50.6963 2.29542 57.045 2.29542C63.3938 2.29542 68.5592 7.46083 68.5592 13.8096C68.5592 20.1592 63.3938 25.3246 57.045 25.3246C50.6963 25.3246 45.5308 20.1592 45.5308 13.8096ZM14.9575 26.4721C14.9575 20.1225 20.1229 14.9571 26.4717 14.9571C32.8213 14.9571 37.9867 20.1225 37.9867 26.4721C37.9867 32.8208 32.8213 37.9863 26.4717 37.9863C20.1229 37.9863 14.9575 32.8213 14.9575 26.4721ZM2.29542 56.7533C2.29542 50.4046 7.46083 45.2392 13.8096 45.2392C20.1583 45.2392 25.3238 50.4046 25.3238 56.7533C25.3238 63.1029 20.1583 68.2679 13.8096 68.2679C7.46083 68.2679 2.29542 63.1029 2.29542 56.7533ZM14.9575 87.6946C14.9575 81.3458 20.1229 76.1804 26.4717 76.1804C32.8213 76.1804 37.9867 81.3458 37.9867 87.6946C37.9867 94.0442 32.8213 99.2096 26.4717 99.2096C20.1229 99.2092 14.9575 94.0438 14.9575 87.6946ZM68.5592 100.357C68.5592 106.706 63.3938 111.871 57.045 111.871C50.6963 111.871 45.5308 106.706 45.5308 100.357C45.5308 94.0075 50.6963 88.8421 57.045 88.8421C63.3938 88.8421 68.5592 94.0075 68.5592 100.357ZM99.1325 87.6946C99.1325 94.0442 93.9671 99.2096 87.6175 99.2096C81.2688 99.2096 76.1033 94.0442 76.1033 87.6946C76.1033 81.3458 81.2688 76.1804 87.6175 76.1804C93.9671 76.1804 99.1325 81.3454 99.1325 87.6946ZM94.7079 75.8492C92.6342 74.6029 90.2088 73.8846 87.6179 73.8846C80.0029 73.8846 73.8083 80.0796 73.8083 87.6942C73.8083 90.2729 74.5204 92.6875 75.7558 94.755C74.0329 95.6117 72.2554 96.3467 70.4304 96.9567C68.9117 90.9804 63.4871 86.5463 57.0454 86.5463C50.6038 86.5463 45.1792 90.9804 43.6604 96.9567C41.8358 96.3467 40.0575 95.6117 38.335 94.755C39.57 92.6875 40.2825 90.2729 40.2825 87.6942C40.2825 80.0792 34.0871 73.8846 26.4721 73.8846C23.8817 73.8846 21.4563 74.6029 19.3825 75.8488C18.4658 74.0175 17.6867 72.1229 17.0496 70.1758C23.1058 68.7138 27.62 63.2521 27.62 56.7529C27.62 50.3175 23.1954 44.8971 17.2283 43.3721C17.8229 41.6354 18.5333 39.9429 19.3525 38.2996C21.4329 39.5567 23.8696 40.2813 26.4721 40.2813C34.0871 40.2813 40.2825 34.0863 40.2825 26.4717C40.2825 23.8687 39.5579 21.4321 38.3008 19.3517C40.0288 18.49 41.8129 17.7513 43.6437 17.1379C45.1375 23.1496 50.5783 27.6192 57.0454 27.6192C63.5125 27.6192 68.9533 23.1496 70.4471 17.1379C72.2779 17.7508 74.0621 18.49 75.79 19.3513C74.5329 21.4317 73.8083 23.8683 73.8083 26.4713C73.8083 34.0863 80.0033 40.2808 87.6179 40.2808C90.2208 40.2808 92.6579 39.5563 94.7379 38.2992C95.5571 39.9425 96.2675 41.635 96.8621 43.3717C90.895 44.8967 86.47 50.3171 86.47 56.7525C86.47 63.2517 90.9842 68.7133 97.0404 70.1754C96.4038 72.1229 95.6246 74.0175 94.7079 75.8492Z" fill="black"/>
</svg>
