<svg width="85" height="87" viewBox="0 0 85 87" fill="none" xmlns="http://www.w3.org/2000/svg">
<path d="M9.28304 14.8747C12.0558 14.1325 14.8816 14.0623 17.7183 14.4404C20.7961 14.8277 23.7387 15.6653 26.5917 16.8512C30.3585 18.4301 33.9787 20.2818 37.5405 22.2571C42.4601 24.9785 47.1394 28.0334 51.7352 31.2545C56.6917 34.7243 61.5682 38.3052 66.2547 42.1342C70.6753 45.7259 74.7012 49.6913 78.2182 54.1505C79.648 55.9787 80.9841 57.8675 81.9875 59.9515C82.6397 61.2789 83.2279 62.6412 83.5166 64.1177C83.7485 65.2482 83.6834 66.366 83.3383 67.4667C82.9611 68.7201 82.1559 69.544 80.9054 69.9427C80.1819 70.1858 79.423 70.3659 78.6666 70.4191C76.1435 70.5907 73.6228 70.6354 71.1139 70.3161C68.2817 69.9549 65.4932 69.3476 62.7494 68.5663C57.0026 66.9271 51.4299 64.8454 45.9558 62.4491C38.2774 59.0947 30.9172 55.1518 23.9851 50.4835C18.3136 46.6772 13.2393 42.2276 8.82949 37.0451C6.81519 34.6838 5.06957 32.162 3.67728 29.3857C2.87453 27.7727 2.25581 26.0936 1.99711 24.3204C1.85304 23.3114 1.83352 22.2879 2.0208 21.2826C2.32544 19.4886 3.225 18.0627 4.6887 16.9587C5.73958 16.1609 6.9102 15.6026 8.13894 15.1915C8.54129 15.0503 8.90587 14.9732 9.28304 14.8747Z" fill="#F7D046"/>
</svg>
