<svg width="72" height="80" viewBox="0 0 72 80" fill="none" xmlns="http://www.w3.org/2000/svg">
<path d="M71.1562 51.875C71.1562 49.2969 69.0469 47.1875 66.4688 47.1875C69.0469 47.1875 71.1562 45.0781 71.1562 42.5C71.1562 39.9219 69.0469 37.8125 66.4688 37.8125H47.2502C50.1094 29.2342 50.0625 26.5 50.0625 21.25C50.0625 17.3498 46.8647 14.2188 43.0312 14.2188H41.625C40.7344 14.2188 39.6094 14.922 39.3748 16C37.0559 25.0283 33.4305 35.3881 24.2812 37.4866V71.4025L32.3905 74.0936C34.7811 74.8903 37.2656 75.3123 39.7969 75.3123H61.7812C64.3702 75.3125 66.4688 73.2136 66.4688 70.625C66.4688 68.0361 64.3702 65.9375 61.7812 65.9375H66.4688C69.0469 65.9375 71.1562 63.8281 71.1562 61.25C71.1562 58.6719 69.0469 56.5625 66.4688 56.5625C69.0469 56.5625 71.1562 54.4531 71.1562 51.875Z" fill="#1790FF"/>
<path d="M12.5625 33.125H3.1875C1.89203 33.125 0.84375 34.1733 0.84375 35.4688V77.6562C0.84375 78.9517 1.89203 80 3.1875 80H12.5625C16.4397 80 19.5938 76.8459 19.5938 72.9688V40.1562C19.5938 36.2791 16.4397 33.125 12.5625 33.125ZM12.5625 70.625C11.2681 70.625 10.2188 69.5756 10.2188 68.2812C10.2188 66.9866 11.2681 65.9375 12.5625 65.9375C13.8569 65.9375 14.9062 66.9866 14.9062 68.2812C14.9062 69.5756 13.8569 70.625 12.5625 70.625Z" fill="#1790FF"/>
<path d="M33.0865 10.3348L29.7723 7.02059C28.8568 6.10512 27.3736 6.10512 26.4581 7.02059C25.5426 7.93605 25.5426 9.41934 26.4581 10.3348L29.7723 13.649C30.6878 14.5645 32.1709 14.5645 33.0865 13.649C34.002 12.7336 34.002 11.2503 33.0865 10.3348Z" fill="#1790FF"/>
<path d="M59.6051 7.02034C58.6896 6.10487 57.2063 6.10487 56.2909 7.02034L52.9766 10.3346C52.0612 11.25 52.0612 12.7333 52.9766 13.6488C53.8921 14.5642 55.3754 14.5642 56.2909 13.6488L59.6051 10.3346C60.5205 9.41909 60.5205 7.93581 59.6051 7.02034Z" fill="#1790FF"/>
<path d="M43.0312 0C41.7186 0 40.6875 1.03109 40.6875 2.34375V7.1875C40.6875 8.50016 41.7186 9.53125 43.0312 9.53125C44.3439 9.53125 45.375 8.50016 45.375 7.1875V2.34375C45.375 1.03109 44.3439 0 43.0312 0Z" fill="#1790FF"/>
</svg>
