<svg width="20" height="17" viewBox="0 0 20 17" fill="none" xmlns="http://www.w3.org/2000/svg">
<path d="M19.3813 0.750971C19.412 0.744832 19.4439 0.748316 19.4723 0.760895C19.5007 0.773475 19.524 0.794465 19.5387 0.820698C19.5534 0.846932 19.5587 0.876982 19.5538 0.906309C19.5488 0.935636 19.534 0.962646 19.5114 0.983261L19.5062 0.987574C19.5062 0.987574 11.7184 7.38204 7.87695 16.2417C7.8147 16.3909 7.71026 16.5209 7.5751 16.6176C7.4875 16.6843 7.3825 16.7274 7.2712 16.7422C7.15989 16.7571 7.04641 16.7432 6.94276 16.702C6.77887 16.6342 6.64644 16.5125 6.57 16.3594C6.18357 15.6145 4.33471 12.3156 0.115242 8.48989C0.0571849 8.43863 0.0181641 8.37099 0.00399607 8.29703C-0.0142193 8.18858 0.0209103 8.05057 0.298695 8.04194C0.382787 8.03934 0.466806 8.0489 0.547857 8.07028C1.10408 8.212 3.83378 9.0167 6.76581 11.782C6.76581 11.782 13.7306 1.79659 19.3813 0.750971Z" fill="black"/>
</svg>
