<svg width="260" height="30" viewBox="0 0 260 30" fill="none" xmlns="http://www.w3.org/2000/svg">
<path d="M39.8467 22.259C45.3484 22.259 49.8084 17.7819 49.8084 12.259C49.8084 6.73619 45.3484 2.25903 39.8467 2.25903C34.345 2.25903 29.885 6.73619 29.885 12.259C29.885 17.7819 34.345 22.259 39.8467 22.259Z" fill="#FDD417"/>
<path d="M49.8086 29.6215C48.8494 28.0956 47.47 26.8287 45.8091 25.9482C44.1481 25.0676 42.2641 24.6044 40.3466 24.6052C38.4285 24.6041 36.544 25.0671 34.8824 25.9476C33.2209 26.8282 31.8409 28.0953 30.8813 29.6215C31.3534 27.6375 32.5495 25.8615 34.2712 24.5882C35.9929 23.3149 38.1366 22.621 40.3466 22.6215C42.556 22.6216 44.6991 23.3158 46.4201 24.589C48.1411 25.8623 49.3367 27.638 49.8086 29.6215Z" fill="#FDD417"/>
<path fill-rule="evenodd" clip-rule="evenodd" d="M0 0.835876H4.20382V10.4637C6.36947 8.76689 9.20461 7.73729 12.3037 7.73729C19.0881 7.73729 24.6067 12.6722 24.6067 18.7375C24.6067 24.8028 19.0874 29.7384 12.3037 29.7384C5.74321 29.7384 0.365663 25.1238 0.0178797 19.3342H0V18.7375V0.835876ZM4.20382 18.7404C4.20705 20.6595 5.06109 22.4992 6.57883 23.8562C8.09734 25.2139 10.1562 25.9776 12.3037 25.9797C14.4511 25.9774 16.5098 25.2136 18.0281 23.8559C19.5465 22.4982 20.4005 20.6575 20.4029 18.7375C20.4003 16.8176 19.5462 14.977 18.0279 13.6195C16.5096 12.2619 14.451 11.4982 12.3037 11.496C10.1563 11.4981 8.0976 12.2617 6.5791 13.6192C5.06134 14.9762 4.20719 16.8157 4.20382 18.7347V18.7404Z" fill="white"/>
<path fill-rule="evenodd" clip-rule="evenodd" d="M158.31 0.835876H162.514V10.4636C164.679 8.76685 167.514 7.73728 170.613 7.73728C177.397 7.73728 182.917 12.6722 182.917 18.7375C182.917 24.8028 177.397 29.7384 170.613 29.7384C164.033 29.7384 158.643 25.0959 158.325 19.2816L158.31 19.2815V18.7375V0.835876ZM162.514 18.7466C162.519 20.6633 163.373 22.5004 164.889 23.8559C166.407 25.2136 168.466 25.9774 170.613 25.9797C172.761 25.9776 174.819 25.2139 176.338 23.8562C177.856 22.4984 178.711 20.6576 178.713 18.7375C178.71 16.8175 177.856 14.9768 176.338 13.6192C174.819 12.2617 172.76 11.4981 170.613 11.496C168.466 11.4982 166.407 12.2619 164.889 13.6195C163.373 14.975 162.519 16.812 162.514 18.7287V18.7466Z" fill="white"/>
<path d="M206.065 7.75514V10.4636C203.826 8.7034 200.946 7.73382 197.964 7.73658C191.18 7.73658 185.661 12.6715 185.661 18.7374C185.661 24.8034 191.18 29.7383 197.964 29.7383C200.946 29.7409 203.825 28.7713 206.064 27.0113V29.493H210.268V7.75514H206.065ZM197.964 25.979C195.817 25.9767 193.759 25.213 192.24 23.8555C190.722 22.4979 189.868 20.6573 189.865 18.7374C189.868 16.8175 190.722 14.9767 192.24 13.619C193.758 12.2613 195.817 11.4975 197.964 11.4953C200.112 11.4974 202.171 12.2611 203.689 13.6188C205.208 14.9765 206.062 16.8173 206.064 18.7374C206.062 20.6574 205.207 22.4981 203.689 23.8557C202.171 25.2133 200.112 25.9769 197.964 25.979Z" fill="white"/>
<path d="M148.535 14.5657L145.114 17.4167C145.204 17.853 145.25 18.2958 145.25 18.7395C145.247 20.6594 144.393 22.5001 142.875 23.8577C141.356 25.2153 139.298 25.9789 137.15 25.981C136.06 25.9815 134.981 25.7846 133.978 25.4021C132.975 25.0196 132.069 24.4593 131.314 23.7552L143.159 13.8888C143.163 13.8918 143.166 13.8951 143.169 13.8987L146.244 11.3368C145.093 10.203 143.689 9.29704 142.123 8.67734C140.557 8.05764 138.863 7.73787 137.15 7.73859C130.366 7.73859 124.847 12.6735 124.847 18.7395C124.845 20.2563 125.196 21.7569 125.877 23.1459C125.923 23.2409 125.971 23.3349 126.021 23.4277C127.017 25.3141 128.592 26.9089 130.562 28.0263C132.533 29.1437 134.817 29.7379 137.15 29.7397C143.935 29.7397 149.454 24.8048 149.454 18.7395C149.456 17.3078 149.144 15.8898 148.535 14.5657ZM129.051 18.7381C129.053 16.8181 129.907 14.9772 131.426 13.6195C132.944 12.2617 135.003 11.498 137.15 11.4959C137.944 11.4954 138.732 11.5995 139.491 11.8049L129.25 20.3354C129.117 19.8112 129.051 19.2755 129.051 18.7381Z" fill="white"/>
<path d="M126.022 23.4264L125.799 23.2116L125.879 23.1453C125.924 23.2399 125.972 23.3336 126.022 23.4264Z" fill="white"/>
<path d="M67.0342 29.4732C64.4451 29.4707 61.9628 28.55 60.1321 26.9131C58.3013 25.2762 57.2715 23.0568 57.2688 20.7418H61.4726C61.4744 22.0602 62.0609 23.3241 63.1035 24.2563C64.1461 25.1885 65.5597 25.7129 67.0342 25.7145C68.5087 25.7129 69.9223 25.1885 70.9649 24.2563C72.0075 23.3241 72.594 22.0602 72.5958 20.7418H76.7996C76.7996 25.5567 72.4186 29.4732 67.0342 29.4732Z" fill="white"/>
<path d="M61.4726 8.42285H57.2688V21.2122L61.4726 21.987V8.42285Z" fill="white"/>
<path d="M76.7995 8.42285H72.5957V21.987L76.7995 21.3828V8.42285Z" fill="white"/>
<path fill-rule="evenodd" clip-rule="evenodd" d="M96.1979 16.2697H96.1979C96.1963 14.9513 95.6098 13.6873 94.5672 12.7551C93.5245 11.8228 92.1108 11.2985 90.6363 11.2971C89.1617 11.2985 87.748 11.8228 86.7054 12.7551C85.6627 13.6873 85.0762 14.9513 85.0747 16.2697L85.0747 28.5887H80.8708V16.2697H80.8701C80.8701 16.2338 80.8704 16.1978 80.8708 16.162V15.6216L80.8971 15.6178C81.2712 11.1063 85.4964 7.53839 90.6355 7.53839C93.2248 7.54067 95.7072 8.46128 97.5382 10.0982C99.172 11.5589 100.168 13.4836 100.365 15.526L100.402 15.5304V28.5887H96.1979V16.2697Z" fill="white"/>
<path d="M116.079 11.496C117.386 11.4965 118.674 11.7803 119.832 12.323C120.99 12.8657 121.984 13.6511 122.729 14.6122V9.48899C120.747 8.34459 118.438 7.73717 116.079 7.73994C109.294 7.73994 103.775 12.6748 103.775 18.7401C103.775 24.8055 109.294 29.741 116.079 29.741C118.438 29.7438 120.747 29.1364 122.729 27.992V22.8675C121.984 23.8285 120.99 24.614 119.832 25.1566C118.674 25.6993 117.386 25.9831 116.079 25.9837C113.931 25.9816 111.872 25.2179 110.354 23.8602C108.835 22.5024 107.981 20.6616 107.979 18.7415C107.98 16.8208 108.834 14.9791 110.352 13.6206C111.871 12.2622 113.93 11.4981 116.079 11.496V11.496Z" fill="white"/>
<path d="M225.14 11.496C226.447 11.4965 227.735 11.7803 228.894 12.323C230.052 12.8657 231.046 13.6511 231.79 14.6122V9.48899C229.808 8.34459 227.499 7.73717 225.14 7.73994C218.356 7.73994 212.836 12.6748 212.836 18.7401C212.836 24.8055 218.356 29.741 225.14 29.741C227.499 29.7427 229.808 29.1344 231.789 27.9893V22.8675C231.044 23.8285 230.05 24.6139 228.892 25.1566C227.734 25.6993 226.446 25.9831 225.138 25.9837C222.991 25.9816 220.932 25.2179 219.414 23.8602C217.895 22.5024 217.041 20.6616 217.039 18.7415C217.04 16.8206 217.894 14.9787 219.413 13.6202C220.932 12.2617 222.992 11.4977 225.14 11.496Z" fill="white"/>
<path d="M260 0.324672H259.852L259.931 0.259033L260 0.324672Z" fill="white"/>
<path d="M259.595 29.3366H252.163L242.863 21.0209L241.111 22.4909V29.3366H235.856V4.6045H230.65L235.856 0.835876H241.111V16.0483L250.912 7.82613H258.591L246.697 17.8046L259.595 29.3366Z" fill="white"/>
</svg>
