<svg width="97" height="132" viewBox="0 0 97 132" fill="none" xmlns="http://www.w3.org/2000/svg">
<path d="M48.1724 96.3685C74.7773 96.3685 96.3448 75.0085 96.3448 48.6596C96.3448 22.3107 74.7773 0.950684 48.1724 0.950684C21.5675 0.950684 0 22.3107 0 48.6596C0 75.0085 21.5675 96.3685 48.1724 96.3685Z" fill="#FDD417"/>
<path d="M93.7931 131.681C89.1416 124.475 82.4518 118.491 74.3965 114.333C66.3412 110.174 57.2043 107.987 47.9046 107.991C38.6023 107.985 29.4625 110.172 21.4043 114.33C13.3461 118.489 6.65364 124.473 2 131.681C4.2893 122.311 10.0902 113.924 18.4401 107.91C26.79 101.897 37.1866 98.6201 47.9046 98.6226C58.6199 98.6228 69.0131 101.901 77.3598 107.914C85.7065 113.927 91.5049 122.313 93.7931 131.681Z" fill="#FDD417"/>
</svg>
