<svg width="14" height="14" viewBox="0 0 14 14" fill="none" xmlns="http://www.w3.org/2000/svg">
<path d="M3.59931 6.098C3.43367 6.098 3.29929 6.23238 3.29929 6.39801V7.59814C3.29929 7.76377 3.43367 7.89816 3.59931 7.89816C3.76494 7.89816 3.89932 7.76377 3.89932 7.59814V6.39803C3.89932 6.39803 3.89932 6.39802 3.89932 6.39801C3.89934 6.23236 3.76494 6.098 3.59931 6.098Z" fill="#8D949E" stroke="#8D949E" stroke-width="0.2"/>
<path d="M3.58568 0.959882L3.58567 0.959863L3.58376 0.960625L1.69374 1.71684C1.41937 1.81858 1.21654 1.94359 1.08423 2.1224C0.950854 2.30266 0.899023 2.52411 0.899023 2.79767V11.2004C0.899023 11.4739 0.950848 11.6953 1.08349 11.8753C1.21513 12.054 1.41672 12.1786 1.68875 12.2796L3.58757 13.0392L3.58756 13.0393L3.58929 13.0399C3.69365 13.0794 3.80001 13.1 3.90554 13.1C4.3756 13.1 4.69942 12.7055 4.69942 12.2009V1.79757C4.69942 1.48667 4.57503 1.22033 4.36848 1.05924C4.16032 0.896896 3.87868 0.84957 3.58568 0.959882ZM1.90587 11.7202L1.90589 11.7202L1.90346 11.7193C1.71679 11.6501 1.6234 11.593 1.57173 11.5256C1.52218 11.461 1.49907 11.3708 1.49907 11.2004V2.79767C1.49907 2.62729 1.52218 2.53731 1.57214 2.47256C1.62439 2.40484 1.71901 2.34729 1.90827 2.27717L1.90828 2.2772L1.91066 2.27624L3.80189 1.51975C3.84124 1.50502 3.87593 1.49872 3.90533 1.49872C3.95933 1.49872 4.0038 1.5219 4.0378 1.568C4.0735 1.61642 4.09936 1.6936 4.09936 1.79757V12.2009C4.09936 12.3049 4.07353 12.3822 4.03785 12.4306C4.00387 12.4768 3.95946 12.4999 3.90554 12.4999C3.8757 12.4999 3.84074 12.4935 3.80553 12.4804L1.90587 11.7202Z" fill="#8D949E" stroke="#8D949E" stroke-width="0.2"/>
<path d="M5.1745 2.29766H7.9998C8.27541 2.29766 8.49987 2.52212 8.49987 2.79772V5.79805C8.49987 5.96361 8.63397 6.09807 8.79988 6.09807C8.96579 6.09807 9.0999 5.96361 9.0999 5.79805V2.79772C9.0999 2.19105 8.60648 1.69761 7.99978 1.69761H5.1745C5.00887 1.69761 4.87449 1.83199 4.87449 1.99762C4.87449 2.16324 5.00885 2.29766 5.1745 2.29766Z" fill="#8D949E" stroke="#8D949E" stroke-width="0.2"/>
<path d="M9.09996 8.19828V8.19826C9.09992 8.03273 8.96583 7.89829 8.79992 7.89829C8.63401 7.89829 8.4999 8.03274 8.4999 8.1983V11.1986C8.4999 11.4742 8.27544 11.6987 7.99984 11.6987H5.19953C5.03389 11.6987 4.89951 11.8331 4.89951 11.9987C4.89951 12.1643 5.03389 12.2987 5.19953 12.2987H7.99984C8.60652 12.2987 9.09996 11.8053 9.09996 11.1986V8.19828Z" fill="#8D949E" stroke="#8D949E" stroke-width="0.2"/>
<path d="M13.0773 6.8834L13.0774 6.88344C13.1077 6.95674 13.1077 7.03946 13.0773 7.11275L13.0773 7.11276C13.0622 7.14924 13.0403 7.18231 13.0123 7.2104L11.0122 9.21043C10.9538 9.2689 10.8768 9.29831 10.8001 9.29831C10.7234 9.29831 10.6465 9.2689 10.588 9.21044L13.0773 6.8834ZM13.0773 6.8834C13.0622 6.84691 13.0403 6.81385 13.0123 6.78576C13.0123 6.78576 13.0123 6.78576 13.0123 6.78575L11.0122 4.78555L11.0122 4.78553C10.895 4.6683 10.7052 4.66829 10.588 4.78554C10.4707 4.90281 10.4707 5.09255 10.588 5.2098M13.0773 6.8834L10.588 5.2098M10.588 5.2098L12.0761 6.69805H5.59955C5.43392 6.69805 5.29954 6.83244 5.29954 6.99807C5.29954 7.1637 5.43392 7.29808 5.59955 7.29808H12.0761L10.588 8.78618C10.4707 8.90344 10.4707 9.09317 10.588 9.21043L10.588 5.2098Z" fill="#8D949E" stroke="#8D949E" stroke-width="0.2"/>
</svg>
