<svg width="78" height="78" viewBox="0 0 78 78" fill="none" xmlns="http://www.w3.org/2000/svg">
<path fill-rule="evenodd" clip-rule="evenodd" d="M0.232833 35.8872L37.2744 65.427C38.2843 66.2325 39.7156 66.2333 40.7271 65.4302L77.7837 35.9941C77.8027 36.1311 77.8122 36.2706 77.8122 36.4131V71.2923C77.8122 72.9002 77.1738 74.4416 76.0372 75.5783C74.9006 76.7149 73.3584 77.3541 71.7505 77.3541H6.25026C4.64234 77.3541 3.10095 76.7149 1.96432 75.5783C0.826892 74.4416 0.188477 72.9002 0.188477 71.2923V36.4131C0.188477 36.2341 0.203526 36.0583 0.232833 35.8872ZM8.70016 39.0943V3.7359C8.70016 2.02976 10.0839 0.645996 11.7901 0.645996H44.6685V22.8028C44.6685 24.3331 45.9097 25.5743 47.44 25.5751L69.3006 25.5743V39.1925L39.0027 63.2599L8.70016 39.0943ZM18.1378 42.6064H60.3287C61.1833 42.6064 61.8772 41.9125 61.8772 41.0579C61.8772 40.2032 61.1833 39.5102 60.3287 39.5102H18.1378C17.2831 39.5102 16.5893 40.2032 16.5893 41.0579C16.5893 41.9125 17.2831 42.6064 18.1378 42.6064ZM72.0728 30.4393L76.114 33.6496C76.1473 33.6662 76.1806 33.6836 76.2122 33.7018L72.0728 36.9906V30.4393ZM5.92788 30.4401V36.8828L1.87877 33.6543L1.88749 33.6496L5.92788 30.4401ZM18.1378 34.8646C17.2831 34.8646 16.5893 34.1707 16.5893 33.3161C16.5893 32.4622 17.2831 31.7684 18.1378 31.7684H60.3287C61.1833 31.7684 61.8772 32.4622 61.8772 33.3161C61.8772 34.1707 61.1833 34.8646 60.3287 34.8646H18.1378ZM18.1378 27.1228C17.2831 27.1228 16.5893 26.429 16.5893 25.5743C16.5893 24.7205 17.2831 24.0266 18.1378 24.0266H36.6376C37.4922 24.0266 38.1861 24.7205 38.1861 25.5743C38.1861 26.429 37.4922 27.1228 36.6376 27.1228H18.1378ZM47.4408 22.802V2.00283L67.9564 22.802H47.4408ZM18.1378 19.381H36.6376C37.4922 19.381 38.1861 18.6872 38.1861 17.8333C38.1861 16.9787 37.4922 16.2848 36.6376 16.2848H18.1378C17.2831 16.2848 16.5893 16.9787 16.5893 17.8333C16.5893 18.6872 17.2831 19.381 18.1378 19.381ZM18.1378 11.6393H36.6376C37.4922 11.6393 38.1861 10.9454 38.1861 10.0915C38.1861 9.23689 37.4922 8.54303 36.6376 8.54303H18.1378C17.2831 8.54303 16.5893 9.23689 16.5893 10.0915C16.5893 10.9454 17.2831 11.6393 18.1378 11.6393Z" fill="black"/>
</svg>
