<svg width="377" height="423" viewBox="0 0 377 423" fill="none" xmlns="http://www.w3.org/2000/svg">
<path d="M369.581 141.672C365.906 134.125 342.36 100.779 337.19 96.5402C334.946 94.9034 332.468 93.6149 329.84 92.718L329.644 93.2571C325.83 111.762 329.418 131.025 339.64 146.915C343.315 153.04 346.795 157.279 348.167 159.337C349.882 162.228 346.427 166.246 341.012 170.265C332.15 176.529 322.428 181.48 312.15 184.965V184.769C312.689 183.642 309.332 180.433 305.363 180.188H304.701V183.005C303.329 186.95 296.249 186.264 293.161 185.749C292.108 185.553 287.134 183.52 287.134 182.001V181.756C286.762 181.719 286.386 181.758 286.029 181.872C285.673 181.985 285.344 182.17 285.061 182.416C284.779 182.661 284.55 182.962 284.388 183.299C284.226 183.637 284.135 184.003 284.12 184.377C284.248 185.2 284.568 185.981 285.053 186.658C285.538 187.334 286.175 187.888 286.914 188.273C286.587 188.201 286.249 188.202 285.922 188.274C285.596 188.346 285.289 188.489 285.023 188.692C284.757 188.895 284.539 189.153 284.383 189.449C284.227 189.744 284.138 190.071 284.12 190.405C284.277 191.148 284.604 191.845 285.076 192.44C285.548 193.036 286.152 193.513 286.84 193.835C286.539 193.741 286.22 193.718 285.908 193.765C285.596 193.813 285.299 193.931 285.04 194.111C284.78 194.29 284.565 194.526 284.41 194.801C284.255 195.075 284.164 195.382 284.145 195.697C284.145 196.579 285.247 197.608 287.159 198.49C292.747 200.552 298.807 200.976 304.628 199.715C307.692 199.466 310.717 198.866 313.644 197.926L314.257 197.02C323.812 197.212 333.298 195.375 342.09 191.63C358.947 184.941 374.481 172.813 375.339 159.606C375.633 152.967 372.472 147.797 369.581 141.672Z" fill="black"/>
<path d="M296.616 320.36C301.516 341.945 307.813 362.747 314.085 382.225H314.281H342.923C343.07 364.756 343.193 343.023 343.266 320.262H296.714L296.616 320.36Z" fill="black"/>
<path d="M314.429 415.375C298.919 417.286 288.531 409.519 286.154 419.001L286.522 421.255H342.532C342.532 421.255 342.532 416.771 342.654 409.004H342.017C332.168 408.367 323.323 414.272 314.429 415.375Z" fill="black"/>
<path d="M295.121 117.269C298.723 118.347 311.537 94.4582 313.081 88.1124C313.081 73.8281 310.925 61.308 309.724 46.9993V46.7787C310.723 47.1654 311.814 47.2485 312.86 47.0175C313.907 46.7865 314.861 46.2517 315.604 45.4802C318.055 42.3685 314.159 31.4165 308.45 36.3657H308.328C308.328 35.4837 308.181 35.1651 308.034 34.2096V33.7196H307.813C307.813 33.7196 298.233 32.568 291.348 32.568C284.904 32.568 275.275 33.7196 275.275 33.7196C275.015 33.745 274.752 33.745 274.491 33.7196V33.9401C273.955 36.527 273.693 39.1631 273.707 41.805C273.707 50.5764 283.508 69.3934 286.963 70.7655C287.388 70.9394 287.832 71.0628 288.286 71.133C287.329 77.5779 285.61 83.8862 283.165 89.9255C283.532 93.8947 290.834 115.946 295.121 117.269Z" fill="black"/>
<path d="M291.471 23.1345C295.807 23.1345 302.717 23.7226 306.024 24.0166V23.8696C305.376 21.7587 304.281 19.8118 302.815 18.1608C294.386 8.72779 284.169 13.138 278.313 23.6246V23.9186C281.94 23.6001 287.869 23.1345 291.471 23.1345Z" fill="black"/>
<path d="M287.428 156.74C287.396 156.919 287.403 157.103 287.45 157.28C287.497 157.456 287.581 157.62 287.698 157.76C287.815 157.9 287.961 158.013 288.126 158.091C288.291 158.168 288.471 158.209 288.653 158.21H302.839C303.022 158.209 303.202 158.168 303.367 158.091C303.532 158.013 303.678 157.9 303.794 157.76C303.911 157.62 303.996 157.456 304.042 157.28C304.089 157.103 304.097 156.919 304.064 156.74C303.712 154.79 302.686 153.026 301.166 151.756C299.645 150.486 297.727 149.79 295.746 149.79C293.765 149.79 291.847 150.486 290.327 151.756C288.806 153.026 287.78 154.79 287.428 156.74Z" fill="black"/>
<path d="M267.974 91.787C266.404 92.2069 264.89 92.8157 263.466 93.6001C255.307 98.2553 229.654 120.012 229.654 120.012C222.052 109.552 215.487 98.3758 210.053 86.6417C210.053 86.6417 210.053 86.6417 210.053 86.6417L209.416 86.9357L197.95 88.5528C199.052 92.3015 200.4 97.0302 202.09 102.225C208.387 122.316 217.796 148.777 223.456 148.434C233.746 147.625 257.757 134.125 258.615 133.733C258.847 133.605 259.069 133.458 259.276 133.292C261.874 131.381 270.816 122.512 268.636 92.3995L267.974 91.787Z" fill="black"/>
<path d="M237.298 360.198C227.89 359.561 219.363 365.466 210.886 366.568C195.916 368.479 186.115 360.713 183.665 370.195V371.15L237.568 370.905C237.568 370.905 237.396 366.74 237.176 360.198H237.298Z" fill="black"/>
<path d="M200.963 254.867C196.43 267.559 205.52 306.124 211.793 329.596H236.662C236.466 308.77 236.882 286.89 239.357 282.014C237.593 280.765 220.76 268.906 201.233 254.181C201.135 254.402 201.037 254.647 200.963 254.867Z" fill="black"/>
<path d="M195.401 80.1974L206.671 79.0458C208.632 70.4214 209.416 52.0944 206.524 49.6443C205.52 48.7377 204.074 48.4927 203.682 50.0118C203.266 48.3947 202.604 47.3657 201.526 47.3657C199.885 47.3657 199.076 48.2967 198.88 50.1098C198.78 49.8326 198.618 49.5823 198.405 49.3782C198.193 49.1742 197.936 49.0221 197.655 48.9338C194.764 48.3212 195.523 54.4465 195.548 55.9411C195.548 60.3023 195.915 63.953 195.548 68.8288C195.548 67.9712 195.327 67.1137 195.205 66.3787C195.09 65.2386 194.801 64.123 194.347 63.071C194.004 62.3849 193.171 61.4539 192.216 61.9194C190.746 62.63 190.917 64.7616 190.966 65.9376C191.015 69.3923 192.51 80.5404 195.401 80.1974Z" fill="black"/>
<path d="M181.68 79.7073C174.747 77.2572 171.12 78.6538 170.434 78.9723C169.381 81.6184 168.229 84.289 166.98 86.9352C161.514 98.552 154.951 109.62 147.379 119.987C147.379 119.987 123.784 102.444 115.527 97.9362C108.177 93.9425 96.171 94.4326 96.171 94.4326C96.0149 93.302 95.5821 92.2274 94.9111 91.3042C94.2401 90.381 93.3515 89.6377 92.3243 89.1403L91.7853 88.9933C83.5922 87.4082 75.1606 87.5249 67.0145 89.3363L66.6715 89.5078C65.0968 90.7534 64.0123 92.5148 63.6088 94.4816C63.6088 94.4816 43.5668 97.4462 37.711 102.273C32.5167 106.536 11.3231 134.125 7.67246 141.671C4.78131 147.674 1.62065 152.966 2.03717 159.679C2.91922 173.131 18.894 185.406 36.0204 192.021V192.291C35.3834 206.207 34.5013 216.792 34.0113 226.053H36.6574L128.194 225.906H130.179C129.885 210.838 123.171 162.693 118.761 133.684C119.521 134.051 143.63 147.551 153.92 148.384C159.115 148.776 167.543 126.333 173.815 106.904C178.471 92.448 181.925 79.8053 181.925 79.8053H181.729L181.68 79.7073ZM100.63 155.661H89.3107L87.7916 166.074H88.2571C88.5155 166.107 88.7648 166.192 88.9902 166.322C89.2157 166.452 89.4129 166.627 89.5704 166.834C89.7278 167.042 89.8422 167.279 89.907 167.531C89.9718 167.783 89.9856 168.046 89.9477 168.304L89.4577 177.271L89.2371 181.143C89.6036 181.119 89.9709 181.17 90.3174 181.291C90.6639 181.413 90.9826 181.602 91.2544 181.849C91.5263 182.096 91.7459 182.395 91.9002 182.728C92.0545 183.061 92.1404 183.422 92.1528 183.789C92.0193 184.609 91.6977 185.388 91.2131 186.064C90.7285 186.74 90.0942 187.294 89.3596 187.684C89.6837 187.636 90.0141 187.653 90.3313 187.735C90.6485 187.817 90.9461 187.961 91.2065 188.16C91.467 188.359 91.6849 188.608 91.8474 188.892C92.0099 189.177 92.1138 189.491 92.1528 189.816C92.0095 190.565 91.6873 191.267 91.2138 191.865C90.7403 192.462 90.1294 192.936 89.4332 193.246C89.7365 193.147 90.0587 193.12 90.3743 193.167C90.6899 193.214 90.9902 193.334 91.2516 193.517C91.513 193.7 91.7283 193.941 91.8804 194.221C92.0326 194.502 92.1174 194.814 92.1283 195.133C92.1283 196.284 90.4622 197.779 87.4731 198.808L88.1591 199.077L87.8651 204.541C87.88 205.018 87.714 205.482 87.4003 205.841C87.0867 206.2 86.6487 206.427 86.1745 206.477H74.3894C73.9152 206.427 73.4772 206.2 73.1635 205.841C72.8499 205.482 72.6839 205.018 72.6988 204.541L72.4293 199.641V199.371C69.5711 198.796 66.7677 197.977 64.0499 196.921H63.3393C65.7894 195.157 65.0299 184.303 65.0299 184.303C64.7604 183.103 67.6515 180.064 71.0572 179.819H71.2777L71.1307 176.781L70.9592 172.861C69.7614 172.787 68.6102 172.37 67.6432 171.66C66.6762 170.949 65.9343 169.975 65.5063 168.854C65.0782 167.732 64.9821 166.512 65.2295 165.337C65.4768 164.163 66.0571 163.085 66.9009 162.232C67.7448 161.378 68.8166 160.786 69.9881 160.526C71.1596 160.266 72.3812 160.348 73.507 160.764C74.6328 161.18 75.6151 161.911 76.3364 162.87C77.0577 163.829 77.4876 164.975 77.5745 166.172H84.4104L86.444 152.501H100.875L100.63 155.661Z" fill="#FFC41F"/>
<path d="M152.867 405.771C142.209 404.521 128.537 398.004 125.23 397.759H124.519C122.975 398.175 105.188 397.759 105.188 397.759C105.188 397.759 105.188 397.391 105.188 397.146V416.061L161.761 415.816C162.864 409.225 158.012 406.359 152.867 405.771Z" fill="#389B48"/>
<path d="M45.4047 405.281C40.8719 405.501 40.5044 399.474 31.586 394.966L31.1694 394.745L14.6066 388.154H14.3126L6.57019 404.007L30.6304 415.351L60.3014 415.62V414.861C59.5664 410.745 53.2451 404.913 45.4047 405.281Z" fill="#389B48"/>
<path d="M210.984 421.5C225.49 421.5 237.249 410.201 237.249 396.264C237.249 382.326 225.49 371.027 210.984 371.027C196.478 371.027 184.718 382.326 184.718 396.264C184.718 410.201 196.478 421.5 210.984 421.5Z" stroke="black" stroke-width="2.6488" stroke-miterlimit="10" stroke-linecap="round"/>
<path d="M184.229 396.215C184.229 396.215 210.347 406.775 236.784 396.215" stroke="black" stroke-width="2.6488" stroke-miterlimit="10"/>
<path d="M211.204 370.978V421.476" stroke="black" stroke-width="2.6488" stroke-miterlimit="10"/>
<path d="M229.654 378.697C219.192 381.686 215.909 388.498 216.791 400.577" stroke="black" stroke-width="2.6488" stroke-miterlimit="10"/>
<path d="M229.066 414.076C220.809 413.39 217.232 408.735 216.816 400.576" stroke="black" stroke-width="2.6488" stroke-miterlimit="10"/>
<path d="M191.628 378.697C202.115 381.686 205.373 388.498 204.516 400.577" stroke="black" stroke-width="2.6488" stroke-miterlimit="10"/>
<path d="M192.241 414.076C200.498 413.39 204.075 408.735 204.491 400.576" stroke="black" stroke-width="2.6488" stroke-miterlimit="10"/>
<path d="M105.163 420.741H161.884V416.085H105.163V420.741Z" stroke="black" stroke-width="2.6488" stroke-linecap="round" stroke-linejoin="round"/>
<path d="M286.178 245.802C287.942 300.415 304.579 353.803 319.451 398.812C319.451 398.812 305.167 405.182 294.484 406.456C289.364 407.044 284.488 409.911 285.688 416.453L286.472 421.353H342.482C342.482 421.353 343.854 296.397 342.85 225.343" stroke="black" stroke-width="2.6488" stroke-miterlimit="10"/>
<path d="M248.201 225.368C233.697 231.42 204.099 246.096 200.963 254.77C194.299 273.464 217.134 348.365 217.134 348.365C212.748 349.541 202.605 354.686 191.922 355.935C186.777 356.548 181.926 359.39 183.126 365.956L183.812 371.053L237.715 370.808C237.715 370.808 234.138 286.058 239.92 281.133C250.848 271.798 270.179 265.991 287.036 266.432" stroke="black" stroke-width="2.6488" stroke-miterlimit="10"/>
<path d="M35.8984 192.291C35.2614 206.208 34.3794 216.792 33.8893 226.054L130.081 225.882C129.763 208.094 120.452 144.244 116.557 120.135" stroke="black" stroke-width="2.6488" stroke-linecap="round" stroke-linejoin="round"/>
<path d="M31.6105 394.941C38.0543 389.673 87.2038 303.967 97.8864 245.924" stroke="black" stroke-width="2.6488" stroke-miterlimit="10" stroke-linecap="round"/>
<path d="M36.6579 226.201C33.7177 282.211 14.6068 387.909 14.6068 387.909" stroke="black" stroke-width="2.6488" stroke-miterlimit="10" stroke-linecap="round"/>
<path d="M85.6603 287.896C90.2665 312.887 103.791 389.551 105.09 397.735C105.09 397.735 124.299 398.127 124.519 397.735C127.753 390.678 129.983 315.827 127.998 226.789" stroke="black" stroke-width="2.6488" stroke-miterlimit="10" stroke-linecap="round"/>
<path d="M53.2451 239.701C50.795 252.907 47.0301 256.851 34.9999 254.818" stroke="black" stroke-width="2.6488" stroke-miterlimit="10" stroke-linecap="round"/>
<path d="M125.23 397.71C128.537 397.955 142.209 404.472 152.867 405.722C158.012 406.31 162.864 409.176 161.688 415.743L105.114 415.988" stroke="black" stroke-width="2.6488" stroke-linecap="round" stroke-linejoin="round"/>
<path d="M105.09 397.121V415.62" stroke="black" stroke-width="2.6488" stroke-miterlimit="10"/>
<path d="M3.85083 408.882L29.4546 420.398L60.2282 420.153V415.498L30.5327 415.228L6.47246 403.884L3.85083 408.882Z" stroke="black" stroke-width="2.6488" stroke-linecap="round" stroke-linejoin="round"/>
<path d="M60.2034 414.861C59.5664 410.671 53.2451 404.84 45.5027 405.207C40.8965 405.428 40.6024 399.204 31.2675 394.672L14.3126 387.958L6.57019 403.811" stroke="black" stroke-width="2.6488" stroke-linecap="round" stroke-linejoin="round"/>
<path d="M68.7299 36.2666C69.4895 30.7048 70.494 22.4724 74.3652 18.1602C86.7628 4.29248 101.17 32.5424 103.473 41.6324C105.653 50.1098 93.6722 69.2208 90.242 70.5929C85.0478 72.651 77.6729 67.7752 75.3453 62.9485" stroke="black" stroke-width="2.6488" stroke-miterlimit="10" stroke-linecap="round"/>
<path d="M66.9654 89.1651C66.9654 74.6358 66.1813 61.4787 67.4064 46.9984" stroke="black" stroke-width="2.6488" stroke-miterlimit="10"/>
<path d="M88.8209 70.3486C89.5314 76.5964 90.3399 83.8733 92.7656 89.1411" stroke="black" stroke-width="2.6488" stroke-miterlimit="10"/>
<path d="M70.7142 38.8153C63.8784 28.7208 58.8066 42.0004 61.4528 45.4796C63.1433 47.7092 66.7695 47.2927 68.8031 46.2392" stroke="black" stroke-width="2.6488" stroke-miterlimit="10" stroke-linecap="round"/>
<path d="M95.0928 24.4819C95.9259 24.4819 115.576 20.5617 112.807 15.1714C109.671 8.99709 71.7676 28.4756 69.44 29.5046" stroke="black" stroke-width="2.6488" stroke-miterlimit="10"/>
<path d="M84.0184 39.9911C83.0132 39.6849 81.9498 39.6207 80.9151 39.8038C79.8804 39.9869 78.9036 40.4121 78.0646 41.0446" stroke="black" stroke-width="2.6488" stroke-miterlimit="10" stroke-linecap="round"/>
<path d="M67.5291 40.8001C66.4796 41.8272 65.0772 42.4144 63.6089 42.4417" stroke="black" stroke-width="2.6488" stroke-miterlimit="10" stroke-linecap="round"/>
<path d="M82.1319 46.4591C82.7002 46.4591 83.161 45.9984 83.161 45.4301C83.161 44.8617 82.7002 44.401 82.1319 44.401C81.5636 44.401 81.1028 44.8617 81.1028 45.4301C81.1028 45.9984 81.5636 46.4591 82.1319 46.4591Z" fill="black"/>
<path d="M95.6075 46.1169C96.1759 46.1169 96.6366 45.6562 96.6366 45.0879C96.6366 44.5195 96.1759 44.0588 95.6075 44.0588C95.0392 44.0588 94.5785 44.5195 94.5785 45.0879C94.5785 45.6562 95.0392 46.1169 95.6075 46.1169Z" fill="black"/>
<path d="M97.3231 40.2601C95.706 39.5251 92.0309 39.7456 91.3693 41.3382C90.3403 43.7883 91.9083 49.2276 92.5699 52.2902C93.0109 54.3729 93.7704 58.4401 90.1198 57.3375" stroke="black" stroke-width="2.6488" stroke-miterlimit="10" stroke-linecap="round"/>
<path d="M170.459 78.9971C164.442 93.5221 156.736 107.289 147.501 120.012C147.501 120.012 123.906 102.469 115.649 97.9611C108.299 93.9674 96.2935 94.4574 96.2935 94.4574C96.1098 93.2264 95.5958 92.0683 94.8063 91.1062C94.0168 90.1441 92.9812 89.414 91.8098 88.9936C83.5774 86.7395 68.5336 88.3566 66.6715 89.5081C65.0968 90.7538 64.0123 92.5151 63.6088 94.4819C63.6088 94.4819 43.5668 97.4465 37.711 102.273C32.5167 106.537 11.3476 134.125 7.67246 141.671C4.78131 147.674 1.62065 152.966 2.03717 159.68C3.38474 180.481 40.8717 198.49 62.8983 197.044C65.9364 196.848 65.2014 184.205 65.2014 184.205C57.214 182.27 24.5783 167.055 29.1846 159.337C37.8604 147.63 47.7123 136.842 58.5861 127.142" stroke="black" stroke-width="2.6488" stroke-linejoin="round"/>
<path d="M181.779 68.6818C181.534 63.7815 181.509 60.2534 181.607 55.8921C181.607 54.3976 182.391 48.2722 179.5 48.8848C176.609 49.4973 177.393 62.924 177.442 65.0066" stroke="black" stroke-width="2.6488" stroke-linecap="round" stroke-linejoin="round"/>
<path d="M178.226 50.0372C177.957 48.2242 177.222 47.2686 175.58 47.2931C171.954 47.2931 172.836 59.5437 172.762 65.13" stroke="black" stroke-width="2.6488" stroke-linecap="round" stroke-linejoin="round"/>
<path d="M181.778 79.7324C184.67 80.0754 186.311 68.7068 186.458 65.2031C186.458 64.0516 186.654 61.92 185.209 61.2094C184.228 60.7439 183.395 61.6504 183.052 62.3365C182.602 63.3895 182.312 64.5047 182.195 65.6442C181.999 67.1142 181.729 68.8783 181.558 70.3484" stroke="black" stroke-width="2.6488" stroke-linecap="round" stroke-linejoin="round"/>
<path d="M173.326 49.9143C173.056 48.3952 171.488 48.6402 170.483 49.5468C167.592 52.1439 168.376 70.4218 170.336 78.9483C170.336 78.9483 173.963 76.8657 181.68 79.6098" stroke="black" stroke-width="2.6488" stroke-linecap="round" stroke-linejoin="round"/>
<path d="M118.713 133.66C119.472 134.027 143.581 147.503 153.872 148.36C162.962 149.095 181.877 79.7569 181.877 79.7569" stroke="black" stroke-width="2.6488" stroke-miterlimit="10"/>
<path d="M84.7782 166.173H72.3316C72.0718 166.203 71.8207 166.285 71.5935 166.414C71.3663 166.544 71.1678 166.718 71.0098 166.926C70.8518 167.135 70.7376 167.373 70.6742 167.627C70.6109 167.88 70.5995 168.144 70.641 168.402L71.4005 182.785" stroke="black" stroke-width="2.6488" stroke-miterlimit="10"/>
<path d="M89.2129 181.805L89.9479 168.402C89.9858 168.145 89.972 167.882 89.9072 167.63C89.8424 167.377 89.728 167.14 89.5706 166.933C89.4132 166.725 89.2159 166.551 88.9905 166.421C88.765 166.29 88.5157 166.206 88.2573 166.173H87.3018" stroke="black" stroke-width="2.6488" stroke-miterlimit="10"/>
<path d="M72.4297 199.666L72.6992 204.566C72.6843 205.043 72.8503 205.507 73.164 205.866C73.4776 206.226 73.9156 206.453 74.3898 206.502H86.2729C86.7494 206.458 87.1909 206.233 87.5056 205.873C87.8204 205.512 87.9844 205.044 87.9635 204.566L88.2575 199.25" stroke="black" stroke-width="2.6488" stroke-miterlimit="10"/>
<path d="M71.3759 182.491C72.7725 186.436 80.0004 185.774 83.1365 185.235C84.2881 185.039 89.8009 182.785 89.2373 181.266" stroke="black" stroke-width="2.6488" stroke-miterlimit="10"/>
<path d="M89.311 181.241C89.6774 181.218 90.0448 181.269 90.3913 181.39C90.7378 181.512 91.0564 181.701 91.3283 181.948C91.6002 182.195 91.8197 182.494 91.9741 182.827C92.1284 183.16 92.2143 183.521 92.2266 183.888C92.0306 187.612 85.2193 190.968 77.7954 189.817" stroke="black" stroke-width="2.6488" stroke-miterlimit="10" stroke-linecap="round"/>
<path d="M89.4332 187.783C89.7572 187.735 90.0876 187.752 90.4048 187.833C90.722 187.915 91.0197 188.06 91.2801 188.258C91.5405 188.457 91.7584 188.706 91.9209 188.991C92.0835 189.275 92.1873 189.589 92.2263 189.914C92.0303 193.173 85.464 196.187 78.0401 195.182" stroke="black" stroke-width="2.6488" stroke-miterlimit="10" stroke-linecap="round"/>
<path d="M89.5314 193.393C89.8348 193.294 90.157 193.267 90.4726 193.314C90.7882 193.361 91.0885 193.481 91.3499 193.664C91.6113 193.847 91.8266 194.088 91.9787 194.368C92.1309 194.649 92.2157 194.961 92.2266 195.28C92.2266 198.293 81.0785 203.561 64.0991 196.921" stroke="black" stroke-width="2.6488" stroke-miterlimit="10" stroke-linecap="round"/>
<path d="M65.0058 184.304C64.5403 183.152 67.4559 179.967 71.0086 179.698" stroke="black" stroke-width="2.6488" stroke-miterlimit="10" stroke-linecap="round"/>
<path d="M312.003 184.77C312.542 183.643 309.185 180.433 305.216 180.188" stroke="black" stroke-width="2.6488" stroke-miterlimit="10" stroke-linecap="round"/>
<path d="M71.2291 176.635C76.9379 174.357 77.8444 181.07 85.4153 180.384C86.2773 180.24 87.092 179.891 87.7912 179.366C88.4904 178.842 89.0536 178.157 89.4335 177.37" stroke="black" stroke-width="2.6488" stroke-miterlimit="10" stroke-linecap="round"/>
<path d="M85.7336 180.138L89.3108 155.759L100.63 155.71L100.875 152.501H86.4441L82.3769 179.844" stroke="black" stroke-width="2.6488" stroke-linecap="round" stroke-linejoin="round"/>
<path d="M342.164 192.217C343.095 207.432 343.952 221.398 344.197 225.686L248.005 225.514C248.348 207.726 255.503 157.376 259.423 133.267" stroke="black" stroke-width="2.6488" stroke-linecap="round" stroke-linejoin="round"/>
<path d="M339.518 146.866C339.739 151.399 340.253 159.582 340.866 169.873" stroke="black" stroke-width="2.6488" stroke-linecap="round" stroke-linejoin="round"/>
<path d="M305.976 23.8696C305.327 21.7587 304.233 19.8118 302.766 18.1608C294.338 8.72779 284.121 13.138 278.265 23.6245" stroke="black" stroke-width="2.6488" stroke-miterlimit="10" stroke-linecap="round"/>
<path d="M308.401 36.2673C308.401 35.3853 308.254 35.0668 308.107 34.1112" stroke="black" stroke-width="2.6488" stroke-miterlimit="10" stroke-linecap="round"/>
<path d="M313.081 88.6265C313.081 74.0972 310.949 61.4791 309.724 46.9743" stroke="black" stroke-width="2.6488" stroke-miterlimit="10"/>
<path d="M306.662 38.4963C313.571 27.5688 318.643 41.9265 315.997 45.6752C315.073 46.6677 313.826 47.2991 312.479 47.4562C311.132 47.6134 309.774 47.286 308.646 46.5327" stroke="white" stroke-width="1.9096" stroke-miterlimit="10" stroke-linecap="round"/>
<path d="M293.112 39.9911C294.117 39.6849 295.181 39.6207 296.215 39.8038C297.25 39.9869 298.227 40.4121 299.066 41.0446" stroke="white" stroke-width="1.9096" stroke-miterlimit="10" stroke-linecap="round"/>
<path d="M309.602 40.8001C310.651 41.8272 312.053 42.4144 313.522 42.4417" stroke="white" stroke-width="1.9096" stroke-miterlimit="10" stroke-linecap="round"/>
<path d="M294.999 46.4591C295.567 46.4591 296.028 45.9984 296.028 45.4301C296.028 44.8617 295.567 44.401 294.999 44.401C294.431 44.401 293.97 44.8617 293.97 45.4301C293.97 45.9984 294.431 46.4591 294.999 46.4591Z" fill="white"/>
<path d="M282.258 46.1169C282.827 46.1169 283.287 45.6562 283.287 45.0879C283.287 44.5195 282.827 44.0588 282.258 44.0588C281.69 44.0588 281.229 44.5195 281.229 45.0879C281.229 45.6562 281.69 46.1169 282.258 46.1169Z" fill="white"/>
<path d="M280.543 40.2601C282.16 39.5251 285.811 39.7456 286.473 41.3382C287.526 43.7883 283.508 51.7757 282.822 54.8384C282.381 56.921 285.836 56.676 287.943 56.431" stroke="white" stroke-width="1.9096" stroke-miterlimit="10" stroke-linecap="round"/>
<path d="M295.905 59.1509C294.068 65.3007 286.105 65.3742 284.537 61.2825" stroke="white" stroke-width="1.9096" stroke-miterlimit="10" stroke-linecap="round"/>
<path d="M195.426 66.5754C195.426 61.3566 195.426 60.1071 195.254 55.6478C195.254 54.1042 194.446 47.8564 197.484 48.469C200.889 49.155 199.934 62.8267 199.738 64.9583" stroke="white" stroke-width="1.9096" stroke-linecap="round" stroke-linejoin="round"/>
<path d="M198.758 49.3016C198.754 48.9488 198.827 48.5995 198.971 48.2774C199.115 47.9554 199.327 47.6682 199.592 47.4355C199.857 47.2029 200.17 47.0303 200.508 46.9295C200.846 46.8287 201.202 46.8021 201.551 46.8515C205.569 46.8515 204.712 58.7836 204.565 64.6884" stroke="white" stroke-width="1.9096" stroke-linecap="round" stroke-linejoin="round"/>
<path d="M268.44 92.3264C270.89 127.412 258.418 133.66 258.418 133.66C257.659 134.028 233.55 147.503 223.259 148.361C214.169 149.096 195.426 80.2472 195.426 80.2472" stroke="black" stroke-width="2.6488" stroke-linecap="round" stroke-linejoin="round"/>
<path d="M239.161 281.941C239.161 281.941 221.814 269.69 201.061 254.034" stroke="black" stroke-width="2.6488" stroke-miterlimit="10"/>
<path d="M343.585 320.213C343.585 320.213 322.538 320.213 296.738 319.649" stroke="black" stroke-width="2.6488" stroke-miterlimit="10"/>
<path d="M71.3274 172.887C70.0917 172.887 68.8837 172.52 67.8562 171.834C66.8288 171.147 66.028 170.171 65.5551 169.03C65.0822 167.888 64.9585 166.632 65.1996 165.42C65.4407 164.208 66.0357 163.095 66.9095 162.221C67.7833 161.347 68.8965 160.752 70.1085 160.511C71.3204 160.27 72.5767 160.394 73.7183 160.866C74.8599 161.339 75.8357 162.14 76.5222 163.168C77.2087 164.195 77.5752 165.403 77.5752 166.639" stroke="black" stroke-width="2.6488" stroke-linejoin="round"/>
<path d="M311.979 184.99C319.966 183.054 352.675 167.104 348.069 159.337C344.075 153.334 321.902 128.514 329.546 93.1834" stroke="black" stroke-width="2.6488" stroke-linecap="round" stroke-linejoin="round"/>
<path d="M206.501 78.6048C212.58 93.2566 220.342 107.152 229.63 120.012C229.63 120.012 255.307 98.2548 263.442 93.5996C269.714 90.0224 283.312 89.6059 283.312 89.6059C284.072 93.3546 290.809 115.969 295.122 117.268C298.748 118.346 311.562 94.4326 313.081 88.1113C313.081 88.1113 331.31 91.713 337.19 96.5397C342.36 100.778 365.906 134.125 369.581 141.671C372.472 147.674 375.633 152.966 375.216 159.679C373.869 180.481 336.161 198.538 314.135 197.093" stroke="black" stroke-width="2.6488" stroke-linecap="round" stroke-linejoin="round"/>
<path d="M209.294 86.8128L197.827 88.4299" stroke="black" stroke-width="2.6488" stroke-linecap="round" stroke-linejoin="round"/>
<path d="M314.282 382.151H342.164" stroke="black" stroke-width="2.6488" stroke-linecap="round" stroke-linejoin="round"/>
<path d="M211.792 329.597H236.147" stroke="black" stroke-width="2.6488" stroke-linecap="round" stroke-linejoin="round"/>
<path d="M286.154 419.001C288.604 409.52 298.919 417.286 314.429 415.375C323.274 414.297 332.168 408.368 341.968 409.029" stroke="black" stroke-width="2.6488" stroke-miterlimit="10"/>
<path d="M183.665 370.17C185.919 360.713 195.916 368.479 210.788 366.568C219.265 365.466 227.792 359.561 237.2 360.198" stroke="black" stroke-width="2.6488" stroke-miterlimit="10"/>
<path d="M304.554 199.985V202.288C304.554 203.587 304.038 204.834 303.119 205.753C302.2 206.672 300.953 207.188 299.654 207.188H291.813C290.514 207.188 289.267 206.672 288.348 205.753C287.429 204.834 286.913 203.587 286.913 202.288V198.784" stroke="black" stroke-width="2.6488" stroke-miterlimit="10" stroke-linecap="round"/>
<path d="M286.938 182.098V163.232C286.938 161.932 287.454 160.686 288.373 159.767C289.292 158.848 290.538 158.332 291.838 158.332H299.678C300.978 158.332 302.224 158.848 303.143 159.767C304.062 160.686 304.579 161.932 304.579 163.232V182.833" stroke="black" stroke-width="2.6488" stroke-miterlimit="10" stroke-linecap="round"/>
<path d="M302.839 158.21C303.022 158.209 303.202 158.168 303.367 158.091C303.532 158.013 303.678 157.9 303.794 157.76C303.911 157.62 303.996 157.456 304.042 157.28C304.089 157.103 304.097 156.919 304.064 156.74C303.712 154.79 302.686 153.026 301.166 151.756C299.645 150.486 297.727 149.79 295.746 149.79C293.765 149.79 291.847 150.486 290.327 151.756C288.806 153.026 287.78 154.79 287.428 156.74C287.396 156.919 287.403 157.103 287.45 157.28C287.497 157.456 287.581 157.62 287.698 157.76C287.815 157.9 287.961 158.013 288.126 158.091C288.291 158.168 288.471 158.209 288.653 158.21H302.839Z" stroke="black" stroke-width="2.6488" stroke-miterlimit="10" stroke-linecap="round"/>
<path d="M195.524 70.6915C195.545 69.0558 195.48 67.4201 195.328 65.7913C195.183 64.6036 194.853 63.4461 194.348 62.3611C193.981 61.6506 193.05 60.695 191.898 61.185C190.256 61.9446 190.403 64.1497 190.452 65.3747C190.452 68.1924 190.452 76.3268 194.005 81.0555" stroke="white" stroke-width="1.9096" stroke-linecap="round" stroke-linejoin="round"/>
<path d="M207.75 78.3116C209.784 69.6381 209.881 51.6297 206.843 48.91C205.79 48.0035 203.854 47.9055 204.026 49.3021" stroke="white" stroke-width="1.9096" stroke-linecap="square" stroke-linejoin="round"/>
<path d="M286.227 188.42C285.905 188.289 285.554 188.247 285.209 188.297C284.865 188.347 284.54 188.488 284.268 188.705C283.997 188.922 283.787 189.207 283.662 189.532C283.537 189.856 283.501 190.208 283.557 190.552C283.777 194.006 290.515 196.971 298.257 195.991" stroke="white" stroke-width="1.9096" stroke-miterlimit="10" stroke-linecap="round"/>
<path d="M286.571 194.349C284.121 193.148 283.41 194.863 283.655 195.843C284.513 199.053 292.745 204.664 312.91 198.293C312.91 198.293 315.36 198.808 315.874 198.832" stroke="white" stroke-width="1.9096" stroke-miterlimit="10" stroke-linecap="square"/>
<path d="M303.966 183.128C302.202 186.288 296.812 185.921 293.112 185.382C290.888 184.633 288.802 183.524 286.938 182.099C286.686 181.936 286.402 181.833 286.105 181.794C285.809 181.756 285.507 181.785 285.223 181.878C284.693 182.026 284.228 182.349 283.904 182.793C283.579 183.238 283.414 183.778 283.434 184.328C283.63 188.077 290.785 191.924 298.478 190.748" stroke="white" stroke-width="1.9096" stroke-miterlimit="10" stroke-linecap="round"/>
<path d="M274.124 34.0621C273.588 36.6491 273.325 39.2851 273.34 41.927C273.34 50.6494 283.14 69.4419 286.62 70.814C291.814 72.8721 299.189 67.9963 301.541 63.1696" stroke="white" stroke-width="1.9096" stroke-miterlimit="10" stroke-linecap="round"/>
<path d="M288.163 71.0103C286.693 76.4741 283.263 87.4261 283.263 88.7492" stroke="white" stroke-width="2.6488" stroke-miterlimit="10"/>
<path d="M307.838 33.6451C307.838 33.6451 298.258 32.4935 291.373 32.4935C284.929 32.4935 275.3 33.6451 275.3 33.6451C274.846 33.6518 274.395 33.5668 273.974 33.3952C273.553 33.2237 273.171 32.9691 272.851 32.6466C272.531 32.3241 272.279 31.9404 272.11 31.5184C271.942 31.0964 271.86 30.6447 271.87 30.1904V27.4953C271.87 26.5985 272.226 25.7385 272.86 25.1044C273.494 24.4703 274.354 24.1141 275.251 24.1141C275.251 24.1141 286.032 23.0605 291.373 23.0605C297.204 23.0605 307.789 24.1141 307.789 24.1141C308.685 24.1141 309.545 24.4703 310.18 25.1044C310.814 25.7385 311.17 26.5985 311.17 27.4953V30.1904C311.18 30.6365 311.101 31.0801 310.939 31.4956C310.776 31.9111 310.533 32.2904 310.223 32.6116C309.913 32.9327 309.543 33.1894 309.134 33.3667C308.724 33.5441 308.284 33.6387 307.838 33.6451Z" stroke="black" stroke-width="2.6488" stroke-linecap="round" stroke-linejoin="round"/>
<path d="M279.22 90.2429C279.22 90.2429 287.158 121.433 294.852 121.36C303.28 121.36 311.611 102.812 316.535 89.6794" stroke="black" stroke-width="2.6488" stroke-miterlimit="10" stroke-linecap="round"/>
<path d="M325.429 91.444C322.948 102.17 322.938 113.32 325.4 124.05C327.862 134.781 332.731 144.811 339.64 153.383" stroke="black" stroke-width="2.6488" stroke-miterlimit="10" stroke-linecap="round"/>
<path d="M271.87 91.1257C271.87 91.1257 276.133 126.505 258.933 138.854" stroke="black" stroke-width="2.6488" stroke-miterlimit="10" stroke-linecap="round"/>
<path d="M323.763 225.809V320.04" stroke="black" stroke-width="2.6488" stroke-miterlimit="10" stroke-linecap="round"/>
<path d="M329.717 225.809V320.04" stroke="black" stroke-width="2.6488" stroke-miterlimit="10" stroke-linecap="round"/>
<path d="M34.208 193.32C43.3785 196.491 53.0995 197.758 62.7765 197.044C65.8146 196.848 65.0796 184.205 65.0796 184.205C57.0922 182.27 24.4565 167.054 29.0628 159.337C37.7386 147.629 47.5905 136.842 58.4643 127.142" stroke="black" stroke-width="2.6488" stroke-linejoin="round"/>
<path d="M87.0074 66.3058C82.1072 66.1343 80.0736 58.6614 81.2986 59.666C83.0719 60.6089 85.0411 61.1243 87.049 61.1711C89.0569 61.2179 91.0479 60.7948 92.8632 59.9355C94.2108 59.2004 90.9766 66.4773 87.0074 66.3058Z" stroke="black" stroke-width="2.6488" stroke-miterlimit="10"/>
<path d="M166.98 86.1028L146.031 96.1974L154.655 74.9303L136.892 65.7423L160.952 54.6432L140.42 35.3852L167.641 39.9915L158.331 10.59L181.215 31.269L189.276 1.5L197.337 31.269L214.782 19.4349L210.91 39.9915L241.341 34.9442L217.599 54.6432L234.824 64.5907L215.321 70.6181L232.52 96.1974L210.861 85.7108" stroke="black" stroke-width="2.6488" stroke-linecap="round" stroke-linejoin="round"/>
<path d="M201.968 101.538L200.155 106.193L188.713 91.7621L174.036 112.956L174.134 106.193" stroke="black" stroke-width="2.6488" stroke-linecap="round" stroke-linejoin="round"/>
<path d="M296.469 145.543H294.778C293.98 145.543 293.333 146.185 293.333 146.976C293.333 147.768 293.98 148.41 294.778 148.41H296.469C297.267 148.41 297.914 147.768 297.914 146.976C297.914 146.185 297.267 145.543 296.469 145.543Z" fill="black"/>
<path d="M294.215 147.625V149.585C294.215 149.707 294.314 149.806 294.436 149.806H296.861C296.983 149.806 297.082 149.707 297.082 149.585V147.625C297.082 147.503 296.983 147.404 296.861 147.404H294.436C294.314 147.404 294.215 147.503 294.215 147.625Z" fill="black"/>
</svg>
