<svg width="170" height="219" viewBox="0 0 170 219" fill="none" xmlns="http://www.w3.org/2000/svg">
<path d="M81.3383 70.3383H11V0H81.3383V70.3383Z" fill="#F1511B"/>
<path d="M159 70.3383H88.6628V0H159V70.3383Z" fill="#80CC28"/>
<path d="M81.3365 148.027H11.0002V77.6892H81.3365V148.027Z" fill="#00ADEF"/>
<path d="M159 148.027H88.6628V77.6892H159V148.027Z" fill="#FBBC09"/>
<path d="M17.7676 183.525L16.3649 187.388H16.248C16.0142 186.517 15.5856 185.192 14.8843 183.601L7.3642 165.234H0V194.508H4.8705V176.444C4.8705 175.308 4.8705 174.02 4.83154 172.43C4.79257 171.634 4.71465 171.028 4.67568 170.574H4.79257C5.02635 171.71 5.2991 172.543 5.49392 173.073L14.5336 194.432H17.9624L26.9241 172.884C27.119 172.392 27.3138 171.407 27.5086 170.574H27.6255C27.5086 172.733 27.4307 174.664 27.3917 175.838V194.394H32.5739V165.159H25.4825L17.7676 183.525ZM37.4834 173.414H42.5487V194.394H37.4834V173.414ZM40.055 164.553C39.1978 164.553 38.4964 164.856 37.912 165.386C37.3275 165.916 37.0158 166.598 37.0158 167.431C37.0158 168.226 37.3275 168.908 37.912 169.438C38.4964 169.968 39.1978 170.233 40.055 170.233C40.9122 170.233 41.6525 169.93 42.198 169.438C42.7825 168.908 43.0942 168.226 43.0942 167.431C43.0942 166.636 42.7825 165.954 42.198 165.386C41.6915 164.856 40.9512 164.553 40.055 164.553ZM60.5111 173.225C59.576 173.036 58.6019 172.922 57.6667 172.922C55.3679 172.922 53.2638 173.414 51.5104 174.399C49.757 175.383 48.3543 176.747 47.4582 178.451C46.523 180.193 46.0555 182.2 46.0555 184.51C46.0555 186.517 46.523 188.297 47.4192 189.925C48.3154 191.516 49.5622 192.804 51.2377 193.675C52.8352 194.546 54.7055 195 56.8095 195C59.2253 195 61.2904 194.508 62.9269 193.599L62.9659 193.561V189.017L62.771 189.168C62.0307 189.698 61.1735 190.153 60.3163 190.418C59.4201 190.721 58.6019 190.872 57.9005 190.872C55.8744 190.872 54.2769 190.304 53.1469 189.054C51.978 187.843 51.3935 186.176 51.3935 184.093C51.3935 181.935 51.978 180.231 53.1859 178.981C54.3938 177.731 55.9913 177.088 57.9395 177.088C59.576 177.088 61.2514 177.618 62.771 178.678L62.9659 178.83V174.02L62.9269 173.982C62.2645 173.717 61.5242 173.414 60.5111 173.225ZM77.2267 173.073C75.9798 173.073 74.8109 173.452 73.7978 174.247C72.9406 174.929 72.3562 175.914 71.8496 177.088H71.8107V173.414H66.7454V194.394H71.8107V183.677C71.8107 181.859 72.2003 180.344 73.0575 179.246C73.9147 178.11 75.0057 177.542 76.3305 177.542C76.7981 177.542 77.2656 177.656 77.8501 177.731C78.3956 177.883 78.7852 178.034 79.058 178.224L79.2528 178.375V173.452L79.1359 173.414C78.7852 173.187 78.0839 173.073 77.2267 173.073ZM91.0199 172.96C87.4742 172.96 84.6298 173.982 82.6427 175.989C80.6165 177.996 79.6424 180.761 79.6424 184.245C79.6424 187.502 80.6555 190.153 82.6037 192.084C84.5519 193.978 87.2015 194.962 90.5134 194.962C93.9812 194.962 96.7476 193.94 98.7348 191.895C100.761 189.85 101.735 187.123 101.735 183.753C101.735 180.42 100.8 177.769 98.8907 175.838C97.0594 173.907 94.3708 172.96 91.0199 172.96ZM95.0722 189.092C94.1371 190.266 92.6564 190.834 90.8251 190.834C88.9938 190.834 87.5132 190.266 86.4612 189.017C85.4091 187.843 84.9026 186.138 84.9026 183.98C84.9026 181.746 85.4481 180.041 86.4612 178.83C87.5132 177.618 88.9548 177.012 90.7862 177.012C92.5785 177.012 93.9812 177.58 94.9943 178.754C96.0073 179.928 96.5528 181.632 96.5528 183.866C96.4749 186.138 96.0463 187.918 95.0722 189.092ZM113.035 182.124C111.437 181.48 110.424 180.988 109.956 180.572C109.567 180.193 109.372 179.663 109.372 178.981C109.372 178.413 109.606 177.845 110.19 177.466C110.775 177.088 111.437 176.898 112.411 176.898C113.268 176.898 114.165 177.05 115.022 177.277C115.879 177.504 116.658 177.845 117.282 178.299L117.477 178.451V173.831L117.36 173.793C116.775 173.566 115.996 173.338 115.061 173.149C114.126 172.998 113.268 172.922 112.567 172.922C110.151 172.922 108.164 173.49 106.606 174.74C105.047 175.914 104.307 177.504 104.307 179.36C104.307 180.344 104.463 181.215 104.813 181.935C105.164 182.654 105.67 183.336 106.372 183.904C107.073 184.434 108.086 185.04 109.489 185.608C110.658 186.101 111.554 186.479 112.099 186.782C112.645 187.085 112.996 187.426 113.268 187.691C113.463 187.994 113.58 188.373 113.58 188.865C113.58 190.266 112.489 190.948 110.268 190.948C109.411 190.948 108.515 190.796 107.463 190.456C106.411 190.115 105.437 189.622 104.618 189.054L104.424 188.903V193.712L104.54 193.75C105.281 194.091 106.177 194.318 107.268 194.583C108.359 194.773 109.333 194.924 110.19 194.924C112.801 194.924 114.944 194.356 116.463 193.107C118.022 191.895 118.84 190.342 118.84 188.335C118.84 186.934 118.451 185.684 117.593 184.737C116.463 183.828 115.061 182.882 113.035 182.124ZM132.205 172.96C128.659 172.96 125.815 173.982 123.828 175.989C121.84 177.996 120.827 180.761 120.827 184.245C120.827 187.502 121.84 190.153 123.789 192.084C125.737 193.978 128.386 194.962 131.698 194.962C135.166 194.962 137.933 193.94 139.92 191.895C141.946 189.85 142.92 187.123 142.92 183.753C142.92 180.42 141.985 177.769 140.076 175.838C138.244 173.907 135.556 172.96 132.205 172.96ZM136.218 189.092C135.283 190.266 133.802 190.834 131.971 190.834C130.101 190.834 128.659 190.266 127.607 189.017C126.555 187.843 126.049 186.138 126.049 183.98C126.049 181.746 126.594 180.041 127.607 178.83C128.659 177.618 130.101 177.012 131.932 177.012C133.686 177.012 135.127 177.58 136.14 178.754C137.153 179.928 137.699 181.632 137.699 183.866C137.699 186.138 137.192 187.918 136.218 189.092ZM170 177.466V173.414H164.896V167.204L164.74 167.241L159.908 168.643L159.791 168.68V173.414H152.154V170.763C152.154 169.551 152.466 168.605 153.012 167.999C153.557 167.393 154.375 167.09 155.389 167.09C156.09 167.09 156.83 167.241 157.648 167.582L157.843 167.696V163.417L157.726 163.379C157.025 163.151 156.09 163 154.882 163C153.362 163 152.038 163.341 150.83 163.909C149.622 164.553 148.726 165.424 148.063 166.598C147.401 167.734 147.05 169.021 147.05 170.498V173.414H143.504V177.428H147.05V194.394H152.154V177.466H159.791V188.259C159.791 192.69 161.934 194.924 166.22 194.924C166.922 194.924 167.662 194.811 168.364 194.697C169.104 194.546 169.649 194.356 169.961 194.205L170 194.167V190.115L169.805 190.266C169.493 190.456 169.221 190.607 168.753 190.721C168.364 190.834 168.013 190.872 167.74 190.872C166.727 190.872 166.026 190.645 165.519 190.077C165.052 189.547 164.818 188.676 164.818 187.388V177.466H170Z" fill="#737373"/>
<path d="M33.778 214C33.6193 214 33.484 213.953 33.372 213.86C33.2693 213.757 33.218 213.627 33.218 213.468V204.648C33.218 204.471 33.2693 204.331 33.372 204.228C33.4747 204.116 33.6147 204.06 33.792 204.06C33.9693 204.06 34.1093 204.116 34.212 204.228C34.3147 204.331 34.366 204.471 34.366 204.648V213.02H38.888C39.056 213.02 39.1867 213.062 39.28 213.146C39.3733 213.23 39.42 213.351 39.42 213.51C39.42 213.669 39.3733 213.79 39.28 213.874C39.1867 213.958 39.056 214 38.888 214H33.778ZM45.8749 212.418C45.9775 212.418 46.0662 212.46 46.1409 212.544C46.2155 212.628 46.2529 212.735 46.2529 212.866C46.2529 213.099 46.0895 213.314 45.7629 213.51C45.4269 213.706 45.0722 213.855 44.6989 213.958C44.3255 214.051 43.9615 214.098 43.6069 214.098C42.5522 214.098 41.7169 213.785 41.1009 213.16C40.4942 212.535 40.1909 211.671 40.1909 210.57C40.1909 209.87 40.3262 209.254 40.5969 208.722C40.8675 208.181 41.2455 207.761 41.7309 207.462C42.2255 207.163 42.7855 207.014 43.4109 207.014C44.2975 207.014 45.0022 207.303 45.5249 207.882C46.0475 208.461 46.3089 209.245 46.3089 210.234C46.3089 210.421 46.2715 210.556 46.1969 210.64C46.1222 210.724 46.0009 210.766 45.8329 210.766H41.3249C41.4089 212.371 42.1695 213.174 43.6069 213.174C43.9709 213.174 44.2835 213.127 44.5449 213.034C44.8062 212.931 45.0862 212.796 45.3849 212.628C45.6275 212.488 45.7909 212.418 45.8749 212.418ZM43.4249 207.896C42.8275 207.896 42.3469 208.083 41.9829 208.456C41.6282 208.829 41.4182 209.357 41.3529 210.038H45.3149C45.2962 209.347 45.1235 208.82 44.7969 208.456C44.4702 208.083 44.0129 207.896 43.4249 207.896ZM50.7657 207.014C52.4737 207.014 53.3277 207.91 53.3277 209.702V213.51C53.3277 213.678 53.2764 213.813 53.1737 213.916C53.0804 214.019 52.9497 214.07 52.7817 214.07C52.6137 214.07 52.4784 214.019 52.3757 213.916C52.273 213.813 52.2217 213.678 52.2217 213.51V212.838C52.0444 213.239 51.7737 213.552 51.4097 213.776C51.0457 213.991 50.6257 214.098 50.1497 214.098C49.711 214.098 49.305 214.009 48.9317 213.832C48.5677 213.655 48.2784 213.407 48.0637 213.09C47.849 212.773 47.7417 212.423 47.7417 212.04C47.7417 211.527 47.8724 211.13 48.1337 210.85C48.395 210.561 48.8244 210.355 49.4217 210.234C50.019 210.103 50.8497 210.038 51.9137 210.038H52.2217V209.576C52.2217 209.016 52.105 208.605 51.8717 208.344C51.6477 208.083 51.279 207.952 50.7657 207.952C50.131 207.952 49.487 208.125 48.8337 208.47C48.5817 208.629 48.4044 208.708 48.3017 208.708C48.1897 208.708 48.0964 208.666 48.0217 208.582C47.947 208.498 47.9097 208.391 47.9097 208.26C47.9097 208.129 47.947 208.017 48.0217 207.924C48.1057 207.821 48.2364 207.719 48.4137 207.616C48.7404 207.429 49.109 207.285 49.5197 207.182C49.9397 207.07 50.355 207.014 50.7657 207.014ZM50.3037 213.202C50.8637 213.202 51.321 213.015 51.6757 212.642C52.0397 212.259 52.2217 211.769 52.2217 211.172V210.766H51.9697C51.1484 210.766 50.523 210.803 50.0937 210.878C49.6644 210.943 49.3564 211.06 49.1697 211.228C48.9924 211.387 48.9037 211.625 48.9037 211.942C48.9037 212.306 49.0344 212.609 49.2957 212.852C49.5664 213.085 49.9024 213.202 50.3037 213.202ZM58.7775 207.042C59.1695 207.014 59.3655 207.173 59.3655 207.518C59.3655 207.667 59.3235 207.789 59.2395 207.882C59.1555 207.966 59.0108 208.017 58.8055 208.036L58.3855 208.078C57.7602 208.134 57.2935 208.358 56.9855 208.75C56.6868 209.133 56.5375 209.585 56.5375 210.108V213.51C56.5375 213.697 56.4862 213.837 56.3835 213.93C56.2808 214.023 56.1455 214.07 55.9775 214.07C55.8095 214.07 55.6695 214.023 55.5575 213.93C55.4548 213.827 55.4035 213.687 55.4035 213.51V207.602C55.4035 207.425 55.4595 207.289 55.5715 207.196C55.6835 207.093 55.8188 207.042 55.9775 207.042C56.1268 207.042 56.2528 207.093 56.3555 207.196C56.4582 207.289 56.5095 207.42 56.5095 207.588V208.372C56.7055 207.961 56.9808 207.649 57.3355 207.434C57.6995 207.219 58.1148 207.093 58.5815 207.056L58.7775 207.042ZM63.7691 207.014C65.4024 207.014 66.2191 207.915 66.2191 209.716V213.51C66.2191 213.687 66.1677 213.827 66.0651 213.93C65.9717 214.023 65.8364 214.07 65.6591 214.07C65.4817 214.07 65.3417 214.023 65.2391 213.93C65.1364 213.827 65.0851 213.687 65.0851 213.51V209.786C65.0851 209.151 64.9591 208.689 64.7071 208.4C64.4644 208.111 64.0724 207.966 63.5311 207.966C62.9057 207.966 62.4064 208.157 62.0331 208.54C61.6597 208.923 61.4731 209.441 61.4731 210.094V213.51C61.4731 213.687 61.4217 213.827 61.3191 213.93C61.2257 214.023 61.0904 214.07 60.9131 214.07C60.7357 214.07 60.5957 214.023 60.4931 213.93C60.3904 213.827 60.3391 213.687 60.3391 213.51V207.602C60.3391 207.434 60.3904 207.299 60.4931 207.196C60.5957 207.093 60.7357 207.042 60.9131 207.042C61.0811 207.042 61.2117 207.093 61.3051 207.196C61.4077 207.299 61.4591 207.429 61.4591 207.588V208.302C61.6831 207.882 61.9957 207.565 62.3971 207.35C62.7984 207.126 63.2557 207.014 63.7691 207.014ZM68.8701 214.07C68.7021 214.07 68.5621 214.023 68.4501 213.93C68.3474 213.827 68.2961 213.687 68.2961 213.51V207.602C68.2961 207.425 68.3474 207.289 68.4501 207.196C68.5621 207.093 68.7021 207.042 68.8701 207.042C69.0381 207.042 69.1734 207.093 69.2761 207.196C69.3788 207.289 69.4301 207.425 69.4301 207.602V213.51C69.4301 213.697 69.3788 213.837 69.2761 213.93C69.1734 214.023 69.0381 214.07 68.8701 214.07ZM68.8701 205.572C68.6461 205.572 68.4641 205.507 68.3241 205.376C68.1841 205.245 68.1141 205.073 68.1141 204.858C68.1141 204.653 68.1841 204.485 68.3241 204.354C68.4641 204.223 68.6461 204.158 68.8701 204.158C69.0941 204.158 69.2761 204.223 69.4161 204.354C69.5561 204.485 69.6261 204.653 69.6261 204.858C69.6261 205.073 69.5561 205.245 69.4161 205.376C69.2761 205.507 69.0941 205.572 68.8701 205.572ZM74.98 207.014C76.6133 207.014 77.43 207.915 77.43 209.716V213.51C77.43 213.687 77.3787 213.827 77.276 213.93C77.1827 214.023 77.0473 214.07 76.87 214.07C76.6927 214.07 76.5527 214.023 76.45 213.93C76.3473 213.827 76.296 213.687 76.296 213.51V209.786C76.296 209.151 76.17 208.689 75.918 208.4C75.6753 208.111 75.2833 207.966 74.742 207.966C74.1167 207.966 73.6173 208.157 73.244 208.54C72.8707 208.923 72.684 209.441 72.684 210.094V213.51C72.684 213.687 72.6327 213.827 72.53 213.93C72.4367 214.023 72.3013 214.07 72.124 214.07C71.9467 214.07 71.8067 214.023 71.704 213.93C71.6013 213.827 71.55 213.687 71.55 213.51V207.602C71.55 207.434 71.6013 207.299 71.704 207.196C71.8067 207.093 71.9467 207.042 72.124 207.042C72.292 207.042 72.4227 207.093 72.516 207.196C72.6187 207.299 72.67 207.429 72.67 207.588V208.302C72.894 207.882 73.2067 207.565 73.608 207.35C74.0093 207.126 74.4667 207.014 74.98 207.014ZM85.037 207.042C85.2144 207.042 85.3544 207.093 85.457 207.196C85.5597 207.299 85.611 207.434 85.611 207.602V213.538C85.611 214.555 85.3497 215.321 84.827 215.834C84.3044 216.357 83.5297 216.618 82.503 216.618C81.5044 216.618 80.6737 216.422 80.011 216.03C79.675 215.843 79.507 215.629 79.507 215.386C79.507 215.255 79.5397 215.148 79.605 215.064C79.6797 214.98 79.773 214.938 79.885 214.938C79.9784 214.938 80.1464 215.003 80.389 215.134C80.7157 215.302 81.0377 215.437 81.355 215.54C81.6724 215.643 82.0504 215.694 82.489 215.694C83.1517 215.694 83.651 215.517 83.987 215.162C84.323 214.817 84.491 214.308 84.491 213.636V212.432C84.295 212.871 83.9917 213.207 83.581 213.44C83.1797 213.673 82.7037 213.79 82.153 213.79C81.5557 213.79 81.0237 213.65 80.557 213.37C80.0997 213.09 79.7404 212.693 79.479 212.18C79.227 211.667 79.101 211.074 79.101 210.402C79.101 209.73 79.227 209.137 79.479 208.624C79.7404 208.111 80.0997 207.714 80.557 207.434C81.0237 207.154 81.5557 207.014 82.153 207.014C82.6944 207.014 83.1657 207.131 83.567 207.364C83.9684 207.597 84.2717 207.929 84.477 208.358V207.602C84.477 207.434 84.5237 207.299 84.617 207.196C84.7197 207.093 84.8597 207.042 85.037 207.042ZM82.377 212.852C83.0304 212.852 83.5437 212.637 83.917 212.208C84.2904 211.769 84.477 211.167 84.477 210.402C84.477 209.646 84.2904 209.053 83.917 208.624C83.553 208.185 83.0397 207.966 82.377 207.966C81.7144 207.966 81.1917 208.185 80.809 208.624C80.4357 209.053 80.249 209.646 80.249 210.402C80.249 211.167 80.4357 211.769 80.809 212.208C81.1917 212.637 81.7144 212.852 82.377 212.852ZM92.0615 214.07C91.8842 214.07 91.7442 214.019 91.6415 213.916C91.5389 213.804 91.4875 213.659 91.4875 213.482V204.69C91.4875 204.522 91.5389 204.387 91.6415 204.284C91.7535 204.181 91.8982 204.13 92.0755 204.13H95.3935C96.4295 204.13 97.2322 204.382 97.8015 204.886C98.3802 205.39 98.6695 206.104 98.6695 207.028C98.6695 207.952 98.3802 208.671 97.8015 209.184C97.2229 209.697 96.4202 209.954 95.3935 209.954H92.6355V213.482C92.6355 213.659 92.5842 213.804 92.4815 213.916C92.3789 214.019 92.2389 214.07 92.0615 214.07ZM95.2815 209.002C96.7842 209.002 97.5355 208.344 97.5355 207.028C97.5355 205.731 96.7842 205.082 95.2815 205.082H92.6355V209.002H95.2815ZM102.979 207.014C104.687 207.014 105.541 207.91 105.541 209.702V213.51C105.541 213.678 105.489 213.813 105.387 213.916C105.293 214.019 105.163 214.07 104.995 214.07C104.827 214.07 104.691 214.019 104.589 213.916C104.486 213.813 104.435 213.678 104.435 213.51V212.838C104.257 213.239 103.987 213.552 103.623 213.776C103.259 213.991 102.839 214.098 102.363 214.098C101.924 214.098 101.518 214.009 101.145 213.832C100.781 213.655 100.491 213.407 100.277 213.09C100.062 212.773 99.9546 212.423 99.9546 212.04C99.9546 211.527 100.085 211.13 100.347 210.85C100.608 210.561 101.037 210.355 101.635 210.234C102.232 210.103 103.063 210.038 104.127 210.038H104.435V209.576C104.435 209.016 104.318 208.605 104.085 208.344C103.861 208.083 103.492 207.952 102.979 207.952C102.344 207.952 101.7 208.125 101.047 208.47C100.795 208.629 100.617 208.708 100.515 208.708C100.403 208.708 100.309 208.666 100.235 208.582C100.16 208.498 100.123 208.391 100.123 208.26C100.123 208.129 100.16 208.017 100.235 207.924C100.319 207.821 100.449 207.719 100.627 207.616C100.953 207.429 101.322 207.285 101.733 207.182C102.153 207.07 102.568 207.014 102.979 207.014ZM102.517 213.202C103.077 213.202 103.534 213.015 103.889 212.642C104.253 212.259 104.435 211.769 104.435 211.172V210.766H104.183C103.361 210.766 102.736 210.803 102.307 210.878C101.877 210.943 101.569 211.06 101.383 211.228C101.205 211.387 101.117 211.625 101.117 211.942C101.117 212.306 101.247 212.609 101.509 212.852C101.779 213.085 102.115 213.202 102.517 213.202ZM110.99 207.042C111.382 207.014 111.578 207.173 111.578 207.518C111.578 207.667 111.536 207.789 111.452 207.882C111.368 207.966 111.224 208.017 111.018 208.036L110.598 208.078C109.973 208.134 109.506 208.358 109.198 208.75C108.9 209.133 108.75 209.585 108.75 210.108V213.51C108.75 213.697 108.699 213.837 108.596 213.93C108.494 214.023 108.358 214.07 108.19 214.07C108.022 214.07 107.882 214.023 107.77 213.93C107.668 213.827 107.616 213.687 107.616 213.51V207.602C107.616 207.425 107.672 207.289 107.784 207.196C107.896 207.093 108.032 207.042 108.19 207.042C108.34 207.042 108.466 207.093 108.568 207.196C108.671 207.289 108.722 207.42 108.722 207.588V208.372C108.918 207.961 109.194 207.649 109.548 207.434C109.912 207.219 110.328 207.093 110.794 207.056L110.99 207.042ZM116.249 213.174C116.575 213.202 116.739 213.351 116.739 213.622C116.739 213.781 116.678 213.902 116.557 213.986C116.445 214.061 116.272 214.089 116.039 214.07L115.661 214.042C114.914 213.986 114.363 213.762 114.009 213.37C113.654 212.978 113.477 212.385 113.477 211.592V208.078H112.539C112.38 208.078 112.254 208.041 112.161 207.966C112.077 207.882 112.035 207.775 112.035 207.644C112.035 207.504 112.077 207.392 112.161 207.308C112.254 207.224 112.38 207.182 112.539 207.182H113.477V205.6C113.477 205.423 113.528 205.287 113.631 205.194C113.733 205.091 113.873 205.04 114.051 205.04C114.219 205.04 114.354 205.091 114.457 205.194C114.559 205.287 114.611 205.423 114.611 205.6V207.182H116.165C116.314 207.182 116.431 207.224 116.515 207.308C116.608 207.392 116.655 207.504 116.655 207.644C116.655 207.775 116.608 207.882 116.515 207.966C116.431 208.041 116.314 208.078 116.165 208.078H114.611V211.648C114.611 212.161 114.713 212.535 114.919 212.768C115.133 212.992 115.451 213.118 115.871 213.146L116.249 213.174ZM121.287 207.014C122.92 207.014 123.737 207.915 123.737 209.716V213.51C123.737 213.687 123.685 213.827 123.583 213.93C123.489 214.023 123.354 214.07 123.177 214.07C122.999 214.07 122.859 214.023 122.757 213.93C122.654 213.827 122.603 213.687 122.603 213.51V209.786C122.603 209.151 122.477 208.689 122.225 208.4C121.982 208.111 121.59 207.966 121.049 207.966C120.423 207.966 119.924 208.157 119.551 208.54C119.177 208.923 118.991 209.441 118.991 210.094V213.51C118.991 213.687 118.939 213.827 118.837 213.93C118.743 214.023 118.608 214.07 118.431 214.07C118.253 214.07 118.113 214.023 118.011 213.93C117.908 213.827 117.857 213.687 117.857 213.51V207.602C117.857 207.434 117.908 207.299 118.011 207.196C118.113 207.093 118.253 207.042 118.431 207.042C118.599 207.042 118.729 207.093 118.823 207.196C118.925 207.299 118.977 207.429 118.977 207.588V208.302C119.201 207.882 119.513 207.565 119.915 207.35C120.316 207.126 120.773 207.014 121.287 207.014ZM131.092 212.418C131.194 212.418 131.283 212.46 131.358 212.544C131.432 212.628 131.47 212.735 131.47 212.866C131.47 213.099 131.306 213.314 130.98 213.51C130.644 213.706 130.289 213.855 129.916 213.958C129.542 214.051 129.178 214.098 128.824 214.098C127.769 214.098 126.934 213.785 126.318 213.16C125.711 212.535 125.408 211.671 125.408 210.57C125.408 209.87 125.543 209.254 125.814 208.722C126.084 208.181 126.462 207.761 126.948 207.462C127.442 207.163 128.002 207.014 128.628 207.014C129.514 207.014 130.219 207.303 130.742 207.882C131.264 208.461 131.526 209.245 131.526 210.234C131.526 210.421 131.488 210.556 131.414 210.64C131.339 210.724 131.218 210.766 131.05 210.766H126.542C126.626 212.371 127.386 213.174 128.824 213.174C129.188 213.174 129.5 213.127 129.762 213.034C130.023 212.931 130.303 212.796 130.602 212.628C130.844 212.488 131.008 212.418 131.092 212.418ZM128.642 207.896C128.044 207.896 127.564 208.083 127.2 208.456C126.845 208.829 126.635 209.357 126.57 210.038H130.532C130.513 209.347 130.34 208.82 130.014 208.456C129.687 208.083 129.23 207.896 128.642 207.896ZM136.57 207.042C136.962 207.014 137.158 207.173 137.158 207.518C137.158 207.667 137.116 207.789 137.032 207.882C136.948 207.966 136.804 208.017 136.598 208.036L136.178 208.078C135.553 208.134 135.086 208.358 134.778 208.75C134.48 209.133 134.33 209.585 134.33 210.108V213.51C134.33 213.697 134.279 213.837 134.176 213.93C134.074 214.023 133.938 214.07 133.77 214.07C133.602 214.07 133.462 214.023 133.35 213.93C133.248 213.827 133.196 213.687 133.196 213.51V207.602C133.196 207.425 133.252 207.289 133.364 207.196C133.476 207.093 133.612 207.042 133.77 207.042C133.92 207.042 134.046 207.093 134.148 207.196C134.251 207.289 134.302 207.42 134.302 207.588V208.372C134.498 207.961 134.774 207.649 135.128 207.434C135.492 207.219 135.908 207.093 136.374 207.056L136.57 207.042Z" fill="black"/>
</svg>
