<svg width="14" height="13" viewBox="0 0 14 13" fill="none" xmlns="http://www.w3.org/2000/svg">
<path d="M12.6533 7.00781H7.16895V12.4922C7.16895 12.7727 6.9416 13 6.66113 13C6.38067 13 6.15332 12.7727 6.15332 12.4922V7.00781H0.668945C0.38848 7.00781 0.161133 6.78046 0.161133 6.5C0.161133 6.21954 0.38848 5.99219 0.668945 5.99219H6.15332V0.507812C6.15332 0.227347 6.38067 0 6.66113 0C6.9416 0 7.16895 0.227347 7.16895 0.507812V5.99219H12.6533C12.9338 5.99219 13.1611 6.21954 13.1611 6.5C13.1611 6.78046 12.9338 7.00781 12.6533 7.00781Z" fill="#A7A7A7"/>
</svg>
