<svg width="32" height="30" viewBox="0 0 32 30" fill="none" xmlns="http://www.w3.org/2000/svg">
<path d="M11.2886 14.6268C12.3016 16.6149 13.9803 18.2191 16.0559 19.1825C16.2077 19.2516 16.3757 19.2815 16.5433 19.2694C16.7108 19.2572 16.8722 19.2033 17.0115 19.1131L20.0676 17.1567C20.2028 17.0702 20.3583 17.0174 20.5201 17.0032C20.6819 16.9889 20.8448 17.0136 20.9941 17.075L26.7115 19.4273C26.9057 19.5065 27.0679 19.6442 27.1735 19.8196C27.2792 19.9949 27.3226 20.1985 27.2972 20.3996C27.1165 21.7571 26.4266 23.0048 25.3566 23.9092C24.2866 24.8135 22.9099 25.3124 21.4844 25.3125C17.0814 25.3125 12.8587 23.6333 9.7453 20.6445C6.6319 17.6556 4.88281 13.6019 4.88281 9.37496C4.88289 8.00642 5.40258 6.68482 6.34458 5.65763C7.28658 4.63044 8.5863 3.96809 10.0004 3.79461C10.2099 3.77027 10.4219 3.81195 10.6046 3.91337C10.7873 4.01479 10.9306 4.17045 11.0131 4.3569L13.4656 9.8504C13.529 9.9925 13.5549 10.1474 13.5408 10.3015C13.5268 10.4555 13.4733 10.6037 13.3851 10.7331L11.3543 13.712C11.2619 13.846 11.2072 14.0007 11.1957 14.161C11.1842 14.3214 11.2162 14.4818 11.2886 14.6268V14.6268Z" stroke="black" stroke-width="1.8" stroke-linecap="round" stroke-linejoin="round"/>
</svg>
