<svg width="31" height="25" viewBox="0 0 31 25" fill="none" xmlns="http://www.w3.org/2000/svg">
<path d="M13.733 18.7962C13.733 17.3099 13.3286 16.0245 12.4997 14.9802C11.2462 13.4136 8.79978 13.2127 7.38451 13.5341C6.79819 10.2201 9.62872 6.00239 13.2882 4.19479L10.4779 0.27832C4.95835 2.8893 -0.480303 8.87447 0.449727 16.4463C1.03605 21.2264 3.82614 24.3797 7.76866 24.3797C9.48719 24.3797 10.9227 23.8776 12.0549 22.8733C13.1871 21.8691 13.733 20.5034 13.733 18.7962ZM30.0085 18.7962C30.0085 17.3099 29.6041 16.0245 28.7752 14.9802C27.5015 13.4136 25.0753 13.2127 23.66 13.5341C23.0737 10.2201 25.9042 6.00239 29.5637 4.19479L26.7534 0.27832C21.2339 2.8893 15.8154 8.87447 16.7455 16.4463C17.3318 21.2264 20.1017 24.3797 24.0442 24.3797C25.7627 24.3797 27.1982 23.8776 28.3304 22.8733C29.4626 21.8691 30.0085 20.5034 30.0085 18.7962Z" fill="black"/>
</svg>
