<svg width="70" height="70" viewBox="0 0 70 70" fill="none" xmlns="http://www.w3.org/2000/svg">
<path d="M29.8298 69.4341L35.0722 64.0757C35.1365 64.0101 35.2119 63.9997 35.2511 63.9992C35.3066 63.9957 35.3666 64.008 35.4319 64.0717L40.7903 69.3139C41.0954 69.6125 41.5853 69.6075 41.8834 69.3019C42.1821 68.9968 42.1767 68.5075 41.8714 68.2088L36.5133 62.9669C36.1695 62.6301 35.7162 62.4395 35.2341 62.4533C34.7533 62.4587 34.3034 62.6507 33.9669 62.9947L28.7245 68.3531C28.4258 68.6581 28.4311 69.1475 28.7365 69.4461C28.8866 69.5933 29.0818 69.6667 29.277 69.6667C29.4775 69.6667 29.6783 69.5888 29.8298 69.4341Z" fill="black"/>
<path d="M33.9669 7.0051C34.3029 7.3491 34.753 7.54136 35.2341 7.5467C35.2407 7.54696 35.2477 7.54696 35.2543 7.54696C35.7279 7.54696 36.1741 7.3651 36.5127 7.03336L41.8711 1.79123C42.1765 1.49256 42.1818 1.00323 41.8831 0.698162C41.5842 0.392562 41.0943 0.387229 40.7901 0.686162L35.4311 5.92856C35.3655 5.99283 35.2938 6.00003 35.2506 6.0011C35.2114 6.00056 35.1359 5.99016 35.0717 5.92456L29.8293 0.566162C29.5306 0.260562 29.0407 0.255762 28.7362 0.554162C28.4309 0.852829 28.4255 1.34216 28.7242 1.64723L33.9669 7.0051Z" fill="black"/>
<path d="M5.61998 34.768C5.72024 34.8662 5.72238 35.0278 5.62424 35.128L0.381843 40.4864C0.0831766 40.7915 0.0885099 41.2808 0.393843 41.5795C0.543977 41.7267 0.739177 41.8 0.934377 41.8C1.13491 41.8 1.33571 41.7222 1.48691 41.5675L6.72931 36.2091C7.42344 35.4995 7.41091 34.3574 6.70104 33.663L1.34291 28.4208C1.03864 28.1227 0.548777 28.1278 0.249844 28.4328C-0.0488232 28.7379 -0.0434898 29.2272 0.261844 29.5259L5.61998 34.768Z" fill="black"/>
<path d="M63.2707 36.2088L68.5125 41.5672C68.664 41.7222 68.8643 41.7998 69.0651 41.7998C69.2603 41.7998 69.4555 41.7264 69.6056 41.5792C69.9109 41.2806 69.9163 40.7912 69.6176 40.4862L64.3757 35.1278C64.2776 35.0275 64.2795 34.8659 64.3795 34.7678L69.7379 29.5256C70.0432 29.227 70.0485 28.7376 69.7499 28.4326C69.4509 28.127 68.9613 28.1216 68.6568 28.4206L63.2979 33.663C62.5891 34.3574 62.5765 35.4995 63.2707 36.2088Z" fill="black"/>
<path d="M14.4943 54.0646C14.4877 54.0646 14.4807 54.0646 14.4743 54.0646L6.97859 54.147C6.55166 54.1518 6.20926 54.5016 6.21379 54.9286C6.21832 55.3526 6.56366 55.6931 6.98686 55.6931H6.99512L14.4909 55.6107H14.4938C14.5839 55.6107 14.6439 55.656 14.6719 55.6832C14.6999 55.7107 14.7474 55.7707 14.7482 55.8624L14.8306 63.3582C14.8351 63.7822 15.1805 64.1227 15.6037 64.1227H15.6119C16.0389 64.1179 16.3813 63.768 16.3767 63.3411L16.2943 55.8456C16.289 55.3648 16.097 54.9144 15.753 54.5779C15.4141 54.2464 14.9677 54.0646 14.4943 54.0646Z" fill="black"/>
<path d="M55.8453 16.2944L63.341 16.3768H63.3493C63.7725 16.3768 64.1178 16.0363 64.1223 15.6123C64.1269 15.1854 63.7845 14.8355 63.3575 14.8307L55.8618 14.7483C55.7218 14.7467 55.609 14.6312 55.6103 14.491L55.6927 6.99522C55.6973 6.56829 55.3549 6.21842 54.9279 6.21362C54.9253 6.21362 54.9223 6.21362 54.9197 6.21362C54.4965 6.21362 54.1511 6.55416 54.1466 6.97816L54.0642 14.4739C54.0538 15.4672 54.8525 16.2835 55.8453 16.2944Z" fill="black"/>
<path d="M6.65033 15.9467H6.6586L14.1543 15.8643C15.1471 15.8534 15.9461 15.0368 15.9354 14.044L15.853 6.54829C15.8485 6.12162 15.4898 5.77229 15.0717 5.78375C14.6447 5.78855 14.3023 6.13842 14.3069 6.56535L14.3893 14.0608C14.3909 14.2014 14.2778 14.3168 14.1375 14.3182L6.6418 14.4006C6.21486 14.4054 5.87246 14.7552 5.877 15.1822C5.8818 15.6062 6.22713 15.9467 6.65033 15.9467Z" fill="black"/>
<path d="M55.9554 54.0646C55.949 54.0646 55.9421 54.0646 55.9354 54.0646C54.9522 54.0646 54.1466 54.859 54.1354 55.8454L54.053 63.3411C54.0485 63.768 54.3909 64.1179 54.8178 64.1227H54.8261C55.2493 64.1227 55.5946 63.7822 55.5992 63.3582L55.6816 55.8627C55.6834 55.7222 55.8034 55.6222 55.9389 55.6107L63.4344 55.6931H63.4426C63.8658 55.6931 64.2112 55.3526 64.2157 54.9286C64.2202 54.5016 63.8778 54.1518 63.4509 54.147L55.9554 54.0646Z" fill="black"/>
<path d="M35.3226 56.3163C47.2402 56.3163 56.9365 46.6203 56.9365 34.7024C56.9365 22.7846 47.2405 13.0886 35.3226 13.0886C23.4045 13.0886 13.7085 22.7846 13.7085 34.7024C13.7085 46.6203 23.4045 56.3163 35.3226 56.3163ZM55.3904 34.7022C55.3904 45.7675 46.388 54.7702 35.3226 54.7702C24.2573 54.7702 15.2544 45.7675 15.2544 34.7022C15.2544 23.6368 24.257 14.6342 35.3226 14.6342C46.3882 14.6342 55.3904 23.6368 55.3904 34.7022Z" fill="black"/>
<path d="M35.3226 48.712C43.0477 48.712 49.3325 42.4272 49.3325 34.7022C49.3325 26.9771 43.0477 20.6923 35.3226 20.6923C27.5976 20.6923 21.3125 26.9771 21.3125 34.7022C21.3125 42.4272 27.5976 48.712 35.3226 48.712ZM47.7866 34.7022C47.7866 41.5747 42.1952 47.1659 35.3229 47.1659C28.4501 47.1659 22.8586 41.5747 22.8586 34.7022C22.8586 27.8296 28.4501 22.2384 35.3229 22.2384C42.1952 22.2384 47.7866 27.8296 47.7866 34.7022Z" fill="black"/>
<path d="M35.3042 41.2368C38.9071 41.2368 41.8383 38.3054 41.8383 34.7022C41.8383 31.099 38.9071 28.1675 35.3042 28.1675C31.7013 28.1675 28.7695 31.099 28.7695 34.7022C28.7695 38.3054 31.701 41.2368 35.3042 41.2368ZM35.3042 29.7136C38.0546 29.7136 40.2925 31.9515 40.2925 34.7022C40.2925 37.4528 38.0546 39.6907 35.3042 39.6907C32.5535 39.6907 30.3157 37.4528 30.3157 34.7022C30.3157 31.9515 32.5533 29.7136 35.3042 29.7136Z" fill="black"/>
</svg>
