<svg width="54" height="79" viewBox="0 0 54 79" fill="none" xmlns="http://www.w3.org/2000/svg">
<path d="M53.9965 57.5102C54.0123 60.5728 53.7278 62.8813 53.0005 65.1129C51.9097 68.4833 49.9176 71.2689 47.1509 73.5158C43.8942 76.1629 40.1789 77.902 36.0051 78.6715C34.0447 79.0254 32.0685 79.087 30.0765 78.8869C27.3573 78.6253 24.6696 78.1328 22.061 77.3017C20.8911 76.917 19.7212 76.5015 18.5829 76.0398C17.081 75.4549 15.7214 74.6393 14.4408 73.6851C13.3341 72.854 12.259 72.0076 11.2788 71.038C10.0299 69.8068 8.98644 68.4371 8.21177 66.8981C7.10509 64.7127 6.18813 62.4658 5.58737 60.0957C5.33441 59.0954 5.19212 58.0642 5.12889 57.0331C5.04984 55.8481 4.9866 54.6476 5.00241 53.4626C5.03403 50.7386 5.87194 48.2146 7.21576 45.8292C8.81254 42.982 11.0891 40.7351 13.8558 38.9652C14.5514 38.5189 15.2154 38.0418 15.8636 37.5186C17.7924 35.9334 19.8161 34.4867 21.9662 33.194C25.2071 31.2702 28.6853 29.9621 32.4322 29.3157C34.2819 29.0079 36.1474 28.8848 38.013 29.131C41.0642 29.5465 43.4673 30.9624 45.1431 33.5171C45.8387 34.5944 46.3605 35.7487 46.8189 36.9491C47.0561 37.5801 47.2774 38.1957 47.4988 38.8267C48.147 40.6427 48.9058 42.4126 49.807 44.1209C50.4077 45.2597 50.9769 46.414 51.5618 47.5528C53.2535 50.9233 54.0598 54.4937 53.9965 57.5102Z" fill="#47A748"/>
</svg>
