<svg width="19" height="25" viewBox="0 0 19 25" fill="none" xmlns="http://www.w3.org/2000/svg">
<path d="M16.8317 14.3704C16.1264 14.4349 15.4212 14.4672 14.7319 14.5641C13.7061 14.7255 12.9207 15.2744 12.4398 16.2108C12.1193 16.8404 11.8307 17.4861 11.5903 18.1642C10.9492 19.9239 10.5645 21.7643 10.0836 23.5562C10.0195 23.7984 10.0035 24.0728 9.95539 24.315C9.93936 24.4119 9.92333 24.5249 9.87524 24.6056C9.76304 24.8477 9.55467 24.9769 9.31424 24.9446C9.07381 24.9123 8.88146 24.7186 8.86543 24.4441C8.8494 24.2988 8.8494 24.1374 8.88146 23.976C8.97763 23.3625 8.94558 22.7652 8.88146 22.1679C8.75323 20.9894 8.57692 19.8109 8.20826 18.6808C7.74342 17.3408 7.03816 16.1623 5.93218 15.2421C5.37117 14.774 4.79414 14.3219 4.21711 13.8538C3.33553 13.1434 2.32572 12.6753 1.28385 12.2555C1.12356 12.1909 0.93122 12.1748 0.738875 12.1102C0.610646 12.0779 0.466387 12.0456 0.338158 11.9811C0.0656695 11.8519 -0.0465314 11.5775 0.0175834 11.303C0.0816983 11.0447 0.322129 10.8833 0.610646 10.9156C0.819019 10.9317 1.04342 10.9801 1.25179 11.0447C2.43792 11.416 3.6561 11.3353 4.87428 11.2223C5.32309 11.19 5.77189 11.1416 6.20467 11.0447C7.21448 10.8026 7.99988 10.2375 8.46472 9.28504C8.83338 8.54242 9.08984 7.76752 9.26615 6.94418C9.55467 5.66881 9.95539 4.40959 10.1157 3.10193C10.1958 2.44004 10.292 1.77814 10.3721 1.10009C10.4042 0.922511 10.4202 0.744928 10.4683 0.567346C10.5645 0.389763 10.7087 0.244468 10.9171 0.228324C11.1255 0.21218 11.3178 0.325187 11.3819 0.551202C11.4621 0.79336 11.5262 1.05166 11.5422 1.30996C11.6224 2.50461 11.7025 3.69926 11.7827 4.91005C11.8628 6.00783 11.9109 7.10562 12.0231 8.18726C12.1193 9.07517 12.4238 9.91465 12.9207 10.6734C13.3695 11.3676 13.9946 11.8035 14.7319 12.1102C15.2128 12.3039 15.6776 12.5138 16.1585 12.6753C16.415 12.7721 16.7035 12.8044 16.976 12.869C17.5049 12.9981 18.0499 13.1111 18.5788 13.2564C18.8193 13.321 18.9795 13.4986 18.9956 13.7569C19.0276 13.9991 18.8834 14.2412 18.6269 14.3381C18.4506 14.4026 18.2583 14.4511 18.0659 14.4511C17.6492 14.4672 17.2164 14.4511 16.7996 14.4511C16.8317 14.4188 16.8317 14.3865 16.8317 14.3704Z" fill="black"/>
</svg>
