<svg width="50" height="58" viewBox="0 0 50 58" fill="none" xmlns="http://www.w3.org/2000/svg">
<path d="M44.294 33.1811C42.438 33.3326 40.582 33.4084 38.7683 33.6356C36.0687 34.0143 34.0018 35.302 32.7364 37.4987C31.8928 38.9758 31.1335 40.4908 30.5008 42.0815C28.8136 46.2097 27.8013 50.5274 26.5358 54.7314C26.3671 55.2995 26.3249 55.9433 26.1984 56.5114C26.1562 56.7387 26.114 57.0038 25.9875 57.1932C25.6922 57.7613 25.1439 58.0643 24.5112 57.9885C23.8784 57.9128 23.3723 57.4583 23.3301 56.8144C23.2879 56.4736 23.2879 56.0948 23.3723 55.7161C23.6254 54.2769 23.541 52.8755 23.3723 51.4742C23.0348 48.7094 22.5708 45.9446 21.6007 43.2934C20.3774 40.1499 18.5215 37.3851 15.611 35.2263C14.1347 34.128 12.6162 33.0675 11.0976 31.9691C8.7777 30.3027 6.12031 29.2043 3.37856 28.2196C2.95675 28.0681 2.45058 28.0303 1.94441 27.8788C1.60696 27.803 1.22734 27.7273 0.889889 27.5758C0.172815 27.2728 -0.122451 26.6289 0.0462722 25.9851C0.214995 25.3791 0.847708 25.0003 1.60696 25.0761C2.15531 25.114 2.74584 25.2276 3.2942 25.3791C6.41558 26.2502 9.62132 26.0608 12.8271 25.7957C14.0081 25.7199 15.1892 25.6063 16.3281 25.3791C18.9855 24.811 21.0523 23.4854 22.2756 21.2508C23.2457 19.5086 23.9206 17.6907 24.3846 15.7591C25.1439 12.7671 26.1984 9.8129 26.6202 6.74512C26.8311 5.19229 27.0842 3.63946 27.2951 2.04875C27.3794 1.63214 27.4216 1.21553 27.5482 0.798912C27.8013 0.382299 28.1809 0.0414339 28.7292 0.00355998C29.2776 -0.0343139 29.7838 0.230803 29.9525 0.761038C30.1634 1.32915 30.3321 1.93513 30.3743 2.54111C30.5852 5.34378 30.7961 8.14645 31.007 10.987C31.2179 13.5624 31.3444 16.1378 31.6397 18.6754C31.8928 20.7585 32.6942 22.7279 34.0018 24.508C35.1829 26.1366 36.8279 27.1592 38.7683 27.8788C40.0337 28.3332 41.2569 28.8256 42.5224 29.2043C43.1973 29.4316 43.9565 29.5073 44.6736 29.6588C46.0656 29.9618 47.4997 30.2269 48.8917 30.5678C49.5244 30.7193 49.9462 31.1359 49.9884 31.7419C50.0727 32.31 49.6931 32.8781 49.0182 33.1054C48.5542 33.2569 48.048 33.3705 47.5419 33.3705C46.4452 33.4083 45.3063 33.3705 44.2096 33.3705C44.294 33.2947 44.294 33.219 44.294 33.1811Z" fill="#FDD417"/>
</svg>
